<svg width="2039" height="2688" viewBox="0 0 2039 2688" xmlns="http://www.w3.org/2000/svg" xmlns:xlink="http://www.w3.org/1999/xlink"><title>bisonbooks</title><desc>Created using Figma</desc><use xlink:href="#a" transform="translate(0 144)" fill="#2E3C51"/><use xlink:href="#b" transform="translate(127.26 619.2)" fill="#C6D8DD"/><use xlink:href="#c" transform="translate(307.4 273.3)" fill="#FFF"/><use xlink:href="#d" transform="translate(948.06 305.9)" fill="#2E3C51"/><use xlink:href="#e" transform="translate(948.06 1882)" fill="#2E3C51"/><use xlink:href="#f" transform="translate(160 1094)" fill="#2E3C51"/><use xlink:href="#g" transform="translate(1736.04 1094)" fill="#2E3C51"/><use xlink:href="#h" transform="translate(1348.9 459.6)" fill="#D81212"/><use xlink:href="#i" transform="translate(1634.87 775.1)" fill="#D81212"/><use xlink:href="#j" transform="translate(323.45 1440.7)" fill="#D81212"/><use xlink:href="#k" transform="translate(609.42 1756.2)" fill="#D81212"/><use xlink:href="#l" transform="translate(1615.16 1445.6)" fill="#D81212"/><use xlink:href="#m" transform="translate(1299.67 1731.5)" fill="#D81212"/><use xlink:href="#n" transform="translate(634.07 420.1)" fill="#D81212"/><use xlink:href="#o" transform="translate(318.5 706.1)" fill="#D81212"/><use xlink:href="#p" transform="rotate(110.477 310.807 841.567)" fill="#2E3C51"/><use xlink:href="#q" transform="rotate(75.727 142.855 1428.601)" fill="#D81212"/><use xlink:href="#r" transform="translate(600.54 2540.5)" fill="#17A552"/><use xlink:href="#s" transform="translate(1047.84 2540.5)" fill="#B7CC27"/><use xlink:href="#t" transform="translate(1351.34 2540.5)" fill="#B7CC27"/><use xlink:href="#u" transform="translate(600.54 2660.2)" fill="#42525B" opacity=".5"/><use xlink:href="#v" transform="translate(600.54 2540.5)" fill="#2ED155"/><use xlink:href="#w" transform="translate(611.14 2559.2)" fill="#FFF"/><use xlink:href="#x" transform="translate(611.14 2559.2)" fill="#B1B6BC"/><use xlink:href="#y" transform="translate(948.96 2564.8)" fill="#56504C"/><use xlink:href="#z" transform="translate(543.46 2393)" fill="#0DC8DB"/><use xlink:href="#A" transform="translate(544.7 2512.7)" fill="#42525B" opacity=".5"/><use xlink:href="#B" transform="translate(544.7 2393)" fill="#1CE8F2"/><use xlink:href="#C" transform="translate(1158.88 2393)" fill="#258B99"/><use xlink:href="#D" transform="translate(1180.71 2411.7)" fill="#F4E7DC"/><use xlink:href="#E" transform="translate(1181.02 2411.7)" fill="#B1B6BC"/><use xlink:href="#F" transform="translate(1180.71 2417.3)" fill="#56504C"/><use xlink:href="#G" transform="translate(599.6 2245.8)" fill="#E8426E"/><use xlink:href="#H" transform="translate(600.85 2365.5)" fill="#B23259"/><use xlink:href="#I" transform="translate(600.85 2245.5)" fill="#FF527B"/><use xlink:href="#J" transform="translate(1234.05 2245.5)" fill="#B23259"/><use xlink:href="#K" transform="translate(1255.89 2264.5)" fill="#F4E7DC"/><use xlink:href="#L" transform="translate(1255.89 2264.5)" fill="#B1B6BC"/><use xlink:href="#M" transform="translate(1255.89 2270.1)" fill="#56504C"/><use xlink:href="#N" transform="translate(932.42 2301)" fill="#F4F4E4"/><use xlink:href="#O" transform="translate(838.85 2301)" fill="#F4F4E4"/><use xlink:href="#P" transform="translate(540.02 2098.3)" fill="#FF8D1C"/><use xlink:href="#Q" transform="translate(540.02 2218)" fill="#D1651C"/><use xlink:href="#R" transform="translate(540.02 2098.6)" fill="#FFC12A"/><use xlink:href="#S" transform="translate(987.01 2098.3)" fill="#DA463A"/><use xlink:href="#T" transform="translate(540.02 2098.3)" fill="#FFC12A"/><use xlink:href="#U" transform="translate(550.63 2117)" fill="#FFF"/><use xlink:href="#V" transform="translate(550.63 2117)" fill="#B1B6BC"/><use xlink:href="#W" transform="translate(888.44 2122.6)" fill="#56504C"/><use xlink:href="#X" transform="translate(1146.72 2098.3)" fill="#D1651C" opacity=".7"/><use xlink:href="#Y" transform="translate(1461.76 2112.3)" fill="#D1651C"/><use xlink:href="#Z" transform="translate(1461.13 2111.7)" fill="#D1651C"/><use xlink:href="#aa" transform="translate(1465.19 2117.3)" fill="#D1651C"/><use xlink:href="#ab" transform="translate(1466.44 2119.8)" fill="#D1651C"/><use xlink:href="#ac" transform="translate(1464.88 2116.7)" fill="#D1651C"/><use xlink:href="#ad" transform="translate(1459.89 2110.1)" fill="#D1651C"/><use xlink:href="#ae" transform="translate(1181.03 2120.4)" fill="#D1651C"/><use xlink:href="#af" transform="translate(1458.64 2108.9)" fill="#D1651C"/><use xlink:href="#ag" transform="translate(1454.27 2105.4)" fill="#D1651C"/><use xlink:href="#ah" transform="translate(1457.39 2107.6)" fill="#D1651C"/><use xlink:href="#ai" transform="translate(1312.97 2098.3)" fill="#DA463A" opacity=".54"/><use xlink:href="#aj" transform="translate(1347.28 2098.3)" fill="#DA463A" opacity=".54"/><use xlink:href="#ak" transform="translate(646.39 1923.9)" fill="#B54840"/><use xlink:href="#al" transform="translate(723.44 1952.3)" fill="#FF7F15"/><use xlink:href="#am" transform="translate(725.93 2069.9)" fill="#E8641A"/><use xlink:href="#an" transform="translate(647.64 2065.2)" fill="#8C362A"/><use xlink:href="#ao" transform="translate(904.66 2070.2)" fill="#8C362A"/><use xlink:href="#ap" transform="translate(725.93 1923.9)" fill="#FFA81D"/><use xlink:href="#aq" transform="translate(647.64 1923.9)" fill="#E5624C" opacity=".87"/><use xlink:href="#ar" transform="translate(904.66 1924.2)" fill="#E5624C" opacity=".9"/><use xlink:href="#as" transform="translate(1148.59 1923.9)" fill="#8C362A"/><use xlink:href="#at" transform="translate(1170.42 1946.1)" fill="#F4E7DC"/><use xlink:href="#au" transform="translate(1170.73 1946.1)" fill="#B1B6BC"/><use xlink:href="#av" transform="translate(1170.42 1952.9)" fill="#56504C"/><use xlink:href="#aw" transform="translate(588.68 1749.9)" fill="#DA463A"/><use xlink:href="#ax" transform="translate(588.68 1890.9)" fill="#BC342E"/><use xlink:href="#ay" transform="translate(1118.33 1778)" fill="#BFE743"/><use xlink:href="#az" transform="translate(1118.33 1749.9)" fill="#F9F93D"/><use xlink:href="#aA" transform="translate(589 1749.9)" fill="#FC5047"/><use xlink:href="#aB" transform="translate(1328.25 1749.9)" fill="#FC5047"/><use xlink:href="#aC" transform="translate(588.68 1749.6)" fill="#FC5047"/><use xlink:href="#aD" transform="translate(599.6 1772)" fill="#FFF"/><use xlink:href="#aE" transform="translate(599.6 1772)" fill="#B1B6BC"/><use xlink:href="#aF" transform="translate(875.03 1778.6)" fill="#56504C"/><use xlink:href="#aG" transform="translate(627.05 1602.4)" fill="#3465BC"/><use xlink:href="#S" transform="translate(1292.7 1602.4)" fill="#0DC8DB"/><use xlink:href="#aH" transform="translate(1343.85 1602.4)" fill="#0DC8DB"/><use xlink:href="#aI" transform="translate(627.05 1722.1)" fill="#42525B" opacity=".5"/><use xlink:href="#aJ" transform="translate(627.05 1602.4)" fill="#68A6FF"/><use xlink:href="#aK" transform="translate(627.05 1602.4)" fill="#5497F7"/><use xlink:href="#U" transform="translate(637.97 1621.1)" fill="#FFF"/><use xlink:href="#V" transform="translate(637.97 1621.1)" fill="#B1B6BC"/><use xlink:href="#W" transform="translate(975.78 1626.7)" fill="#56504C"/><use xlink:href="#aL" transform="translate(593.05 1407.2)" fill="#FFC20D"/><use xlink:href="#aM" transform="translate(636.1 1433.3)" fill="#FFDC48"/><use xlink:href="#aN" transform="translate(594.3 1565.9)" fill="#E8A205"/><use xlink:href="#aO" transform="translate(1095.25 1407.2)" fill="#EF8834"/><use xlink:href="#aP" transform="translate(1117.08 1432.1)" fill="#F4E7DC"/><use xlink:href="#aQ" transform="translate(1117.39 1432.1)" fill="#B1B6BC"/><use xlink:href="#aR" transform="translate(1117.08 1439.9)" fill="#56504C"/><use xlink:href="#aS" transform="translate(646.7 1475.5)" fill="#E8A205"/><use xlink:href="#aT" transform="translate(651.07 1260)" fill="#14A552"/><use xlink:href="#aU" transform="translate(728.11 1283.7)" fill="#B7CC27"/><use xlink:href="#aV" transform="translate(652.32 1379.7)" fill="#42525B" opacity=".5"/><use xlink:href="#aW" transform="translate(730.61 1260)" fill="#D8E52E"/><use xlink:href="#aX" transform="translate(652.63 1260)" fill="#2ED155"/><use xlink:href="#aY" transform="translate(753.38 1260)" fill="#2ED155"/><use xlink:href="#aZ" transform="translate(1153.58 1259.6)" fill="#2E7256"/><use xlink:href="#ba" transform="translate(1175.41 1278.7)" fill="#F4E7DC"/><use xlink:href="#bb" transform="translate(1175.41 1278.7)" fill="#B1B6BC"/><use xlink:href="#bc" transform="translate(1175.41 1284.3)" fill="#47403C"/><use xlink:href="#bd" transform="translate(1216.23 380.7)" fill="#DC765D"/><use xlink:href="#be" transform="translate(784.26 380.3)" fill="#DC765D"/><use xlink:href="#bf" transform="translate(795.8)" fill="#17A552"/><use xlink:href="#bg" transform="translate(919.53 84.5)" fill="#FFF"/><use xlink:href="#bh" transform="translate(1231.2 369.2)" fill="#F7B288"/><use xlink:href="#bi" transform="translate(1248.99 379.2)" fill="#DC765D"/><use xlink:href="#bj" transform="translate(1231.25 381.4)" fill="#F7B288"/><use xlink:href="#bk" transform="translate(1232.81 387.3)" fill="#DC765D"/><use xlink:href="#bl" transform="translate(1231.96 389.2)" fill="#F7B288"/><use xlink:href="#bm" transform="translate(1250.27 395.8)" fill="#DC765D"/><use xlink:href="#bn" transform="translate(1236.1 397.3)" fill="#F7B288"/><use xlink:href="#bo" transform="translate(786.53 367.7)" fill="#F7B288"/><use xlink:href="#bp" transform="translate(788 378)" fill="#DC765D"/><use xlink:href="#bq" transform="translate(784.26 380.8)" fill="#F7B288"/><use xlink:href="#br" transform="translate(784.26 386.7)" fill="#DC765D"/><use xlink:href="#bs" transform="translate(780.21 388.6)" fill="#F7B288"/><use xlink:href="#bt" transform="translate(780.52 396.1)" fill="#DC765D"/><use xlink:href="#bu" transform="translate(778.01 397.3)" fill="#F7B288"/><use xlink:href="#bv" transform="translate(943.34 1217.8)" fill="#2E282F"/><use xlink:href="#bw" transform="translate(1096.81 1211)" fill="#2E282F"/><use xlink:href="#bx" transform="translate(1095.01 1208.2)" fill="#333"/><use xlink:href="#by" transform="translate(849.1 1216)" fill="#333"/><use xlink:href="#bz" transform="translate(916.83 685.8)" fill="#564953"/><use xlink:href="#bA" transform="translate(1004.48 542.5)" fill="#DC765D"/><use xlink:href="#bB" transform="translate(1055.59 489.1)" fill="#DC765D"/><use xlink:href="#bC" transform="translate(973.12 489.1)" fill="#DC765D"/><use xlink:href="#bD" transform="translate(980.77 442.9)" fill="#F7B288"/><use xlink:href="#bE" transform="translate(972.44 426.9)" fill="#32282F"/><use xlink:href="#bF" transform="translate(1034.74 491.5)" fill="#4C4151"/><use xlink:href="#bF" transform="translate(1001.98 491.5)" fill="#4C4151"/><use xlink:href="#bG" transform="translate(1033.33 483.9)" fill="#32282F"/><use xlink:href="#bH" transform="translate(997.53 484)" fill="#32282F"/><use xlink:href="#bI" transform="translate(1016.02 513)" fill="#DC765D"/><use xlink:href="#bJ" transform="translate(1008.22 527.4)" fill="#A72E1F"/><use xlink:href="#bK" transform="translate(1015.4 530.2)" fill="#D62F1C"/><use xlink:href="#bL" transform="translate(1211.91 436.9)" fill="#F2FAFD"/><use xlink:href="#bM" transform="translate(797.05 440.4)" fill="#F2FAFD"/><use xlink:href="#bN" transform="translate(795.8 447.7)" fill="#3F363D"/><use xlink:href="#bO" transform="translate(1025.38 443.2)" fill="#3F363D"/><use xlink:href="#bP" transform="translate(977.03 564.2)" fill="#3D303E"/><use xlink:href="#bQ" transform="translate(975.47 562.9)" fill="#3D303E"/><use xlink:href="#bR" transform="translate(1021.01 565.4)" fill="#3D303E"/><use xlink:href="#bS" transform="translate(1019.45 563.5)" fill="#3D303E"/><use xlink:href="#bT" transform="translate(1025.38 690.5)" fill="#3D303E"/><use xlink:href="#bU" transform="translate(1025.38 750.4)" fill="#3D303E"/><use xlink:href="#bV" transform="translate(1025.38 810.2)" fill="#3D303E"/><use xlink:href="#bW" transform="translate(1001.26 564.8)" fill="#EAE3E1"/><use xlink:href="#bX" transform="translate(1013.94 577.7)" fill="#F22F20"/><use xlink:href="#bY" transform="translate(1021.63 553.9)" fill="#F2FAFD"/><use xlink:href="#bZ" transform="translate(998.86 554.2)" fill="#F2FAFD"/><use xlink:href="#ca" transform="translate(1021.32 557.6)" fill="#695C70"/><use xlink:href="#cb" transform="translate(979.84 557.6)" fill="#695C70"/><use xlink:href="#cc" transform="translate(1292.7 1602.4)" fill="#32EFF9"/><use xlink:href="#cd" transform="translate(1343.85 1602.4)" fill="#32EFF9"/><use xlink:href="#ce" transform="translate(987.32 2098.3)" fill="#FC5C54"/><use xlink:href="#cf" transform="translate(1118.64 1895.9)" fill="#A1BA38"/><use xlink:href="#cg" transform="translate(1099.93 2540.5)" fill="#42525B" opacity=".5"/><defs><path id="a" d="M0 1019.46C0 1582.51 456.439 2039 1019.5 2039c563.06 0 1019.5-456.42 1019.5-1019.54C2039 456.423 1582.56 0 1019.5 0 456.439 0 0 456.423 0 1019.46z"/><path id="b" d="M186.803 0c-4.371 38.979-6.664 78.53-6.664 118.656 0 584.465 473.78 1058.224 1058.261 1058.224 117.02 0 229.66-19.06 334.92-54.17-163.66 193.18-408 315.77-681.007 315.77C399.545 1438.48 0 1039.03 0 546.203 0 340.49 69.72 150.971 186.803 0z"/><path id="c" d="M0 464.591c0-40.125 2.293-79.677 6.664-118.655C169.893 135.494 425.198 0 712.174 0c492.766 0 892.316 399.46 892.316 892.21 0 219.83-79.47 420.96-211.31 576.44-105.26 35.11-217.9 54.17-334.91 54.17C473.779 1522.82 0 1049.06 0 464.591z"/><path id="d" d="M0 71.509c0 39.48 32.03 71.508 71.511 71.508 39.482 0 71.511-32.028 71.511-71.508S110.993 0 71.512 0C31.957.072 0 32.1 0 71.509z"/><path id="e" d="M0 71.509c0 39.48 32.03 71.508 71.511 71.508 39.482 0 71.511-32.028 71.511-71.508S110.993 0 71.512 0C31.957 0 0 32.029 0 71.509z"/><path id="f" d="M71.511 142.946c39.482 0 71.511-32.029 71.511-71.509S111.064 0 71.512 0C32.028 0 0 31.957 0 71.437s32.03 71.509 71.511 71.509z"/><path id="g" d="M71.511 143.017c39.41 0 71.44-32.028 71.44-71.508S110.921 0 71.511 0C32.03 0 0 32.028 0 71.509c0 39.48 32.03 71.508 71.511 71.508z"/><path id="h" d="M0 44.353c0 24.505 19.92 44.352 44.354 44.352 24.506 0 44.354-19.847 44.354-44.352C88.708 19.848 68.86 0 44.354 0 19.92-.07 0 19.776 0 44.353z"/><path id="i" d="M0 44.353c0 24.505 19.848 44.352 44.354 44.352s44.354-19.847 44.354-44.352C88.708 19.848 68.86 0 44.354 0 19.92 0 0 19.848 0 44.353z"/><path id="j" d="M0 44.353c0 24.505 19.848 44.352 44.354 44.352s44.354-19.919 44.354-44.352C88.708 19.848 68.788 0 44.354 0 19.848-.07 0 19.848 0 44.353z"/><path id="k" d="M0 44.353c0 24.505 19.848 44.352 44.354 44.352s44.354-19.847 44.354-44.352C88.708 19.848 68.86 0 44.354 0S0 19.848 0 44.353z"/><path id="l" d="M44.354 0C19.848 0 0 19.848 0 44.353c0 24.505 19.848 44.352 44.354 44.352s44.354-19.847 44.354-44.352C88.708 19.919 68.86 0 44.354 0z"/><path id="m" d="M44.354 0C19.848 0 0 19.848 0 44.352c0 24.506 19.92 44.353 44.354 44.353 24.506 0 44.354-19.847 44.354-44.352C88.708 19.846 68.788 0 44.354 0z"/><path id="n" d="M44.354 0C19.848 0 0 19.848 0 44.352c0 24.506 19.848 44.353 44.354 44.353s44.354-19.847 44.354-44.352C88.708 19.848 68.86 0 44.354 0z"/><path id="o" d="M44.426 0C19.92 0 0 19.848 0 44.353c0 24.505 19.848 44.352 44.426 44.352 24.506 0 44.354-19.847 44.354-44.352C88.78 19.848 68.86 0 44.426 0z"/><path id="p" d="M4.189 589.266L304.564 91.428a62.846 62.846 0 0 1-4.801-24.147v-4.299C299.763 28.16 327.995 0 362.819 0c34.753 0 63.056 28.231 63.056 62.982v4.3c0 34.822-28.231 63.053-63.056 63.053-4.084 0-8.025-.43-11.823-1.146L55.063 619.575c-8.383 14.043-26.512 18.629-40.556 10.246C.391 621.509-4.195 603.31 4.189 589.266z"/><path id="q" d="M0 503.427c0 53.094 43.064 96.157 96.16 96.157s96.161-43.063 96.161-96.157c0-40.985-25.653-75.88-61.766-89.709 0-.501.143-1.003.143-1.504V34.464C130.698 15.406 115.292 0 96.232 0c-19.06 0-34.538 15.477-34.538 34.465v377.749c0 .501.144 1.003.144 1.504C25.652 427.619 0 462.513 0 503.427zm46.862 0c0-27.228 22.07-49.297 49.298-49.297 27.229 0 49.299 22.069 49.299 49.297 0 27.227-22.07 49.296-49.299 49.296-27.228.072-49.298-22.069-49.298-49.296z"/><path id="r" d="M888.047 37.424v72.666c0 20.583-16.844 37.424-37.431 37.424H9.358c-4.991 0-9.358-4.366-9.358-9.356s4.367-9.356 9.358-9.356h319.721V18.712H9.358C4.367 18.712 0 14.346 0 9.356S4.367 0 9.358 0h841.57c20.275 0 37.119 16.84 37.119 37.424z"/><path id="s" d="M22.77 0H0c20.587 0 37.43 16.84 37.43 37.424v72.666c0 20.583-16.843 37.424-37.43 37.424h22.77c20.587 0 37.431-16.841 37.431-37.424V37.424C60.201 16.841 43.357 0 22.771 0z"/><path id="t" d="M22.77 0H0c20.587 0 37.43 16.84 37.43 37.424v72.666c0 20.583-16.843 37.424-37.43 37.424h22.77c20.587 0 37.431-16.841 37.431-37.424V37.424C60.201 16.841 43.357 0 22.771 0z"/><path id="u" d="M870.267 3.742H328.768v5.302H9.358C4.367 9.044 0 13.098 0 18.4s4.367 9.356 9.358 9.356h841.57c17.156 0 31.816-11.85 36.183-27.756-5.303 2.183-10.917 3.742-16.844 3.742z"/><path id="v" d="M385.85 109.778V37.424C385.85 16.841 369.006 0 348.419 0H9.358C4.367 0 0 4.054 0 9.356s4.367 9.356 9.358 9.356h319.721v110.09H9.358c-4.991 0-9.358 4.054-9.358 9.356s4.367 9.356 9.358 9.356H348.73c20.275-.312 37.119-17.153 37.119-37.736z"/><path id="w" d="M328.456 0H0c5.615 16.53 8.734 35.241 8.734 54.889 0 19.648-3.12 38.36-8.734 54.889h328.456c13.724 0 24.953-11.227 24.953-24.638V24.638C353.409 10.915 342.18 0 328.456 0z"/><path id="x" d="M328.456 0H0c.936 2.807 1.872 5.926 2.807 9.044h321.906c13.724 0 24.953 11.227 24.953 24.638v60.502c0 1.872-.311 3.431-.623 4.99 2.807-4.054 4.366-8.732 4.366-14.034V24.638C353.409 10.915 342.18 0 328.456 0z"/><path id="y" d="M15.596 79.527V19.024c0-7.485-3.431-14.346-8.734-19.024C2.495 14.97 0 31.81 0 48.963c0 17.465 2.495 33.994 6.862 48.964 5.303-4.054 8.734-10.916 8.734-18.4z"/><path id="z" d="M37.43 0h954.8c4.991 0 9.361 4.054 9.361 9.356s-4.37 9.356-9.361 9.356H672.507v110.09h319.722c4.991 0 9.361 4.054 9.361 9.356s-4.37 9.356-9.361 9.356H37.431C16.844 147.514 0 130.673 0 110.09V37.424C0 16.841 16.844 0 37.43 0z"/><path id="A" d="M16.844 3.742h654.728v5.302h319.721c4.991 0 9.357 4.054 9.357 9.356s-4.366 9.356-9.357 9.356H36.183C19.027 27.756 4.367 15.906 0 0c5.303 2.183 10.917 3.742 16.844 3.742z"/><path id="B" d="M16.844 24.014h654.728v-5.302h319.721c4.991 0 9.357-4.054 9.357-9.356S996.284 0 991.293 0H36.183C19.027 0 4.367 11.851 0 27.756c5.303-2.495 10.917-3.742 16.844-3.742z"/><path id="C" d="M0 110.09V37.424C0 16.841 16.844 0 37.43 0h339.375c4.991 0 9.358 4.054 9.358 9.356s-4.367 9.356-9.358 9.356H57.082v110.09h319.722c4.991 0 9.358 4.054 9.358 9.356s-4.367 9.356-9.358 9.356H37.431C16.844 147.514 0 130.673 0 110.09z"/><path id="D" d="M24.954 0H353.41c-5.615 16.53-8.734 35.241-8.734 54.889 0 19.648 3.119 38.36 8.734 54.889H24.954C11.229 109.778 0 98.551 0 85.14V24.638C0 11.228 11.23 0 24.954 0z"/><path id="E" d="M24.648 0h328.456c-.936 2.807-1.872 5.925-2.807 9.044H28.703C14.98 9.044 3.75 20.271 3.75 33.682v60.502c0 1.872.312 3.431.624 4.99C1.566 95.12.006 90.442.006 85.14V24.638C-.306 11.228 10.924 0 24.648 0z"/><path id="F" d="M0 79.527V19.024C0 11.539 3.431 4.678 8.734 0c4.367 14.97 6.862 31.81 6.862 48.964 0 17.464-2.495 33.993-6.862 48.963C3.43 93.873 0 87.011 0 79.527z"/><path id="G" d="M37.43 0h973.83c4.99 0 9.35 4.054 9.35 9.356s-4.36 9.356-9.35 9.356H691.223v110.09h319.717c5 0 9.36 4.054 9.36 9.356s-4.36 9.356-9.36 9.356H37.431C16.844 147.514 0 130.673 0 110.09V37.424C0 16.841 16.844 0 37.43 0z"/><path id="H" d="M16.844 3.742h673.755v5.302h319.721c4.99 0 9.36 4.054 9.36 9.356s-4.37 9.356-9.36 9.356H36.183C19.027 27.756 4.367 15.906 0 0c5.303 2.183 10.917 3.742 16.844 3.742z"/><path id="I" d="M16.844 24.014h673.755v-5.302h319.721c4.99 0 9.36-4.054 9.36-9.356S1015.31 0 1010.32 0H36.183C19.027 0 4.367 11.851 0 27.756c5.303-2.183 10.917-3.742 16.844-3.742z"/><path id="J" d="M0 110.09V37.424C0 16.841 16.844 0 37.43 0h339.375c4.991 0 9.358 4.054 9.358 9.356s-4.367 9.356-9.358 9.356H56.77v110.09h319.722c4.991 0 9.358 4.054 9.358 9.356s-4.367 9.356-9.358 9.356H37.119C16.844 147.514 0 130.673 0 110.09z"/><path id="K" d="M24.954 0H353.41c-5.615 16.53-8.734 35.241-8.734 54.889 0 19.648 3.119 38.36 8.734 54.889H24.954C11.229 109.778 0 98.551 0 85.14V24.638C0 10.915 11.23 0 24.954 0z"/><path id="L" d="M24.954 0H353.41c-.936 2.807-1.872 5.926-2.808 9.044H28.697c-13.725 0-24.954 11.227-24.954 24.638v60.502c0 1.872.312 3.431.624 4.99C1.56 95.12 0 90.442 0 85.14V24.638C0 10.915 11.23 0 24.954 0z"/><path id="M" d="M0 79.527V19.024C0 11.54 3.431 4.678 8.734 0c4.367 14.97 6.862 31.81 6.862 48.963 0 17.465-2.495 33.994-6.862 48.964C3.43 93.873 0 87.01 0 79.527z"/><path id="N" d="M233.007 36.489H0V0h233.007c9.982 0 18.092 8.109 18.092 18.088 0 10.292-8.11 18.4-18.092 18.4z"/><path id="O" d="M18.091 0h39.615v36.489H18.09C8.11 36.489 0 28.38 0 18.4 0 8.42 8.11 0 18.091 0z"/><path id="P" d="M930.156 37.424v72.666c0 20.583-16.843 37.424-37.43 37.424H9.358c-4.991 0-9.358-4.366-9.358-9.356s4.367-9.356 9.358-9.356H329.08V18.712H9.358C4.367 18.712 0 14.346 0 9.356S4.367 0 9.358 0h883.368c20.587 0 37.43 16.841 37.43 37.424z"/><path id="Q" d="M912.065 3.742H328.768v5.302H9.358C4.367 9.044 0 13.098 0 18.4s4.367 9.356 9.358 9.356h883.368c17.155 0 31.816-11.85 36.183-27.756-5.303 2.183-10.918 3.742-16.844 3.742z"/><path id="R" d="M640.691 23.702H329.08v-4.99H9.358C4.367 18.712 0 14.346 0 9.356S4.367 0 9.358 0h597.334c12.477 4.054 24.954 12.787 33.999 23.702z"/><path id="S" d="M22.77 0H0c20.587 0 37.43 16.841 37.43 37.424v72.666c0 20.583-16.843 37.424-37.43 37.424h22.77c20.587 0 37.431-16.841 37.431-37.424V37.424C60.201 16.841 43.357 0 22.771 0z"/><path id="T" d="M385.85 110.09V37.424C385.85 16.841 369.006 0 348.419 0H9.358C4.367 0 0 4.054 0 9.356s4.367 9.356 9.358 9.356H329.08v110.09H9.358c-4.991 0-9.358 4.054-9.358 9.356s4.367 9.356 9.358 9.356H348.73c20.275 0 37.119-16.841 37.119-37.424z"/><path id="U" d="M328.456 0H0c5.615 16.53 8.734 35.241 8.734 54.889 0 19.648-3.12 38.36-8.734 54.889h328.456c13.724 0 24.954-11.227 24.954-24.638V24.638C353.41 11.228 342.18 0 328.456 0z"/><path id="V" d="M328.456 0H0c.936 2.807 1.872 5.925 2.807 9.044h321.906c13.724 0 24.954 11.227 24.954 24.638v60.502c0 1.872-.312 3.431-.624 4.99 2.807-4.054 4.367-8.732 4.367-14.034V24.638C353.41 11.228 342.18 0 328.456 0z"/><path id="W" d="M15.596 79.527V19.024c0-7.485-3.431-14.346-8.734-19.024C2.495 14.97 0 31.81 0 48.964c0 17.464 2.495 33.993 6.862 48.963 5.303-4.054 8.734-10.916 8.734-18.4z"/><path id="X" d="M321.905 27.756c-4.99-2.495-10.605-4.054-16.532-4.054H34C24.954 13.098 12.477 4.366 0 0h289.465c.624 0 1.56.312 2.184.312.624 0 1.247.312 1.871.312 2.807.624 5.303 1.247 7.798 2.495.312.312.936.312 1.248.624 1.872.935 3.431 1.87 5.303 3.118 6.55 5.302 11.853 12.475 14.036 20.895z"/><path id="Y" d="M0 0c1.248 1.248 2.183 2.807 3.12 4.366C2.182 2.806 1.247 1.56 0 0z"/><path id="Z" d="M0 0c.312.312.312.312.312.624 0 0 0-.312-.312-.624z"/><path id="aa" d="M0 0c.624.936.936 1.56 1.248 2.495C.936 1.559.312.935 0 0z"/><path id="ab" d="M0 0c0 .312 0 .312.312.624C0 .312 0 .312 0 0z"/><path id="ac" d="M0 0l.312.312C0 .312 0 .312 0 0z"/><path id="ad" d="M0 0l1.56 1.56A3.758 3.758 0 0 1 0 0z"/><path id="ae" d="M289.153 15.282v72.665c0 20.583-16.844 37.424-37.43 37.424H39.926c14.037-4.366 18.092-19.647 8.422-37.424L7.798 13.098C5.615 9.045 3.12 5.303 0 1.872h271.374c5.926 0 11.541 1.56 16.532 4.055-.624-1.872-1.248-4.055-2.184-5.926 2.184 4.678 3.431 9.668 3.431 15.282z"/><path id="af" d="M1.248 1.247L0 0c.312.312.624.936 1.248 1.247z"/><path id="ag" d="M0 0c.936.624 1.872 1.56 2.807 2.183C1.872 1.248.936.623 0 0z"/><path id="ah" d="M1.248 1.247L0 0c.312.312.624.936 1.248 1.247z"/><path id="ai" d="M13.1 0H0c20.587 0 37.43 16.841 37.43 37.424v72.666c0 20.583-16.843 37.424-37.43 37.424h13.1c20.588 0 37.432-16.841 37.432-37.424V37.424C50.532 16.841 33.688 0 13.1 0z"/><path id="aj" d="M13.413 0H0c20.587 0 37.43 16.841 37.43 37.424v72.666c0 20.583-16.843 37.424-37.43 37.424h13.1c20.588 0 37.432-16.841 37.432-37.424V37.424C50.844 16.841 34 0 13.412 0z"/><path id="ak" d="M37.43 0h841.572c4.991 0 9.358 4.99 9.358 10.915 0 6.238-4.367 10.916-9.358 10.916H559.279V151.88h319.722c4.991 0 9.358 4.99 9.358 10.916 0 6.237-4.367 10.915-9.358 10.915H37.431C16.844 173.711 0 153.751 0 129.426V43.662C0 19.96 16.844 0 37.43 0z"/><path id="al" d="M178.732 101.669c0 5.614.936 10.916 2.496 15.906H2.495C.935 112.585 0 107.283 0 101.669V15.905C0 10.292.936 4.99 2.495 0h178.733c-1.56 4.99-2.496 10.292-2.496 15.905v85.764z"/><path id="am" d="M213.668 28.38H34.935C19.027 28.38 5.615 16.53 0 0h178.732c5.303 16.529 19.028 28.38 34.936 28.38z"/><path id="an" d="M113.228 33.058H36.183C19.027 33.058 4.367 19.024 0 0c4.99 3.119 10.605 4.678 16.532 4.678h61.76c5.615 16.529 19.028 28.38 34.936 28.38z"/><path id="ao" d="M630.086 17.153c0 6.237-4.055 11.227-9.358 11.227H34.935C19.027 28.38 5.615 16.53 0 0h301.006v6.237h319.722c4.991-.311 9.358 4.678 9.358 10.916z"/><path id="ap" d="M213.668 0c-15.908 0-29.321 11.851-34.936 28.068H0C5.615 11.54 19.027 0 34.935 0h178.733z"/><path id="aq" d="M36.183 0h77.045C97.32 0 83.908 11.851 78.293 28.068H16.532c-5.927 0-11.541 1.56-16.532 4.678C4.367 14.034 19.027 0 36.183 0z"/><path id="ar" d="M630.086 10.93c0 6.237-4.055 10.915-9.358 10.915H301.006v6.237H0C5.615 11.553 19.027.014 34.935.014h585.793c4.991-.312 9.358 4.678 9.358 10.915z"/><path id="as" d="M0 130.049V44.285C0 19.96 16.844 0 37.43 0h339.375c4.99 0 9.357 4.99 9.357 10.915 0 6.238-4.367 10.916-9.357 10.916H57.082V151.88h319.722c4.99 0 9.357 4.99 9.357 10.916 0 6.237-4.367 10.915-9.357 10.915H37.431C16.844 174.335 0 154.375 0 130.049z"/><path id="at" d="M24.954 0h328.455c-5.614 19.648-8.733 41.79-8.733 64.869 0 23.39 3.119 45.221 8.733 64.869H24.954C11.229 129.738 0 116.639 0 100.422V29.004C0 13.41 11.23 0 24.954 0z"/><path id="au" d="M24.648 0h328.456c-.936 3.43-1.872 7.173-2.807 10.604H28.703C14.98 10.604 3.75 23.702 3.75 39.919v71.418c0 2.183.312 4.055.624 5.926-2.807-4.678-4.367-10.292-4.367-16.529V29.316C-.306 13.41 10.924 0 24.648 0z"/><path id="av" d="M0 93.873V22.454C0 13.41 3.431 5.614 8.734 0c4.367 17.776 6.862 37.424 6.862 58.008 0 20.583-2.495 40.23-6.862 58.007C3.43 111.025 0 102.917 0 93.873z"/><path id="aw" d="M819.735 0H9.358C4.367 0 0 4.99 0 10.915c0 6.238 4.367 10.916 9.358 10.916h257.337V151.88H9.358C4.367 151.88 0 156.87 0 162.796c0 6.237 4.367 10.915 9.358 10.915h810.377c20.587 0 37.431-19.96 37.431-44.285V43.662C857.166 19.648 840.322 0 819.735 0z"/><path id="ax" d="M839.387 4.99H266.695v6.237H9.358C4.367 11.227 0 16.217 0 22.143c0 6.237 4.367 10.915 9.358 10.915h810.377c17.156 0 31.817-14.034 36.184-33.058-4.991 3.119-10.606 4.99-16.532 4.99z"/><path id="ay" d="M247.356 15.905v85.764c0 24.326-16.844 44.286-37.431 44.286H0c20.587 0 37.43-19.96 37.43-44.286V15.905c0-5.613-.935-11.227-2.495-15.905H244.86c1.872 4.99 2.496 10.292 2.496 15.905z"/><path id="az" d="M244.86 28.068H34.935C29.633 11.54 15.908 0 0 0h209.925c15.908 0 29.632 11.54 34.935 28.068z"/><path id="aA" d="M564.582 28.068H266.695v-6.237H9.358C4.367 21.83 0 16.84 0 10.915 0 4.678 4.367 0 9.358 0h520.288c15.909 0 29.321 11.54 34.936 28.068z"/><path id="aB" d="M116.348 32.746c-4.991-2.807-10.606-4.678-16.532-4.678h-64.88C29.632 11.54 15.907 0 0 0h80.164c17.468 0 31.817 14.034 36.184 32.746z"/><path id="aC" d="M323.777 130.049V44.285C323.777 19.96 306.933 0 286.346 0H9.358C4.367 0 0 4.99 0 10.915c0 6.238 4.367 10.916 9.358 10.916h257.337V151.88H9.358C4.367 151.88 0 156.87 0 162.796c0 6.237 4.367 10.915 9.358 10.915h276.988c20.587.624 37.431-19.336 37.431-43.662z"/><path id="aD" d="M266.071 0H0c5.615 19.648 8.734 41.79 8.734 64.869 0 23.39-3.12 45.221-8.734 64.869h266.071c13.725 0 24.954-13.099 24.954-29.316V29.004C291.025 13.099 279.796 0 266.071 0z"/><path id="aE" d="M266.071 0H0c.936 3.43 1.872 7.173 2.807 10.604h259.521c13.724 0 24.954 13.098 24.954 29.315v71.418c0 2.183-.312 4.055-.624 5.926 2.807-4.678 4.367-10.292 4.367-16.529V29.316C291.025 13.099 279.796 0 266.071 0z"/><path id="aF" d="M15.596 93.873V22.455c0-9.045-3.431-16.841-8.734-22.455C2.495 17.777 0 37.424 0 58.008c0 20.583 2.495 40.23 6.862 58.007 5.303-4.99 8.734-13.098 8.734-22.142z"/><path id="aG" d="M850.928 0H9.358C4.367 0 0 4.054 0 9.356s4.367 9.356 9.358 9.356H329.08v110.09H9.358c-4.991 0-9.358 4.054-9.358 9.356s4.367 9.356 9.358 9.356h841.57c20.587 0 37.431-16.841 37.431-37.424V37.424C888.359 16.841 871.515 0 850.928 0z"/><path id="aH" d="M85.155 0H0c20.587 0 37.43 16.841 37.43 37.424v72.666c0 20.583-16.843 37.424-37.43 37.424h85.155c20.587 0 37.431-16.841 37.431-37.424V37.424C122.586 16.841 105.742 0 85.156 0z"/><path id="aI" d="M870.267 3.742H328.768v5.302H9.358C4.367 9.044 0 13.098 0 18.4s4.367 9.356 9.358 9.356h841.57c17.156 0 31.816-11.85 36.183-27.756-4.991 2.183-10.917 3.742-16.844 3.742z"/><path id="aJ" d="M870.267 24.014H328.768v-5.302H9.358C4.367 18.712 0 14.346 0 9.356 0 4.054 4.367 0 9.358 0h841.57c17.156 0 31.816 11.851 36.183 27.756-4.991-2.495-10.917-3.742-16.844-3.742z"/><path id="aK" d="M386.161 110.09V37.424C386.161 16.841 369.318 0 348.731 0H9.358C4.367 0 0 4.054 0 9.356s4.367 9.356 9.358 9.356h319.721v110.09H9.358c-4.991 0-9.358 4.054-9.358 9.356s4.367 9.356 9.358 9.356H348.73c20.587 0 37.43-16.841 37.43-37.424z"/><path id="aL" d="M37.43 0h841.572c4.991 0 9.358 5.614 9.358 12.475 0 6.86-4.367 12.475-9.358 12.475H559.279v145.642h319.722c4.991 0 9.358 5.614 9.358 12.475s-4.367 12.475-9.358 12.475H37.431C16.844 195.542 0 173.087 0 145.955V49.899C0 22.455 16.844 0 37.43 0z"/><path id="aM" d="M0-3.5a3.5 3.5 0 1 0 0 7v-7zm480.986 7a3.5 3.5 0 1 0 0-7v7zM0 3.5h480.986v-7H0v7z"/><path id="aN" d="M16.844 4.99h541.499v6.861h319.41c4.991 0 9.358 5.614 9.358 12.475 0 6.86-4.367 12.474-9.358 12.474H36.183C19.027 36.8 4.367 21.207 0 0c5.303 3.119 10.917 4.99 16.844 4.99z"/><path id="aO" d="M0 145.643V49.587C0 22.455 16.844 0 37.43 0h339.375c4.991 0 9.358 5.614 9.358 12.475 0 6.86-4.367 12.475-9.358 12.475H57.082v145.642h319.722c4.991 0 9.358 5.614 9.358 12.475s-4.367 12.475-9.358 12.475H37.431C16.844 195.23 0 173.087 0 145.643z"/><path id="aP" d="M24.954 0H353.41c-5.615 22.143-8.734 46.78-8.734 72.665 0 25.886 3.119 50.835 8.734 72.666H24.954C11.229 145.331 0 130.673 0 112.585V32.746C0 14.658 11.23 0 24.954 0z"/><path id="aQ" d="M24.648 0h328.456c-.936 3.742-1.872 7.797-2.807 11.851H28.703C14.98 11.851 3.75 26.509 3.75 44.597v79.839c0 2.183.312 4.366.624 6.549-2.807-5.302-4.367-11.539-4.367-18.712V32.434C-.306 14.658 10.924 0 24.648 0z"/><path id="aR" d="M0 104.788V24.95C0 14.97 3.431 5.925 8.734 0c4.367 19.96 6.862 41.79 6.862 64.869 0 23.078-2.495 44.909-6.862 64.869C3.43 123.812 0 114.768 0 104.788z"/><path id="aS" d="M0 40.231V12.163C0 5.302 5.615 0 12.165 0 19.027 0 24.33 5.614 24.33 12.163V40.23c0 6.861-5.615 12.163-12.165 12.163C5.615 52.706 0 47.092 0 40.231z"/><path id="aT" d="M37.743 0h841.57c4.991 0 9.358 4.054 9.358 9.356s-4.367 9.356-9.358 9.356H559.279v110.09h319.722c4.991 0 9.358 4.054 9.358 9.356s-4.367 9.356-9.358 9.356H37.431C16.844 147.514 0 130.673 0 110.09V37.424C.312 16.841 17.156 0 37.743 0z"/><path id="aU" d="M60.201 123.5h-22.77C16.844 123.5 0 106.659 0 86.076V13.41C0 8.732.936 4.054 2.495 0h22.77a37.945 37.945 0 0 0-2.495 13.41v72.666c0 20.583 16.844 37.424 37.431 37.424z"/><path id="aV" d="M16.844 3.742h541.499v5.302h319.722c4.991 0 9.358 4.054 9.358 9.356s-4.367 9.356-9.358 9.356H36.183C19.027 27.756 4.367 15.906 0 0c5.303 2.183 10.917 3.742 16.844 3.742z"/><path id="aW" d="M57.706 0C41.798 0 28.386 9.98 22.77 24.014H0C5.615 9.98 19.027 0 34.935 0h22.77z"/><path id="aX" d="M113.228 0C97.32 0 83.908 9.98 78.293 24.014H16.532c-5.927 0-11.541 1.56-16.532 4.054C4.367 12.163 18.715.312 36.183.312h77.045V0z"/><path id="aY" d="M786.048 9.356c0 4.99-4.055 9.356-9.358 9.356H456.968v5.302H0C5.615 9.98 19.027 0 34.935 0H776.69c5.303 0 9.358 4.054 9.358 9.356z"/><path id="aZ" d="M0 110.09V37.424C0 16.841 16.844 0 37.43 0h339.375c4.991 0 9.358 4.054 9.358 9.356s-4.367 9.356-9.358 9.356H56.77v110.09h319.722c4.991 0 9.358 4.054 9.358 9.356s-4.367 9.356-9.358 9.356H37.119C16.844 147.514 0 130.673 0 110.09z"/><path id="ba" d="M24.954 0H353.41c-5.615 16.529-8.734 35.241-8.734 54.889 0 19.648 3.119 38.36 8.734 54.889H24.954C11.229 109.778 0 98.551 0 85.14V24.638C0 10.915 11.23 0 24.954 0z"/><path id="bb" d="M24.954 0H353.41c-.936 2.807-1.872 5.925-2.808 9.044H28.697c-13.725 0-24.954 11.227-24.954 24.638v60.502c0 1.872.312 3.431.624 4.99C1.56 95.12 0 90.442 0 85.14V24.638C0 10.915 11.23 0 24.954 0z"/><path id="bc" d="M0 79.527V19.024C0 11.539 3.431 4.678 8.734 0c4.367 14.97 6.862 31.81 6.862 48.963 0 17.465-2.495 33.994-6.862 48.964C3.43 93.873 0 87.01 0 79.527z"/><path id="bd" d="M6.599 67.443C5.039 62.14-.576 41.558.049 38.439 1.607 30.331 12.524 3.822 28.432.391c15.908-3.43 12.477 16.84 12.477 16.84l5.303 18.09-22.77 38.983-16.844-6.861z"/><path id="be" d="M39.926 67.505c1.56-5.301 6.239-24.325 4.367-32.746C42.422 26.651 37.12 3.884 21.211.454 5.303-2.976 0 14.176 0 14.176L.312 31.64 25.89 74.367l14.036-6.862z"/><path id="bf" d="M453.849 0H0v411.044h453.849V0z"/><path id="bg" d="M2.6 108.191l11.54-11.54c3.744-3.742 9.67-3.43 13.101.624l58.642 73.913c4.055 5.302 12.165 4.054 14.972-1.871L171.974 5.274c1.871-4.678 7.486-6.55 11.853-4.366l17.156 8.42c4.367 2.183 5.926 7.173 4.055 11.227l-94.513 215.502c-2.495 5.925-10.605 7.173-14.972 1.871l-93.89-118.51c-2.495-3.119-2.183-8.109.936-11.227z"/><path id="bh" d="M24.065 16.56c.624-3.12 2.807-11.54 1.872-13.1C25 1.902 15.643-.281 13.772.03 11.9.342.359 6.267.047 8.14c-.312 1.87.936 4.99 3.431 4.678 2.808-.312 7.486-2.183 11.23-4.366 1.247.935 3.119 1.247 3.119 1.247v4.678l6.238 2.183z"/><path id="bi" d="M6.902 3.491c-.936-.624-1.872-.936-3.431-1.56C1.287.685-.272-.25.04.062v4.677l6.238 1.56h.312c0-.624.312-1.56.312-2.807z"/><path id="bj" d="M29.32 10.915c-.311-2.495.625-8.732-1.247-9.356C26.202 1.247 14.973 0 13.413 0 11.853 0 0 8.42 0 9.98c0 1.56 1.872 5.614 4.367 4.99 2.495-.312 10.605-4.678 10.605-4.678l14.349.623z"/><path id="bk" d="M27.761 1.871C24.331 1.247 15.908 0 14.661 0 13.724 0 3.742 4.99 0 7.797c.624 1.247 1.871 1.87 3.12 1.87 2.495-.31 10.605-4.677 10.605-4.677l14.036.312v-3.43z"/><path id="bl" d="M32.352 11.58c-1.248-4.366 0-9.044-2.183-9.668-2.184-.624-12.79-2.183-14.037-1.871C14.884.04 1.783 6.9.224 8.773c-.936.936 1.248 4.678 3.12 4.678 2.806 0 11.54-3.742 13.1-5.302 2.183-.311 5.614.312 5.614.312l.624 3.119h9.67z"/><path id="bm" d="M13.413 4.309l.312-.312c-.312-.936-.312-1.56-.312-2.495C10.605.566 2.807-.993.312.878 0 1.19 0 1.19 0 1.502c1.872 0 3.743.312 3.743.312l.312 1.871c1.248.312 2.184.624 2.184.624h7.174z"/><path id="bn" d="M10.747 57.433c6.55-9.044 23.082-34.93 22.77-38.048-1.247-5.925-2.183-17.153-3.43-17.776C28.214.985 18.856-.263 17.608.049 16.362.361 1.39 6.91 3.261 9.093c2.807 3.743 6.862 2.495 13.1-1.247l4.991.624s-1.56 4.054-.312 8.42C6.068 24.063-3.29 34.667 1.077 53.067l9.67 4.366z"/><path id="bo" d="M2.412 17.495C1.476 14.065-.708 5.02.228 3.46 1.164 1.9 11.458-.282 13.33.03c1.872.31 14.349 6.548 14.66 8.731.312 2.183-1.247 5.302-3.743 4.99-3.119-.312-8.11-2.495-11.853-4.678-1.247.936-3.43 1.248-3.43 1.56l.311 4.99-6.862 1.87z"/><path id="bp" d="M0 4.054c.936-.623 2.183-.935 3.431-1.87C5.927.935 7.174 0 7.174 0l.312 4.99-6.55 1.87H.624C.624 6.236.312 5.3 0 4.053z"/><path id="bq" d="M0 11.54c.312-2.496-.624-9.357 1.248-9.98C3.119 1.246 15.284 0 16.844 0c1.56 0 14.348 9.044 14.348 10.604-.312 1.559-2.183 5.925-4.678 5.301-2.496-.311-11.542-4.99-11.542-4.99L0 11.54z"/><path id="br" d="M0 1.871C3.743 1.247 12.789 0 14.037 0c.935 0 11.54 5.614 15.596 8.109-.936 1.247-1.872 2.183-3.12 1.87-2.495-.311-11.54-4.99-11.54-4.99L0 5.303v-3.43z"/><path id="bs" d="M0 12.475C1.248 7.797.312 2.807 2.183 2.183 4.367 1.56 15.908 0 17.156 0c1.248 0 15.284 7.173 17.156 9.356.935.936-1.248 4.99-3.431 4.99-3.12 0-12.477-4.054-14.037-5.614-2.496-.312-6.239.312-6.239.312l-.935 3.43H0z"/><path id="bt" d="M.312 4.309L0 3.997c.312-.936.312-1.871.312-2.495C3.432.566 11.853-.993 14.037.878c.311.312.311.312.311.624-1.871 0-3.743.312-3.743.312l-.623 2.183c-1.248.312-2.184.624-2.184.624s-7.174 0-7.486-.312z"/><path id="bu" d="M24.346 61.479C17.483 51.81-.608 24.054.016 20.936c1.247-6.55-.312-16.841 1.56-18.4C3.134 1.287 14.051-.273 15.3.04c1.248.312 17.468 7.485 15.596 9.668-3.12 4.055-7.486 2.495-14.348-1.56l-5.303.937s3.12 4.054 1.872 8.732c9.357 4.054 25.265 21.83 21.522 38.983l-10.293 4.68z"/><path id="bv" d="M28.073 1.871c-.936 4.055.936 14.034.936 16.53 0 2.494-28.385-4.367-28.385-4.367L0 0l28.073 1.871z"/><path id="bw" d="M.936 6.55C1.872 10.603 0 20.582 0 23.077c0 2.495 28.385-4.366 28.385-4.366L29.321 0 .936 6.55z"/><path id="bx" d="M40.793 0c6.55 6.55 31.192 25.885 35.247 27.756 4.055 2.183 45.853 9.668 48.036 11.851 2.184 2.184 2.808 9.045-.312 12.163H.554s-1.247-21.207 0-27.444c0 0 24.954-8.42 27.45-21.52L40.793 0z"/><path id="by" d="M73.03 0c-9.669 7.173-27.449 20.895-33.063 23.39C34.352 25.885 3.16 31.81 1.6 33.37.04 34.93-1.52 43.974 2.848 43.974h122.586s1.559-11.851-.936-26.821c-1.56-1.56-18.091-.312-29.633-15.594L73.031 0z"/><path id="bz" d="M99.192 1.56L109.173 0l3.743 147.514s58.018-10.292 58.018 2.495c0 0 1.872 30.563 9.982 88.883 10.605 74.225 33.064 228.912 44.917 285.048 0 0-45.853 13.41-52.715 11.227 0 0-54.275-291.597-58.954-320.913-2.495-2.495-14.348-2.495-17.78.936 0 0-20.275 176.206-38.054 319.977 0 0-48.348 1.248-58.33-4.99 0 0 28.697-233.278 33.688-289.414 6.238-70.171 4.99-91.378 4.99-97.615 0-6.237 55.523 3.43 55.523 3.43l4.99-145.019z"/><path id="bA" d="M0 .15c1.248 8.42 0 19.96 0 22.142 0 1.872 15.908 9.045 17.156 9.045 1.56 0 17.78-9.045 17.78-9.045S33.063 6.075 34 2.021C34.312-.786 0 .15 0 .15z"/><path id="bB" d="M3.791 4.558c2.807-2.807 8.734-7.797 10.293-1.56 2.496 9.98-.935 23.702-9.981 24.326-9.046.624-.312-22.766-.312-22.766z"/><path id="bC" d="M11.085 4.558C8.277 1.75 2.35-3.24.79 2.998c-2.495 9.98.936 23.702 9.982 24.326 9.045.624.312-22.766.312-22.766z"/><path id="bD" d="M47.412 106.347h-13.1C15.596 106.347 0 81.397 0 62.686v-28.38C0 15.593 15.596 0 34.312 0h13.1C66.44 0 81.724 15.593 81.724 34.306v28.38c0 18.712-15.596 43.661-34.312 43.661z"/><path id="bE" d="M8.334 73.367c-.312-8.733 3.431-13.723 4.367-21.831.936-9.668 5.615-14.658 4.991-24.95 15.908-2.183 14.66 18.4 34.312 18.4-2.184-3.118-2.184-6.549-1.872-7.484 7.174 3.118 22.459 6.549 33.376.935 0 0 0 6.238 3.12 12.787 1.559 2.807 3.118 9.044 3.118 21.83 0-.623 10.918-17.776 4.367-45.844C90.683 12.864 65.416-1.17 44.517.077c-17.78 1.248-27.449 4.055-30.88 17.153-3.431 1.56-8.422 3.119-11.853 13.099-4.99 15.281 1.56 33.682 6.55 43.038z"/><path id="bF" d="M4.055 8.109a4.055 4.055 0 1 0 0-8.11 4.055 4.055 0 0 0 0 8.11z"/><path id="bG" d="M1.404 3.508c4.055-.312 8.422-.312 12.165.936 1.871.624 2.807-2.495.935-3.119C10.45-.235 5.771-.235 1.405.39c-1.872 0-1.872 3.43 0 3.118z"/><path id="bH" d="M14.12.312C9.755-.312 5.076 0 1.02 1.247c-1.871.624-.936 3.743.936 3.12 3.743-1.248 8.11-1.248 12.165-.936 2.183.311 1.871-3.12 0-3.12z"/><path id="bI" d="M0 0c4.055.624 9.358.312 12.165.312C9.982 4.054 3.743 4.99 0 0z"/><path id="bJ" d="M0 0c10.605 2.807 22.77 1.247 26.825 0 0 0-4.99 6.237-13.1 6.237C5.927 6.237 3.743 2.807 0 0z"/><path id="bK" d="M0 2.153c1.56.624 3.743 1.248 6.238 1.248 2.184 0 4.055-.624 5.927-1.248 0 0 0-.312-.312-.312-3.431-3.43-9.358-1.247-11.23 0-.311.312-.311.312-.623.312z"/><path id="bL" d="M0 11.851L1.56 0s32.752 2.495 37.43 11.851l-2.495 10.292L0 11.85z"/><path id="bM" d="M39.302 12.475C38.055 6.55 38.055 1.56 36.807.312 35.559-.935 3.743 1.248 0 12.475v8.109l39.302-8.109z"/><path id="bN" d="M190.585 119.899C86.403 136.428 49.284 72.807 44.917.141c0 0-34.623-2.183-44.917 10.604 8.422 139.094 126.329 168.097 158.457 170.281 0 0 5.615 88.57-1.871 209.576 0 0 27.449 12.474 61.761 15.281 0 0 3.743-7.485 3.743-30.563V238.409l-10.918-79.214c-.312 0-7.174-46.469-20.587-39.296z"/><path id="bO" d="M31.504 125.06C135.687 141.589 171.558 73.29 182.164 0c0 0 34.311 2.183 44.916 12.475C208.989 151.88 101.375 179.948 63.632 186.498c0 0-5.614 88.571 1.872 209.576 0 0-27.45 12.475-61.76 15.281 0 0-3.744-7.484-3.744-30.563v-136.91l10.917-79.215c0-.312 7.175-46.78 20.587-39.607z"/><path id="bP" d="M43.357 124.748c-.312 0-.935-.312-1.247-.624C37.119 118.51 0 62.062 0 58.944c0-.936 0-2.184 17.468-12.164-6.55-1.247-15.597-3.742-15.908-4.054-.624-.312-1.248-.935-1.248-1.56C4.055 4.679 4.367 3.743 4.679 3.432c.312-.312.624-.624 1.248-.936L20.899 0h.312c.624 0 1.248.624 1.56 1.247l9.045 40.855 13.725 76.72v.312l-.312 4.054c0 .624-.312 1.248-.936 1.248-.624.312-.624.312-.936.312z"/><path id="bQ" d="M22.459 3.119l9.045 40.855L45.23 120.38l-.312 4.055C37.743 116.327 3.119 61.75 3.119 60.191c0-1.56 20.9-13.41 20.9-13.41h-.313c-5.302 0-19.963-4.367-19.963-4.367S7.486 6.237 7.798 5.302l14.66-2.183zm0-3.119h-.624L6.862 2.495c-.935.312-1.871.936-2.183 1.56-.312.623-.624 1.559-4.367 38.36 0 1.559.624 2.806 2.183 3.43.936.312 6.55 1.871 12.165 3.119C0 57.384 0 58.63 0 60.503 0 61.438 0 62.686 18.715 92c4.367 6.861 19.028 29.628 23.707 34.93.623.623 1.56.935 2.495.935.312 0 .624 0 .936-.312 1.247-.311 2.183-1.559 2.183-2.806l.312-4.055v-.623L34.624 43.662 25.578 2.495C24.954.935 23.706 0 22.458 0z"/><path id="bR" d="M1.872 124.124h-.624c-.624-.312-.936-.624-.936-1.248L0 118.822v-.312l13.725-76.408L22.77 1.248C23.082.624 23.706 0 24.33 0h.312l14.972 2.495c.624 0 .936.312 1.248.936.312.311.624 1.247 4.367 37.736 0 .623-.312 1.56-1.248 1.56-.624 0-9.358 2.806-15.908 4.053 17.468 9.98 17.468 11.228 17.468 12.163 0 3.119-37.431 59.567-42.11 65.181h-1.56z"/><path id="bS" d="M25.89 3.119l14.972 2.495c.624.935 4.055 37.112 4.055 37.112s-14.66 4.366-19.963 4.366h-.312S45.54 58.943 45.54 60.502c0 1.56-34.936 56.137-41.798 64.246l-.312-4.055 13.725-76.408L25.89 3.12zm0-3.119c-1.56 0-2.808.936-3.12 2.495L13.725 43.35 0 120.07v.623l.312 4.055c0 1.247.936 2.495 2.183 2.806.312 0 .624.312.936.312.936 0 1.872-.312 2.496-.935 4.678-5.302 19.339-28.069 23.706-34.93 18.715-29.003 18.715-30.25 18.715-31.498 0-1.56 0-3.12-14.66-11.54 5.614-1.247 11.229-2.806 12.165-3.118 1.56-.312 2.495-1.871 2.183-3.43-3.743-36.801-4.055-37.737-4.367-38.36-.312-.936-1.247-1.56-2.183-1.56L26.514 0h-.624z"/><path id="bT" d="M4.679 9.356a4.678 4.678 0 1 0 0-9.357 4.678 4.678 0 0 0 0 9.357z"/><path id="bU" d="M4.679 9.356a4.678 4.678 0 1 0 0-9.357 4.678 4.678 0 0 0 0 9.357z"/><path id="bV" d="M4.679 9.356a4.678 4.678 0 1 0 0-9.357 4.678 4.678 0 0 0 0 9.357z"/><path id="bW" d="M.1 1.871c-.936.936 4.991 40.231 4.991 40.231s8.422 63.31 15.596 80.151c0 0 9.982-26.197 15.596-79.215L41.898 0 20.375 8.732.1 1.872z"/><path id="bX" d="M3.331.823c3.12-1.248 7.798-.936 8.734 0 .936.935 2.808 8.108 0 10.915 0 0 2.496 12.163 3.12 19.024.623 6.861 1.871 52.706-2.808 66.74l-4.679 13.099-5.302-14.346S-1.348 65.692.524 30.45c.312-7.796 1.56-16.529 3.12-18.712 0 0-2.808-3.118-.313-10.915z"/><path id="bY" d="M16.532 0C14.66 2.495 0 19.96 0 19.96l11.23 17.464S21.522 11.54 22.458 7.797C20.899 2.495 16.532 0 16.532 0z"/><path id="bZ" d="M5.927 0c0 2.183 12.788 18.088 16.843 19.648l-9.981 16.84S0 12.788 0 6.239c0 0 2.807-4.055 5.927-6.238z"/><path id="ca" d="M20.899 0C20.899 9.356 9.982 89.507 0 130.673c0 0 40.862-60.19 40.862-65.492-4.99-4.99-18.404-9.98-23.706-15.282 0 0 23.394-1.56 24.642-6.55 0 0-3.431-36.176-5.303-36.176-1.871 0-11.541-3.43-15.596-7.173z"/><path id="cb" d="M20.899 0c0 9.356 10.917 89.507 20.899 130.673 0 0-40.862-60.19-40.862-65.492 4.99-4.99 18.403-9.98 23.706-15.282 0 0-23.394-1.56-24.642-6.55 0 0 3.431-36.176 5.303-36.176 2.183.312 11.54-3.43 15.596-7.173z"/><path id="cc" d="M22.77 0H0c15.908 0 29.32 9.98 34.935 24.014h22.77C52.092 9.98 38.68 0 22.77 0z"/><path id="cd" d="M85.155 0H0c15.908 0 29.32 9.98 34.935 24.014h85.156C114.476 9.98 101.063 0 85.155 0z"/><path id="ce" d="M34.935 24.014h22.77C52.092 9.98 38.68 0 22.77 0H0c15.908 0 29.32 9.98 34.935 24.014z"/><path id="cf" d="M34.935 0C29.321 16.529 15.908 28.068 0 28.068h209.925c15.908 0 29.321-11.85 34.935-28.068H34.935z"/><path id="cg" d="M388.657 37.424v72.666c0 20.583-16.844 37.424-37.431 37.424H79.852c20.587 0 28.385-16.841 17.156-37.424L57.706 37.424C46.476 16.841 20.587 0 0 0h351.226c20.587 0 37.431 16.84 37.431 37.424z"/></defs></svg>