<svg width="1755" height="1671" viewBox="0 0 1755 1671" xmlns="http://www.w3.org/2000/svg" xmlns:xlink="http://www.w3.org/1999/xlink"><title>time</title><desc>Created using Figma</desc><use xlink:href="#a" transform="translate(1458.034 1004.82)" fill="#6B342D"/><use xlink:href="#b" transform="translate(1454.598 1003.35)" fill="#676767"/><use xlink:href="#c" transform="translate(1576.714 1117.34)" fill="#2E2E2E"/><use xlink:href="#d" transform="translate(1360.918 966.88)" fill="#472522"/><use xlink:href="#e" transform="translate(1497.933 1011.6)" fill="#261B1A"/><use xlink:href="#f" transform="matrix(.38563 -.92263 .92257 .38577 1547.104 1055.48)" fill="#261B1A"/><use xlink:href="#g" transform="translate(1507.611 1020.15)" fill="#494848"/><use xlink:href="#h" transform="translate(1420.842 1195.96)" fill="#261B1A"/><use xlink:href="#i" transform="matrix(.38563 -.92263 .92257 .38577 1469.988 1239.73)" fill="#261B1A"/><use xlink:href="#j" transform="translate(1430.556 1204.55)" fill="#494848"/><use xlink:href="#k" transform="translate(1476.572 620.55)" fill="#E2A23A"/><use xlink:href="#l" transform="translate(1462.78 510.49)" fill="#FFD00F"/><use xlink:href="#m" transform="matrix(.94588 -.32446 .32434 .94592 1412.196 647.46)" fill="#416079"/><use xlink:href="#n" transform="matrix(.94588 -.32446 .32434 .94592 1392.841 647.64)" fill="#2C445D"/><use xlink:href="#o" transform="translate(1434.751 663.93)" fill="#E2A23A"/><use xlink:href="#p" transform="translate(1380.955 828.8)" fill="#F38020"/><use xlink:href="#q" transform="translate(1406.807 841.12)" fill="#EEB31F"/><use xlink:href="#r" transform="translate(1435.048 852.56)" fill="#F7CB6B"/><use xlink:href="#s" transform="translate(1453.209 781.57)" fill="#E93859"/><use xlink:href="#t" transform="translate(1453.209 900.46)" fill="#BB3548"/><use xlink:href="#u" transform="translate(1481.642 868.28)" fill="#DBDAD9"/><use xlink:href="#v" transform="translate(1481.558 807.72)" fill="#FFF"/><use xlink:href="#w" transform="translate(1471.376 834.62)" fill="#E6C536"/><use xlink:href="#x" transform="translate(1471.334 868.28)" fill="#CDAF2F"/><use xlink:href="#y" transform="translate(1588.781 868.28)" fill="#CDAF2F"/><use xlink:href="#z" transform="translate(1588.823 834.88)" fill="#E6C536"/><use xlink:href="#A" transform="translate(1599.34 868.28)" fill="#82CFD0"/><use xlink:href="#B" transform="translate(1599.298 845.4)" fill="#A5DBE2"/><use xlink:href="#C" transform="translate(1676.73 868.28)" fill="#BB3548"/><use xlink:href="#D" transform="translate(1676.73 818.41)" fill="#E93859"/><use xlink:href="#E" transform="translate(1453.107 868.28)" fill="#BB3548"/><use xlink:href="#F" transform="translate(1453.15 859.9)" fill="#E93859"/><use xlink:href="#G" transform="translate(1154.886 1301.1)" fill="#FFF"/><use xlink:href="#H" transform="translate(1285.464 1319.05)" fill="#DBDAD9"/><use xlink:href="#I" transform="translate(1297.28 1425.92)" fill="#FFF"/><use xlink:href="#J" transform="translate(1147.821 1460.49)" fill="#154F69"/><use xlink:href="#K" transform="translate(1136.001 1407.64)" fill="#0D3344"/><use xlink:href="#L" transform="translate(1203.2 1499.42)" fill="#FFF"/><use xlink:href="#M" transform="translate(1415.228 1313.4)" fill="#0D3344"/><use xlink:href="#N" transform="translate(1113.468 1465.15)" fill="#DBDAD9"/><g fill="#DBDAD9"><use xlink:href="#O" transform="translate(1479.706 1467.56)"/><use xlink:href="#P" transform="translate(1451.9 1341.15)"/><use xlink:href="#Q" transform="translate(1467.236 1407.02)"/></g><use xlink:href="#R" transform="translate(499.865 1242.55)" fill="#2C445D"/><use xlink:href="#S" transform="translate(371.607 1024.3)" fill="#2C445D"/><use xlink:href="#T" transform="translate(260.16 1303.04)" fill="#2C445D"/><use xlink:href="#U" transform="translate(181.01 1182.09)" fill="#2C445D"/><use xlink:href="#V" transform="translate(107.08 1081.39)" fill="#416079"/><use xlink:href="#W" transform="translate(152.1 1070.19)" fill="#2C445D"/><use xlink:href="#X" transform="translate(316.77 1352.15)" fill="#2C445D"/><use xlink:href="#Y" transform="translate(283.33 1137.96)" fill="#DFEDF9"/><use xlink:href="#Z" transform="translate(217.84 1017.68)" fill="#416079"/><use xlink:href="#aa" transform="matrix(.86206 -.50688 .50672 .86215 289.99 1191.9)" fill="#2C445D"/><use xlink:href="#ab" transform="translate(293.89 1228.32)" fill="#2C445D"/><use xlink:href="#ac" transform="matrix(.86206 -.50678 .50662 .86215 390.742 1175.55)" fill="#2C445D"/><use xlink:href="#ad" transform="translate(314.59 1148.5)" fill="#2C445D"/><use xlink:href="#ae" transform="translate(373.667 1249.02)" fill="#2C445D"/><g fill="#2C445D"><use xlink:href="#af" transform="translate(287.7 1184.11)"/><use xlink:href="#ag" transform="translate(400.536 1213.41)"/></g><g fill="#2C445D"><use xlink:href="#ah" transform="translate(358.76 1142.29)"/><use xlink:href="#ai" transform="translate(329.47 1255.15)"/></g><g fill="#2C445D"><use xlink:href="#aj" transform="translate(297.19 1164.23)"/><use xlink:href="#ak" transform="translate(391.133 1233.28)"/></g><g fill="#2C445D"><use xlink:href="#al" transform="translate(378.689 1151.83)"/><use xlink:href="#am" transform="translate(309.64 1245.75)"/></g><g fill="#2C445D"><use xlink:href="#an" transform="translate(352.29 1256.47)"/><use xlink:href="#ao" transform="translate(335.99 1141.01)"/></g><g fill="#2C445D"><use xlink:href="#ap" transform="translate(286.42 1206.89)"/><use xlink:href="#aq" transform="translate(401.822 1190.63)"/></g><use xlink:href="#ar" transform="translate(317.95 1172.46)" fill="#DFEDF9"/><use xlink:href="#as" transform="translate(681.972 1365.11)" fill="#CB2627"/><use xlink:href="#at" transform="translate(547.094 1462.93)" fill="#E7ECEC"/><use xlink:href="#au" transform="translate(412.126 1359.2)" fill="#D9E1E3"/><use xlink:href="#av" transform="translate(417.264 1364.44)" fill="#E7ECEC"/><use xlink:href="#aw" transform="translate(688.005 1354.21)" fill="#E7EBEA"/><use xlink:href="#ax" transform="translate(641.244 1307.9)" fill="#E7ECEC"/><use xlink:href="#ay" transform="translate(492.875 1309.58)" fill="#BE2626"/><use xlink:href="#az" transform="translate(447.79 1285.52)" fill="#92D1D7"/><use xlink:href="#aA" transform="translate(449.298 1291.79)" fill="#CB2627"/><use xlink:href="#aB" transform="matrix(.46713 -.88424 .88416 .46727 579.217 1340.76)" fill="#FFF8F6"/><use xlink:href="#aC" transform="translate(514.839 1331.3)" fill="#FFF8F6"/><use xlink:href="#aD" transform="translate(454.588 1582.59)" fill="#CB2627"/><use xlink:href="#aE" transform="translate(456.17 1591.6)" fill="#BE2626"/><use xlink:href="#aF" transform="translate(517.628 1456.72)" fill="#CB2627"/><use xlink:href="#aG" transform="translate(520.068 1468.93)" fill="#BE2626"/><use xlink:href="#aH" transform="translate(720.478 1374.2)" fill="#35495E"/><use xlink:href="#aI" transform="translate(729.235 1389.25)" fill="#C1B49F"/><use xlink:href="#aJ" transform="translate(942.131 1357.1)" fill="#DA4643"/><use xlink:href="#aK" transform="translate(729.235 1388.58)" fill="#D0C2A7"/><use xlink:href="#aL" transform="translate(735.353 1389.21)" fill="#DFDAC3"/><use xlink:href="#aM" transform="translate(751.61 1389.25)" fill="#EEE7D8"/><use xlink:href="#aN" transform="translate(785.717 1389.21)" fill="#FFFFF9"/><use xlink:href="#aO" transform="translate(911.544 1387.57)" fill="#D0C2A7"/><use xlink:href="#aP" transform="translate(911.586 1389.25)" fill="#DFDAC3"/><use xlink:href="#aQ" transform="translate(911.586 1389.21)" fill="#EEE7D8"/><use xlink:href="#aR" transform="matrix(.54842 -.83625 .83615 .54858 1230.68 240.41)" fill="#00A4A1"/><use xlink:href="#aS" transform="matrix(.54842 -.83625 .83615 .54858 1144.468 371.92)" fill="#FFF"/><use xlink:href="#aT" transform="matrix(.54842 -.83625 .83615 .54858 1217.185 283.45)" fill="#D7DBDF"/><use xlink:href="#aU" transform="matrix(.54842 -.83625 .83615 .54858 1409.84 409.85)" fill="#D7DBDF"/><use xlink:href="#aV" transform="matrix(.54842 -.83625 .83615 .54858 1255.707 308.75)" fill="#D7DBDF"/><use xlink:href="#aW" transform="matrix(.54842 -.83625 .83615 .54858 1294.232 333.98)" fill="#D7DBDF"/><use xlink:href="#aX" transform="matrix(.54842 -.83625 .83615 .54858 1332.747 359.27)" fill="#D7DBDF"/><use xlink:href="#aY" transform="matrix(.54842 -.83625 .83615 .54858 1371.265 384.57)" fill="#00A4A1"/><use xlink:href="#aZ" transform="matrix(.54842 -.83625 .83615 .54858 1190.807 323.73)" fill="#D7DBDF"/><use xlink:href="#aU" transform="matrix(.54842 -.83625 .83615 .54858 1383.42 450.1)" fill="#D7DBDF"/><use xlink:href="#ba" transform="matrix(.54842 -.83625 .83615 .54858 1229.297 348.98)" fill="#D7DBDF"/><use xlink:href="#bb" transform="matrix(.54842 -.83625 .83615 .54858 1267.833 374.3)" fill="#D7DBDF"/><use xlink:href="#bc" transform="matrix(.54842 -.83625 .83615 .54858 1306.374 399.56)" fill="#00A4A1"/><use xlink:href="#bd" transform="matrix(.54842 -.83625 .83615 .54858 1344.874 424.83)" fill="#00A4A1"/><g fill="#D7DBDF"><use xlink:href="#ba" transform="matrix(.54842 -.83625 .83615 .54858 1164.992 363.06)"/><use xlink:href="#be" transform="matrix(.54842 -.83625 .83615 .54858 1357.65 489.47)"/><use xlink:href="#bf" transform="matrix(.54842 -.83625 .83615 .54858 1203.527 388.31)"/><use xlink:href="#bc" transform="matrix(.54842 -.83625 .83615 .54858 1242.047 413.61)"/><use xlink:href="#bd" transform="matrix(.54842 -.83625 .83615 .54858 1280.547 438.87)"/><use xlink:href="#aU" transform="matrix(.54842 -.83625 .83615 .54858 1319.074 464.11)"/></g><use xlink:href="#bg" transform="matrix(.54842 -.83625 .83615 .54858 1268.883 248.26)" fill="#505251"/><use xlink:href="#bh" transform="translate(1279.337 198.77)" fill="#D7DBDF"/><use xlink:href="#bi" transform="translate(1426.986 329.02)" fill="#505251"/><use xlink:href="#bj" transform="translate(1431.813 298.81)" fill="#D7DBDF"/><use xlink:href="#bk" transform="translate(289.91 498.14)" fill="#25364B"/><use xlink:href="#bl" transform="translate(125.02 373.04)" fill="#25364B"/><use xlink:href="#bm" transform="translate(150.26 389.49)" fill="#C9E8EA"/><use xlink:href="#bn" transform="translate(141.49 432.76)" fill="#B4D5D6"/><use xlink:href="#bo" transform="translate(194.72 400.93)" fill="#FFF"/><use xlink:href="#bp" transform="translate(139.23 386.36)" fill="#BCBDBF"/><use xlink:href="#bq" transform="translate(319.34 507.47)" fill="#F37820"/><use xlink:href="#br" transform="translate(340.06 513.64)" fill="#F37820"/><use xlink:href="#bs" transform="translate(330.59 508.95)" fill="#25364B"/><use xlink:href="#bt" transform="translate(306.92 194.47)" fill="#ECF6F8"/><use xlink:href="#bu" transform="translate(293.31 227.11)" fill="#4E596A"/><use xlink:href="#bv" transform="translate(352.76 180)" fill="#2E3C51"/><use xlink:href="#bw" transform="translate(538.546 413.01)" fill="#2E3C51"/><use xlink:href="#bx" transform="translate(479.125 460.13)" fill="#4E596A"/><use xlink:href="#by" transform="translate(341.2 268.23)" fill="#E3A625"/><use xlink:href="#bz" transform="translate(385.526 232.85)" fill="#CD962A"/><use xlink:href="#bA" transform="translate(475.612 381.25)" fill="#CD962A"/><use xlink:href="#bB" transform="translate(467.06 381.21)" fill="#E3A625"/><use xlink:href="#bC" transform="translate(439.452 335.52)" fill="#CD962A"/><use xlink:href="#bD" transform="translate(438.907 335.87)" fill="#E3A625"/><use xlink:href="#bE" transform="translate(451.519 351.67)" fill="#E3A625"/><use xlink:href="#bF" transform="translate(452.064 351.32)" fill="#CD962A"/><use xlink:href="#bG" transform="translate(464.676 367.12)" fill="#CD962A"/><use xlink:href="#bH" transform="translate(464.131 367.47)" fill="#E3A625"/><use xlink:href="#bI" transform="translate(146.23 659.15)" fill="#179BB9"/><use xlink:href="#bJ" transform="translate(0 659.15)" fill="#179BB9"/><use xlink:href="#bK" transform="translate(110.03 719.04)" fill="#FFF"/><use xlink:href="#bL" transform="translate(133.37 735.34)" fill="#FFD062"/><use xlink:href="#bM" transform="translate(188.51 735.34)" fill="#FFD062"/><use xlink:href="#bN" transform="translate(160.94 735.34)" fill="#FFD062"/><use xlink:href="#bO" transform="translate(216.08 735.34)" fill="#FFD062"/><use xlink:href="#bL" transform="translate(241.89 735.34)" fill="#FFD062"/><use xlink:href="#bP" transform="translate(269.46 735.34)" fill="#FFD062"/><use xlink:href="#bQ" transform="translate(269.59 861.11)" fill="#63BAC8"/><use xlink:href="#bR" transform="translate(233.93 866.14)" fill="#599CB3"/><use xlink:href="#bS" transform="translate(153.52 851.77)" fill="#EE803F"/><use xlink:href="#bT" transform="translate(150.8 643.48)" fill="#EE803F"/><use xlink:href="#bU" transform="translate(273.44 654.08)" fill="#D86E38"/><g><use xlink:href="#bV" transform="translate(626.453 282.39)" fill="#A4A2A2"/><use xlink:href="#bW" transform="translate(619.644 289.06)" fill="#CAC9C7"/><use xlink:href="#bX" transform="translate(628.695 312.5)" fill="#CAC9C7"/><use xlink:href="#bY" transform="translate(657.23 341.71)" fill="#CAC9C7"/><use xlink:href="#bZ" transform="translate(504.028 55.43)" fill="#FFD00F"/><use xlink:href="#ca" transform="translate(586.156 178.45)" fill="#A3832F"/><use xlink:href="#cb" transform="translate(517.964 85.8)" fill="#F4E5A9"/></g><g><use xlink:href="#cc" transform="matrix(.71723 -.69677 .69663 .71737 675.74 289.96)" fill="#264C6A"/><use xlink:href="#cd" transform="matrix(.71723 -.69677 .69663 .71737 710.917 290.84)" fill="#FFFCF4"/><use xlink:href="#ce" transform="matrix(.71723 -.69677 .69663 .71737 792.069 232.38)" fill="#898286"/><use xlink:href="#cf" transform="matrix(.71723 -.69677 .69663 .71737 783.561 240.65)" fill="#898286"/><use xlink:href="#cg" transform="matrix(.71723 -.69677 .69663 .71737 775.054 248.9)" fill="#898286"/><use xlink:href="#ch" transform="matrix(.71723 -.69677 .69663 .71737 766.549 257.17)" fill="#898286"/><use xlink:href="#ci" transform="matrix(.71723 -.69677 .69663 .71737 758.044 265.42)" fill="#898286"/><use xlink:href="#cj" transform="matrix(.71723 -.69677 .69663 .71737 749.567 273.65)" fill="#898286"/><use xlink:href="#ck" transform="matrix(.71723 -.69677 .69663 .71737 741.061 281.91)" fill="#898286"/><use xlink:href="#cl" transform="matrix(.71723 -.69677 .69663 .71737 732.554 290.17)" fill="#898286"/><use xlink:href="#cf" transform="matrix(.71723 -.69677 .69663 .71737 876.785 319.66)" fill="#898286"/><use xlink:href="#cm" transform="matrix(.71723 -.69677 .69663 .71737 868.276 327.91)" fill="#898286"/><use xlink:href="#cn" transform="matrix(.71723 -.69677 .69663 .71737 859.8 336.14)" fill="#898286"/><use xlink:href="#co" transform="matrix(.71723 -.69677 .69663 .71737 851.294 344.4)" fill="#898286"/><use xlink:href="#cj" transform="matrix(.71723 -.69677 .69663 .71737 842.789 352.66)" fill="#898286"/><use xlink:href="#ck" transform="matrix(.71723 -.69677 .69663 .71737 834.282 360.92)" fill="#898286"/><use xlink:href="#cp" transform="matrix(.71723 -.69677 .69663 .71737 825.804 369.21)" fill="#898286"/><use xlink:href="#cq" transform="matrix(.71723 -.69677 .69663 .71737 820.664 204.63)" fill="#EAA79F"/><use xlink:href="#cr" transform="matrix(.71723 -.69677 .69663 .71737 802.424 222.32)" fill="#83CEEC"/><use xlink:href="#cs" transform="matrix(.71723 -.69677 .69663 .71737 902.966 289.37)" fill="#C8DB58"/><use xlink:href="#ct" transform="matrix(.71723 -.69677 .69663 .71737 884.723 307.11)" fill="#F1BA59"/><use xlink:href="#cu" transform="matrix(.71723 -.69677 .69663 .71737 845.86 223.51)" fill="#BFBFBF"/><use xlink:href="#cv" transform="matrix(.71723 -.69677 .69663 .71737 827.439 241.4)" fill="#BFBFBF"/><use xlink:href="#cw" transform="matrix(.71723 -.69677 .69663 .71737 926.464 306.55)" fill="#BFBFBF"/><use xlink:href="#cx" transform="matrix(.71723 -.69677 .69663 .71737 908.068 324.41)" fill="#BFBFBF"/><g fill="#898286"><use xlink:href="#cy" transform="matrix(.71723 -.69677 .69663 .71737 892.414 134.92)"/><use xlink:href="#cz" transform="matrix(.71723 -.69677 .69663 .71737 883.905 143.18)"/><use xlink:href="#cA" transform="matrix(.71723 -.69677 .69663 .71737 875.399 151.44)"/><use xlink:href="#cB" transform="matrix(.71723 -.69677 .69663 .71737 866.892 159.7)"/><use xlink:href="#cC" transform="matrix(.71723 -.69677 .69663 .71737 858.387 167.96)"/><use xlink:href="#cD" transform="matrix(.71723 -.69677 .69663 .71737 849.911 176.19)"/><use xlink:href="#cE" transform="matrix(.71723 -.69677 .69663 .71737 841.405 184.45)"/></g><use xlink:href="#cF" transform="matrix(.71723 -.69677 .69663 .71737 1004.097 163.55)" fill="#898286"/><use xlink:href="#cG" transform="matrix(.71723 -.69677 .69663 .71737 992.293 176.55)" fill="#BFBFBF"/><use xlink:href="#cH" transform="matrix(.71723 -.69677 .69663 .71737 972.467 195.79)" fill="#BFBFBF"/><use xlink:href="#cI" transform="matrix(.71723 -.69677 .69663 .71737 982.382 186.14)" fill="#BFBFBF"/><g fill="#BFBFBF"><use xlink:href="#cJ" transform="matrix(.71723 -.69677 .69663 .71737 952.561 76.49)"/><use xlink:href="#cK" transform="matrix(.71723 -.69677 .69663 .71737 932.733 95.73)"/><use xlink:href="#cL" transform="matrix(.71723 -.69677 .69663 .71737 942.616 86.11)"/><use xlink:href="#cM" transform="matrix(.71723 -.69677 .69663 .71737 922.616 105.59)"/><use xlink:href="#cN" transform="matrix(.71723 -.69677 .69663 .71737 902.791 124.83)"/><use xlink:href="#cO" transform="matrix(.71723 -.69677 .69663 .71737 912.705 115.18)"/></g><use xlink:href="#cP" transform="translate(1008.171 58.98)" fill="#FFF"/><use xlink:href="#cQ" transform="translate(1027.265 59.19)" fill="#0D1C2D"/></g><g><use xlink:href="#cR" transform="translate(289.36 242.58)" fill="#2E3C51"/><use xlink:href="#cS" transform="translate(363.78 520.52)" fill="#C6D8DD"/><use xlink:href="#cT" transform="translate(469.117 318.18)" fill="#FFF"/><use xlink:href="#cU" transform="translate(843.749 337.29)" fill="#2E3C51"/><use xlink:href="#cV" transform="translate(843.749 1259.12)" fill="#2E3C51"/><use xlink:href="#cW" transform="translate(382.928 798.25)" fill="#2E3C51"/><use xlink:href="#cX" transform="translate(1304.528 798.21)" fill="#2E3C51"/><use xlink:href="#cY" transform="translate(1078.14 427.19)" fill="#D81212"/><use xlink:href="#cZ" transform="translate(1245.365 611.71)" fill="#D81212"/><use xlink:href="#da" transform="translate(478.503 1001)" fill="#D81212"/><use xlink:href="#db" transform="translate(645.728 1185.53)" fill="#D81212"/><use xlink:href="#dc" transform="translate(1233.842 1003.85)" fill="#D81212"/><use xlink:href="#dd" transform="translate(1049.355 1171.11)" fill="#D81212"/><use xlink:href="#de" transform="translate(660.141 404.09)" fill="#D81212"/><use xlink:href="#df" transform="translate(475.612 571.35)" fill="#D81212"/><use xlink:href="#dg" transform="translate(676.882 804.16)" fill="#2E3C51"/><use xlink:href="#dh" transform="translate(828.875 546.38)" fill="#D81212"/></g><defs><path id="a" d="M92.827 292.776l25.853-61.899 7.081-16.932 35.322-84.488 7.081-16.931 25.853-61.9c3.352-8.005-.419-17.266-8.464-20.62L113.736 0c-31.593 27.66-62.18 71.161-84.262 124.051C7.35 176.94-2.12 229.242.394 271.193L72.213 301.2c8.045 3.395 17.263-.377 20.615-8.424z"/><path id="b" d="M117.213 1.467L113.735 0c-31.593 27.66-62.18 71.162-84.261 124.051C7.35 176.94-2.12 229.242.394 271.193l3.479 1.467c-2.515-41.951 6.955-94.253 29.079-147.143C55.075 72.628 85.62 29.169 117.213 1.467z"/><path id="c" d="M72.195 29.42l-35.323 84.49-29.79-12.447L0 118.393l32.221 13.453c8.003 3.352 17.263-.419 20.616-8.466L90.17 34.072c3.352-8.005-.42-17.267-8.464-20.62L49.484 0l-7.08 16.931 29.79 12.49z"/><path id="d" d="M207.415 36.51L123.028 1.224c-8.003-3.352-17.263.42-20.615 8.466L1.223 251.797c-3.352 8.005.42 17.267 8.464 20.619l84.387 35.288c-2.514-41.951 6.956-94.253 29.079-147.143 22.082-52.889 52.669-96.39 84.262-124.05z"/><path id="e" d="M9.687 42.205c-8.045-3.353-11.816-12.573-8.464-20.62L6.21 9.683C9.561 1.68 18.78-2.135 26.824 1.218l32.808 13.704c8.003 3.352 11.816 12.572 8.464 20.619L63.11 47.443c-3.352 8.005-12.57 11.819-20.615 8.466L9.687 42.205z"/><path id="f" d="M18.188 0H0v97.254h18.188V0z"/><path id="g" d="M7.132 29.215C1.308 26.785-1.5 20.331.805 14.757l3.436-8.214C6.545 1.01 13.166-1.504 18.948.927l23.757 9.932c5.825 2.431 8.632 8.885 6.327 14.417l-3.435 8.214c-2.305 5.532-8.925 8.047-14.707 5.616l-23.758-9.89z"/><path id="h" d="M9.681 42.205c-8.003-3.353-11.816-12.573-8.464-20.62L6.203 9.683C9.555 1.68 18.773-2.135 26.818 1.218l32.808 13.704c8.003 3.352 11.816 12.572 8.464 20.62l-4.986 11.901c-3.352 8.005-12.57 11.819-20.615 8.466L9.681 42.205z"/><path id="i" d="M18.188 0H0v97.254h18.188V0z"/><path id="j" d="M7.132 29.174C1.308 26.743-1.499 20.289.805 14.757l3.436-8.214C6.545 1.01 13.166-1.504 18.948.927l23.758 9.932c5.824 2.431 8.631 8.885 6.326 14.417l-3.435 8.214c-2.305 5.532-8.925 8.047-14.707 5.616L7.132 29.174z"/><path id="k" d="M243.442 118.686c.712-1.341.879-2.933.377-4.358l-11.523-33.611a2474.53 2474.53 0 0 0 11.523-3.94L217.505 0 0 74.598l13.324 38.85c1.55 4.568 6.537 6.998 11.104 5.448 4.567-1.551 6.997-6.538 5.447-11.106l-4.65-13.62a5.096 5.096 0 0 0 1.926-.252c2.515-.88 3.855-3.604 3.017-6.16l-3.142-9.179 57.822-19.823c8.548 14.082 22.752 24.56 40.351 30.678 45.629 47.902 114.011 32.102 114.849 31.893a5.243 5.243 0 0 0 3.394-2.641zm-96.12-24.055c18.897 2.472 39.931.754 61.049-5.784.628-.21 6.746-2.263 13.701-4.652l9.512 27.744c-14.414 2.305-52.208 5.406-84.262-17.308z"/><path id="l" d="M204.984 33.292c-.671.21-5.531 1.927-11.523 3.98l-11.523-33.61a5.499 5.499 0 0 0-2.975-3.227 5.435 5.435 0 0 0-4.357.042c-.796.335-64.443 29.839-71.105 95.678-10.14 15.632-14.959 32.647-13.031 48.992L32.647 164.97l-3.143-9.178c-.88-2.515-3.603-3.856-6.159-3.018a4.755 4.755 0 0 0-1.676.964l-4.65-13.62c-1.551-4.568-6.537-6.999-11.104-5.449-4.568 1.551-6.998 6.538-5.447 11.106l13.324 38.85 217.505-74.598-26.313-76.735zM173.726 13.05l9.511 27.743c-7.291 2.515-13.743 4.778-14.539 5.071-20.322 7.795-37.669 19.278-50.909 32.605 11.397-37.592 43.115-58.379 55.937-65.42z"/><path id="m" d="M50.365 0H0v131.885h50.365V0z"/><path id="n" d="M18.31 0H0v144.122h18.31V0z"/><path id="o" d="M35.326 74.811c-7.71 2.64-16.09-1.466-18.73-9.178L.8 19.533C-1.84 11.824 2.266 3.44 9.976.8c7.71-2.64 16.09 1.467 18.73 9.178l15.796 46.1c2.64 7.711-1.466 16.093-9.176 18.733z"/><path id="p" d="M65.532 79.208C37.627 79.208 0 39.604 0 39.604S37.627 0 65.532 0c27.906 0 35.574 17.727 35.574 39.604.042 21.877-7.626 39.604-35.574 39.604z"/><path id="q" d="M45.21 54.65C25.937 54.65 0 27.324 0 27.324S25.936 0 45.21 0c19.275 0 24.554 12.237 24.554 27.325 0 15.087-5.28 27.324-24.553 27.324z"/><path id="r" d="M26.188 31.683C15.042 31.683 0 15.842 0 15.842S15.042 0 26.188 0c11.145 0 14.246 7.083 14.246 15.842s-3.059 15.841-14.246 15.841z"/><path id="s" d="M93.21 54.524S64.636 0 2.665 0c0 0-6.83 3.395 1.383 8.843 8.17 5.448 30.629 10.226 30.629 45.01l58.535.67z"/><path id="t" d="M93.21 0S64.636 54.524 2.665 54.524c0 0-6.83-3.395 1.383-8.843 8.17-5.448 30.629-10.226 30.629-45.01L93.21 0z"/><path id="u" d="M124.989 60.559c25.35 0 49.233-4.275 70.141-10.687V0h-21.201c0 18.44-14.959 33.401-33.353 33.401-18.436 0-33.353-14.961-33.353-33.401H0v32.647C26.314 49.411 72.488 60.56 124.989 60.56z"/><path id="v" d="M140.618 27.157c18.436 0 33.353 14.961 33.353 33.401h21.201v-49.87C174.306 4.275 150.423 0 125.031 0 72.53 0 26.397 11.106 0 27.911V60.56h107.223c.042-18.44 15.001-33.402 33.395-33.402z"/><path id="w" d="M10.14 1.509C10.14.67 9.47 0 8.632 0H1.508C.67 0 0 .67 0 1.509v32.186h10.182V1.509h-.042z"/><path id="x" d="M10.182 32.144V0H0v32.144c0 .838.67 1.509 1.508 1.509h7.123c.838 0 1.55-.67 1.55-1.509z"/><path id="y" d="M33.395 22.882C20.783 22.882 10.517 12.615 10.517 0H0c0 18.44 14.958 33.401 33.353 33.401C51.789 33.401 66.705 18.44 66.705 0H56.273c0 12.656-10.224 22.882-22.877 22.882z"/><path id="z" d="M33.353 0C14.916 0 0 14.961 0 33.401h10.517c0-12.656 10.224-22.882 22.878-22.882 12.612 0 22.877 10.268 22.877 22.882H66.79C66.748 14.961 51.79 0 33.353 0z"/><path id="A" d="M22.836 22.882c12.612 0 22.877-10.267 22.877-22.882H0c0 12.656 10.224 22.882 22.836 22.882z"/><path id="B" d="M22.878 0C10.266 0 0 10.268 0 22.882h45.755C45.755 10.268 35.531 0 22.878 0z"/><path id="C" d="M78.27 0H0v49.872C46.593 35.622 78.27 10.896 78.27 0z"/><path id="D" d="M78.27 49.872C78.27 38.975 46.593 14.249 0 0v49.872h78.27z"/><path id="E" d="M76.343 2.095c.042-.167.083-.335.083-.544V0H0v1.76c0 .964.796 1.718 1.718 1.718h2.304l3.352.084 61.468 4.82c6.244.042 7.25-5.197 7.5-6.287z"/><path id="F" d="M76.385 6.664v-.042a2.44 2.44 0 0 0-.084-.545 3.743 3.743 0 0 0-.42-.964C75.254 3.227 73.62 0 68.718 0L7.207 4.82l-3.1.041H1.801c-.713 0-1.341.461-1.592 1.09-.126.252-.21.545-.21.838V8.34h76.426V6.664h-.041z"/><path id="G" d="M36.637 15.858c.084.67 23.087 126.984 23.087 126.984L7.558 157.678.308 22.898S.269 21.6.184 20.972C-1.24 10.913 5.798 1.609 15.854.184 25.91-1.24 35.212 5.758 36.637 15.858z"/><path id="H" d="M14.037 144.293l-3.101-1.09L0 101.168 133.285 0l27.738 106.868-146.986 37.425z"/><path id="I" d="M176.946 106.868L10.936 81.89 0 39.855l2.22-2.43L149.209 0l27.738 106.868z"/><path id="J" d="M161.526 44.172c1.551 5.91-1.299 11.735-6.327 13.034L23.339 90.775c-5.028 1.3-10.35-2.473-11.858-8.382L0 38.18 150.045 0l11.481 44.172z"/><path id="K" d="M11.861 90.99L.423 46.858c-1.55-5.91 1.299-11.735 6.327-13.034L138.61.256c5.028-1.299 10.35 2.473 11.858 8.382l11.439 44.13L11.861 90.99z"/><path id="L" d="M53.436 7.927C52.012 2.52 47.151-.916 42.542.215L6.172 9.477C1.565 10.651-1.033 16.015.39 21.421c1.425 5.407 6.285 8.885 10.895 7.712l36.37-9.262c4.608-1.174 7.206-6.538 5.781-11.944z"/><path id="M" d="M14.248 6.612C13.075 2.086 9.01-.806 5.155.2 1.301 1.164-.878 5.648.337 10.174L54.01 216.995c1.173 4.526 5.238 7.418 9.093 6.454 3.855-.964 6.033-5.448 4.818-9.974L14.248 6.612z"/><path id="N" d="M1.335 41.95C-3.484 23.386 5.148 5.03 20.735 0l18.017 69.443C22.62 72.461 6.112 60.517 1.335 41.951z"/><path id="O" d="M33.194 13.641c.293 2.934-.797 4.946-2.515 4.485L3.655 10.75C1.978 10.289.344 7.523.05 4.59-.2 2.157.511.355 1.726.062c.252-.084.545-.084.838 0L29.59 7.439c1.718.503 3.31 3.269 3.604 6.202z"/><path id="P" d="M25.468 3.212c-1.174-2.724-3.143-3.94-4.4-2.766L.998 19.808c-1.257 1.216-1.341 4.4-.168 7.125.964 2.221 2.472 3.478 3.645 3.185a1.78 1.78 0 0 0 .713-.42l20.07-19.361c1.34-1.174 1.383-4.4.21-7.125z"/><path id="Q" d="M30.789 10.773L4.475 17.48c-1.508.377-3.394-1.677-4.148-4.652C-.427 9.85.16 7.169 1.71 6.75L28.023.045c1.55-.378 3.394 1.676 4.148 4.652.797 2.975.168 5.657-1.382 6.076z"/><path id="R" d="M10.357.647c2.22-1.299 5.07-.586 6.37 1.635L29.714 24.41a4.657 4.657 0 0 1-1.676 6.37l-8.045 4.736a4.655 4.655 0 0 1-6.369-1.677L.636 11.711a4.657 4.657 0 0 1 1.676-6.37L10.357.647z"/><path id="S" d="M10.357.638a4.68 4.68 0 0 1 6.369 1.634L29.716 24.4a4.657 4.657 0 0 1-1.677 6.37l-8.045 4.736a4.655 4.655 0 0 1-6.369-1.676L.636 11.702a4.657 4.657 0 0 1 1.676-6.37L10.357.638z"/><path id="T" d="M40.602 0L56.44 26.948 12.612 58.254 0 36.838 40.602 0z"/><path id="U" d="M64.485 26.948L48.688 0 0 23.05l12.57 21.415 51.915-17.518z"/><path id="V" d="M156.848 272.995L75.561 134.696c-7.08-12.07-2.137-28.121 11.104-35.916l.712-.42a29.114 29.114 0 0 1 1.676-2.514c3.227-4.442 2.975-7.334.377-11.65-15.587-26.11-30.88-52.345-46.3-78.538C42 3.73 40.49 1.97 39.108 0 14.89 13.746.853 32.94.057 61.271c-.88 30.594 8.547 58.463 23.17 84.195C56.414 203.971 90.52 261.931 125.424 319.43c15.126 24.936 36.16 44.759 62.557 58.422 24.721 12.782 47.054 7.124 69.136-7.418-17.808-30.301-35.406-60.224-52.878-89.979-4.149.629-7.961.88-11.439.796-13.115 7.125-29.037 3.563-35.951-8.256z"/><path id="W" d="M0 8.81c17.389 29.587 34.82 59.217 52.501 89.35 21.872-9.85 22.627-12.238 11.02-32.02A35206.476 35206.476 0 0 0 32.18 12.834C22.878-2.925 13.995-4.057 0 8.809z"/><path id="X" d="M0 6.753a83571.173 83571.173 0 0 0 52.585 89.433c19.484-8.591 21.37-14.04 11.23-31.306-10.14-17.266-20.28-34.533-30.462-51.8C24.386-2.131 15.587-3.85 0 6.754z"/><path id="Y" d="M9.761 106.364c19.736 33.611 63.019 44.842 96.581 25.061 33.604-19.739 44.833-63.031 25.056-96.6C111.663 1.214 68.38-10.018 34.818 9.763 1.214 29.461-10.016 72.753 9.76 106.364zM110.658 47.02c13.073 22.296 5.656 50.962-16.635 64.037-22.29 13.076-50.95 5.658-64.024-16.638-13.073-22.253-5.656-50.96 16.635-64.037 22.29-13.075 50.95-5.657 64.024 16.638z"/><path id="Z" d="M13.743 133.564L0 170.067l36.663 62.36 14.79 25.146 36.664 62.36 38.548 5.742 127.461-24.852 58.326-34.282L155.828 0 97.502 34.282l-83.759 99.282zm183.147 21.541c19.735 33.611 8.506 76.861-25.056 96.6-33.604 19.74-76.846 8.508-96.58-25.061-19.736-33.611-8.507-76.861 25.056-96.6 33.562-19.781 76.845-8.55 96.58 25.061z"/><path id="aa" d="M46.763 93.536c25.827 0 46.764-20.939 46.764-46.768C93.527 20.938 72.59 0 46.763 0 20.937 0 0 20.939 0 46.768c0 25.83 20.937 46.768 46.763 46.768z"/><path id="ab" d="M4.82 1.343C9.471-1.381 15.463.169 18.228 4.82c2.724 4.652 1.173 10.645-3.478 13.411-4.65 2.724-10.642 1.173-13.408-3.478C-1.38 10.06.17 4.067 4.82 1.343z"/><path id="ac" d="M9.763 19.529c5.392 0 9.764-4.372 9.764-9.765C19.527 4.372 15.155 0 9.763 0 4.371 0 0 4.372 0 9.764c0 5.393 4.371 9.765 9.763 9.765z"/><path id="ad" d="M18.228 4.84c2.724 4.652 1.173 10.645-3.478 13.41-4.65 2.725-10.642 1.174-13.408-3.478C-1.38 10.12.17 4.127 4.82 1.362A9.773 9.773 0 0 1 18.228 4.84z"/><path id="ae" d="M18.228 4.821c2.724 4.652 1.173 10.645-3.478 13.41-4.65 2.725-10.642 1.174-13.408-3.477C-1.38 10.102.17 4.109 4.82 1.343 9.471-1.381 15.463.169 18.228 4.82z"/><path id="af" d="M12.268.326c5.237 1.341 8.38 6.706 6.997 11.944-1.34 5.239-6.704 8.382-11.942 7-5.237-1.342-8.38-6.706-6.997-11.945C1.71 2.086 7.03-1.057 12.268.326z"/><path id="ag" d="M12.268.326c5.237 1.341 8.38 6.706 6.997 11.944-1.34 5.239-6.704 8.382-11.941 6.999-5.238-1.341-8.38-6.705-6.998-11.944C1.666 2.086 7.03-1.057 12.268.326z"/><path id="ah" d="M19.265 12.27c-1.34 5.239-6.704 8.382-11.942 6.999-5.237-1.341-8.38-6.705-6.997-11.944C1.666 2.086 7.03-1.057 12.268.326c5.237 1.383 8.338 6.748 6.997 11.944z"/><path id="ai" d="M19.265 12.27c-1.34 5.239-6.704 8.382-11.942 7-5.237-1.342-8.38-6.706-6.997-11.945C1.666 2.086 7.03-1.057 12.268.326c5.237 1.383 8.38 6.706 6.997 11.944z"/><path id="aj" d="M15.553 1.894c4.357 3.185 5.28 9.303 2.095 13.662s-9.302 5.28-13.66 2.095C-.369 14.466-1.292 8.306 1.893 3.99c3.185-4.358 9.302-5.28 13.66-2.095z"/><path id="ak" d="M15.553 1.912c4.357 3.185 5.28 9.303 2.095 13.662s-9.344 5.28-13.66 2.095c-4.357-3.185-5.28-9.303-2.095-13.662 3.185-4.358 9.302-5.322 13.66-2.095z"/><path id="al" d="M17.648 15.556c-3.185 4.359-9.302 5.28-13.66 2.095-4.357-3.185-5.28-9.303-2.095-13.662 3.185-4.358 9.344-5.28 13.66-2.095 4.357 3.143 5.28 9.303 2.095 13.662z"/><path id="am" d="M17.648 15.556c-3.185 4.359-9.344 5.28-13.66 2.095-4.357-3.185-5.28-9.303-2.095-13.662 3.185-4.358 9.302-5.28 13.66-2.095 4.357 3.185 5.28 9.303 2.095 13.662z"/><path id="an" d="M.097 11.16A9.789 9.789 0 0 1 8.435.098a9.787 9.787 0 0 1 11.062 8.34A9.789 9.789 0 0 1 11.159 19.5 9.787 9.787 0 0 1 .097 11.16z"/><path id="ao" d="M.097 11.16A9.789 9.789 0 0 1 8.435.098a9.787 9.787 0 0 1 11.062 8.34A9.789 9.789 0 0 1 11.159 19.5C5.837 20.255.85 16.525.097 11.16z"/><path id="ap" d="M8.435.097a9.787 9.787 0 0 1 11.062 8.34A9.789 9.789 0 0 1 11.159 19.5 9.787 9.787 0 0 1 .097 11.16 9.789 9.789 0 0 1 8.435.097z"/><path id="aq" d="M8.425.097a9.787 9.787 0 0 1 11.062 8.34A9.789 9.789 0 0 1 11.15 19.5 9.787 9.787 0 0 1 .087 11.16C-.625 5.797 3.104.85 8.425.097z"/><path id="ar" d="M17.636 4.94C34.647-5.075 56.519.625 66.532 17.64c10.014 17.014 4.316 38.89-12.696 48.907-17.01 10.016-38.882 4.317-48.896-12.699C-5.075 36.875.624 14.957 17.635 4.941z"/><path id="as" d="M15.587 119.818a103.586 103.586 0 0 1-3.436 5.909 79.793 79.793 0 0 0-2.807-9.178C6.955 110.179 3.77 103.934 0 97.899 24.344 46.687 18.646 15.13 12.319 0c10.894 21.08 29.707 69.862 3.561 119.357-.084.084-.21.293-.293.461z"/><path id="at" d="M0 76.442s85.31 17.183 129.43-65.588c.084-.167.21-.335.294-.544A297.862 297.862 0 0 0 134.878 0c3.771 6.035 6.955 12.28 9.343 18.65 1.132 3.059 2.095 6.118 2.808 9.178C109.863 87.045 22.417 85.2 0 76.442z"/><path id="au" d="M281.997 131.636c.587 2.557 1.09 5.113 1.383 7.669-33.646 50.543-92.349 64.205-151.051 47.944L82.467 281.67l8.213 4.359c6.662 3.52 9.218 11.818 5.698 18.482-3.52 6.705-11.816 9.22-18.478 5.699l-35.28-18.649-35.322-18.65c-6.662-3.52-9.26-11.776-5.699-18.481 3.52-6.664 11.816-9.221 18.478-5.7l8.255 4.359 49.861-94.422C29.798 117.722 8.136 58.547 35.664 0c.252 1.3.713 3.143 1.509 5.28C1.18 88.68 84.939 161.266 84.939 161.266L34.324 257.07s-21.789-12.489-25.895-4.694c0 0-7.542 11.609.21 15.716 7.751 4.107 40.308 21.29 40.308 21.29l62.725-118.729s-51.286-64.707-30.88-130.965c1.256.293 2.555.587 3.896.838 15.168 2.975 30.252 3.269 44.75 2.766 30-1.048 57.403-5.448 77.557 4.065 20.699 9.765 47.013 31.18 62.893 56.452a294.602 294.602 0 0 1-5.154 10.309c-.084.168-.209.335-.293.545-44.121 82.77-129.431 65.588-129.431 65.588 22.375 8.675 109.821 10.519 146.987-48.615z"/><path id="av" d="M106.534 165.373L43.809 284.101S11.252 266.918 3.5 262.811c-7.751-4.107-.21-15.716-.21-15.716 4.107-7.753 25.895 4.694 25.895 4.694l50.616-95.804S-3.958 83.399 32.034 0c3.604 10.016 13.995 27.366 43.577 34.407-20.364 66.258 30.923 130.966 30.923 130.966z"/><path id="aw" d="M6.285 10.854C2.724 3.94 0 0 0 0s3.184 3.478 6.285 10.854z"/><path id="ax" d="M4.064 1.76h-1.09C1.97 1.173 1.007.587 0 0c2.64 1.09 4.064 1.76 4.064 1.76z"/><path id="ay" d="M209.293 177.778a136.525 136.525 0 0 1-6.662 11.106 61.61 61.61 0 0 0-1.383-7.669 80.953 80.953 0 0 0 3.436-5.91c.083-.167.209-.335.293-.545 26.146-49.494 7.333-98.276-3.562-119.356-3.058-7.334-6.285-10.855-6.285-10.855s2.724 3.94 6.285 10.855c6.327 15.17 12.026 46.728-12.318 97.899-15.839-25.271-42.194-46.687-62.893-56.451-20.154-9.514-47.557-5.113-77.558-4.066-14.497.504-29.581.252-44.75-2.766A90.237 90.237 0 0 1 0 89.183c1.885-6.035 4.316-12.111 7.5-18.146.084-.126.126-.252.21-.377C43.576 2.808 140.073.084 151.344 0c63.899 38.221 93.857 109.969 58.577 176.73-.167.419-.419.713-.628 1.048z"/><path id="az" d="M5.615 70.332c0 .042 0 .042 0 0-1.509 2.892-2.891 5.742-4.107 8.55C.712 76.702.251 74.9 0 73.602c.754-1.635 1.592-3.27 2.43-4.946.168-.335.294-.712.461-1.048 36.789-69.652 115.562-85.033 185.2-48.237.419.21.796.461 1.215.713 1.425.754 2.808 1.55 4.19 2.305C170.577 13.043 57.152-27.19 5.615 70.333z"/><path id="aA" d="M51.286 88.534c-.084.125-.126.251-.21.377a110.812 110.812 0 0 0-7.5 18.146C13.995 99.975 3.603 82.667 0 72.65c1.215-2.85 2.598-5.7 4.106-8.55 51.538-97.522 164.962-57.289 187.84-47.943a186.98 186.98 0 0 1 2.975 1.76c-11.271.042-107.768 2.766-143.635 70.617z"/><path id="aB" d="M17.56 35.114c9.697 0 17.558-7.86 17.558-17.557C35.118 7.861 27.257 0 17.56 0S0 7.86 0 17.557s7.861 17.557 17.56 17.557z"/><path id="aC" d="M30.789 23.964c-4.232 7.963-14.12 11.022-22.082 6.831-7.96-4.233-11.02-14.123-6.83-22.086C6.068.746 15.999-2.313 23.96 1.878c8.003 4.19 11.062 14.081 6.83 22.086zm-4.902-2.598c2.765-5.281.754-11.819-4.526-14.627-5.28-2.766-11.816-.754-14.623 4.527-2.765 5.28-.754 11.818 4.525 14.626 5.28 2.766 11.858.754 14.624-4.526z"/><path id="aD" d="M2.043 21.78a8.273 8.273 0 0 0-.42.88c-2.136-4.36-2.262-9.64.21-14.292C5.898.7 15.367-2.234 23.035 1.831c3.52 1.886 6.075 4.903 7.374 8.382C19.557 6.734 7.532 11.386 2.043 21.779z"/><path id="aE" d="M27.99 14.027c-4.065 7.669-13.576 10.603-21.244 6.537C3.687 18.972 1.425 16.5 0 13.607c.126-.293.293-.586.419-.88C5.908 2.334 17.975-2.318 28.786 1.12c1.55 4.107 1.382 8.8-.797 12.908z"/><path id="aF" d="M4.326 28.583a28.978 28.978 0 0 0-1.885 4.4c-3.185-6.37-3.394-14.123.21-20.87C8.515 1.007 22.3-3.226 33.404 2.64a22.494 22.494 0 0 1 10.768 12.447c-14.665-6.747-32.22-.922-39.847 13.495z"/><path id="aG" d="M40.434 21.153C34.568 32.26 20.783 36.492 9.679 30.625A22.494 22.494 0 0 1 0 20.735c.503-1.51 1.131-2.934 1.886-4.401C9.51 1.875 27.026-3.95 41.69 2.797c2.095 5.867 1.843 12.49-1.257 18.356z"/><path id="aH" d="M384.52 240.851H0V6.161h177.658C180.591 2.473 186.038 0 192.281 0c6.243 0 11.69 2.473 14.623 6.16H384.52v234.691z"/><path id="aI" d="M367.006 0H0v221.741h367.006V0z"/><path id="aJ" d="M3.478 45.388S8.128 18.608 0 .587l16.3 11.65L27.36 0s6.997 20.368 1.76 46.56L3.478 45.389z"/><path id="aK" d="M0 226.77V0s88.284 33.82 182.351.587v226.141S78.899 237.414 0 226.77z"/><path id="aL" d="M0 229.913V3.143S99.22 36.335 176.275 0l.252 226.099S32.557 244.958 0 229.913z"/><path id="aM" d="M0 258.076L.628 32.563S109.905 41.364 160.018 0l-.084 226.057c-.042 0-84.136 43.921-159.934 32.019z"/><path id="aN" d="M0 276.851V48.237S71.398 58.254 125.869 0l.586 226.644c0-.042-45.042 56.493-126.455 50.207z"/><path id="aO" d="M182.56 226.728V0S93.312 34.826 0 1.634L.922 226.77c.042-.042 102.74 10.603 181.638-.042z"/><path id="aP" d="M177.071 228.823V2.095S77.013 36.293 0 0l.46 225.093s144.055 18.775 176.611 3.73z"/><path id="aQ" d="M159.976 257.321l-.629-225.512S50.113 41.322 0 0l.251 226.015c.042 0 83.927 43.208 159.725 31.306z"/><path id="aR" d="M56.28 0H0v284.689h56.28V0z"/><path id="aS" d="M157.275 0H0v284.689h157.275V0z"/><path id="aT" d="M26.443 0H0v26.44h26.443V0z"/><path id="aU" d="M26.443 0H0v26.44h26.443V0z"/><path id="aV" d="M26.443 0H0v26.44h26.443V0z"/><path id="aW" d="M26.443 0H0v26.44h26.443V0z"/><path id="aX" d="M26.443 0H0v26.44h26.443V0z"/><path id="aY" d="M26.443 0H0v26.44h26.443V0z"/><path id="aZ" d="M26.443 0H0v26.44h26.443V0z"/><path id="ba" d="M26.443 0H0v26.44h26.443V0z"/><path id="bb" d="M26.443 0H0v26.44h26.443V0z"/><path id="bc" d="M26.443 0H0v26.44h26.443V0z"/><path id="bd" d="M26.443 0H0v26.44h26.443V0z"/><path id="be" d="M26.443 0H0v26.44h26.443V0z"/><path id="bf" d="M26.443 0H0v26.44h26.443V0z"/><path id="bg" d="M14.96 29.919c8.263 0 14.961-6.698 14.961-14.96C29.921 6.698 23.223 0 14.961 0 6.698 0 0 6.698 0 14.96c0 8.261 6.698 14.959 14.96 14.959z"/><path id="bh" d="M20.918 50.258c-2.389 3.604-7.25 4.61-10.853 2.263L3.53 48.205c-3.603-2.39-4.61-7.25-2.263-10.855L23.474 3.53c2.388-3.605 7.248-4.61 10.852-2.263l6.536 4.274c3.604 2.39 4.61 7.25 2.263 10.855L20.918 50.258z"/><path id="bi" d="M27.504 23.193c-4.525 6.915-13.827 8.843-20.74 4.317C-.15 22.983-2.079 13.68 2.446 6.765 6.973-.15 16.275-2.078 23.188 2.448c6.914 4.568 8.841 13.83 4.316 20.745z"/><path id="bj" d="M20.918 50.258a7.875 7.875 0 0 1-10.853 2.263L3.53 48.205c-3.604-2.39-4.61-7.25-2.263-10.855L23.474 3.53c2.388-3.605 7.248-4.61 10.852-2.263l6.536 4.316a7.879 7.879 0 0 1 2.263 10.855l-22.207 33.82z"/><path id="bk" d="M41.481 16.847l-8.547 16.764L0 16.721 8.548 0l32.934 16.847z"/><path id="bl" d="M52.221 181.381c47.138 24.139 105.003 5.49 129.137-41.658 24.135-47.148 5.489-104.982-41.691-129.163C92.529-13.58 34.707 5.07 10.53 52.217-13.563 99.407 5.083 157.2 52.221 181.381zM25.237 59.719C45.266 20.618 93.157 5.195 132.21 25.186c39.051 19.99 54.512 67.892 34.526 106.994-19.987 39.101-67.92 54.523-106.972 34.533C20.67 146.722 5.21 98.82 25.237 59.719z"/><path id="bm" d="M106.972 8.74c39.051 19.99 54.512 67.893 34.526 106.994L0 43.273C19.986 4.213 67.879-11.251 106.972 8.74z"/><path id="bn" d="M8.764 0l141.498 72.46c-19.986 39.102-67.92 54.524-106.972 34.534C4.197 87.004-11.264 39.101 8.764 0z"/><path id="bo" d="M83.581 48.764c2.682-.67 4.442-3.353 3.897-6.12-.168-.963-4.777-24.013-26.69-35.286C30.367-8.275 3.886 5.765 2.754 6.394.2 7.777-.765 11.004.66 13.56c1.383 2.556 4.61 3.52 7.165 2.095.922-.502 22.794-11.944 48.102 1.09 17.347 8.927 21.076 27.66 21.118 27.87.544 2.891 3.31 4.735 6.159 4.232.168-.041.293-.041.377-.083z"/><path id="bp" d="M2.516 102.346C-8.588 58.426 18.103 13.625 62.015 2.519c43.911-11.106 88.703 15.548 99.807 59.51 11.103 43.922-15.545 88.722-59.499 99.828-43.87 11.106-88.661-15.59-99.807-59.511zm3.771-.964c10.6 41.868 53.256 67.306 95.114 56.703 41.859-10.603 67.292-53.308 56.691-95.175-10.6-41.867-53.297-67.306-95.156-56.703C21.12 16.852-4.314 59.515 6.287 101.382z"/><path id="bq" d="M31.535 1.442A50.01 50.01 0 0 1 29.44.478s-3.771-.88-8.674-.252c-7.5.797-14.455 5.155-18.185 12.363-3.729 7.209-3.268 15.423.42 22.003 2.346 4.4 5.237 6.957 5.237 6.957s1.09.628 3.017 1.76c.042-.168.042-.335.125-.503L31.535 1.442z"/><path id="br" d="M109.067 40.4a16.29 16.29 0 0 0-2.891-1.844c-.294-.167-.545-.335-.838-.46-.252-.127-.545-.21-.838-.336-.629-.293-1.299-.629-1.928-.88C88.032 30.342 43.157 10.016 21.16 0L.838 41.7c-.21.418-.545.754-.838 1.09C21.118 55.151 62.85 79.5 76.426 87.505c.587.377 1.215.712 1.844 1.09.251.125.503.335.754.46.293.168.587.252.88.378 1.09.545 2.137 1.006 3.185 1.299 8.296 2.808 17.263 1.593 24.386-2.892.083-.042.167-.084.209-.125 1.257-.797 2.472-1.76 3.604-2.766.125-.126.251-.252.419-.378a25.915 25.915 0 0 0 3.058-3.352c.126-.126.21-.294.294-.42a28.58 28.58 0 0 0 2.556-4.023c.754-1.425 1.34-2.933 1.801-4.442.042-.168.126-.335.168-.503.461-1.467.754-2.934.964-4.442.041-.168.041-.377.083-.545.168-1.509.252-3.06.168-4.568v-.252c-.461-8.465-4.651-16.47-11.732-21.625z"/><path id="bs" d="M30.671 4.694C26.021 2.598 22.375.922 20.28 0L.126 41.406c-.084.168-.084.335-.126.503 2.179 1.3 5.489 3.227 9.553 5.574.294-.335.629-.67.838-1.09l20.28-41.7z"/><path id="bt" d="M146.316 117.722s5.28-37.718 5.028-51.045c-.251-13.327-9.26-24.81-9.26-24.81L108.69 0 51.077 37.55l-.126-.167-.754.754-.88.587.126.168L0 86.71l33.395 41.867s9.218 11.315 22.165 14.542c12.947 3.227 50.867 6.454 50.867 6.454s11.271.964 25.434 17.728c13.198 17.518 11.606 28.707 11.606 28.707s-5.279 37.719-5.028 51.046c.251 13.327 9.26 24.81 9.26 24.81l33.395 41.867 57.613-37.551.126.168.754-.754.88-.587-.126-.168 49.401-47.86-33.395-41.867s-9.218-11.315-22.165-14.542c-12.948-3.227-50.868-6.454-50.868-6.454s-11.271-.964-25.433-17.728c-13.157-17.476-11.565-28.666-11.565-28.666z"/><path id="bu" d="M1.29 46.393c-1.76 1.425-1.719 4.443.125 6.748l5.615 7.04c1.843 2.305 4.776 3.06 6.536 1.635l58.158-46.394L59.447 0 1.289 46.393z"/><path id="bv" d="M70.267 9.398l-5.615-7.041C62.81.052 59.876-.703 58.116.722L0 47.116l12.277 15.422 58.116-46.393c1.802-1.383 1.718-4.442-.126-6.747z"/><path id="bw" d="M70.435 16.145c1.76-1.425 1.718-4.442-.126-6.747l-5.615-7.041C62.851.052 59.918-.703 58.158.722L0 47.116l12.277 15.422 58.158-46.393z"/><path id="bx" d="M1.431 53.14l5.615 7.041c1.843 2.305 4.776 3.06 6.536 1.635L71.74 15.422 59.463 0 1.305 46.393c-1.801 1.425-1.718 4.443.126 6.748z"/><path id="by" d="M0 35.371c2.388 2.724 17.514 19.446 37.627 22.17 22.374 3.018 55.895 4.15 55.895 4.15L44.33 0 0 35.371z"/><path id="bz" d="M44.33 0c2.138 2.934 15.043 21.416 13.241 41.616-2.011 22.505-8.38 55.445-8.38 55.445L0 35.371 44.33 0z"/><path id="bA" d="M93.522 26.277C91.133 23.553 76.007 6.83 55.895 4.149 33.52 1.132 0 0 0 0l49.191 61.648 44.33-35.371z"/><path id="bB" d="M13.412 97.061C11.275 94.128-1.63 75.688.172 55.446 2.183 32.94 8.552 0 8.552 0l49.191 61.648-44.33 35.413z"/><path id="bC" d="M2.807 1.012C2.011.007.754-.287 0 .3l2.85 3.562c.753-.587.712-1.886-.043-2.85z"/><path id="bD" d="M.587 2.85c.796 1.006 2.053 1.299 2.807.712L.545 0c-.754.545-.712 1.844.042 2.85z"/><path id="bE" d="M.587 2.85c.796 1.006 2.053 1.299 2.807.712L.545 0c-.754.587-.712 1.844.042 2.85z"/><path id="bF" d="M2.807 1.012C2.011.007.754-.287 0 .3l2.85 3.562c.753-.587.712-1.844-.043-2.85z"/><path id="bG" d="M2.807 1.012C2.011.007.754-.287 0 .3l2.85 3.562c.753-.545.712-1.844-.043-2.85z"/><path id="bH" d="M.587 2.85c.796 1.006 2.053 1.299 2.807.712L.545 0c-.754.587-.712 1.886.042 2.85z"/><path id="bI" d="M4.022 0C1.55 4.107 0 8.759 0 13.746V341.14c0 6.622 2.556 12.615 6.746 17.56l127.042-166.001.168-.587.377.587 11.145-14.543-11.69-14.752-.377.587-.168-.587L4.023 0z"/><path id="bJ" d="M153.481 358.699S0 200.074 0 176.772C0 153.471 150.758 0 150.758 0l2.723 358.699z"/><path id="bK" d="M269.127 0H0v230.709h269.127V0z"/><path id="bL" d="M12.025 0H0v198.104h12.025V0z"/><path id="bM" d="M12.025 0H0v198.104h12.025V0z"/><path id="bN" d="M12.025 0H0v198.104h12.025V0z"/><path id="bO" d="M12.025 0H0v198.104h12.025V0z"/><path id="bP" d="M12.025 0H0v198.104h12.025V0z"/><path id="bQ" d="M3.813 0L0 5.03 3.813.041V0z"/><path id="bR" d="M0 46.56h.042L35.657 0 0 46.56z"/><path id="bS" d="M119.877 9.346l-3.813 4.987-35.615 46.56L0 166.044c6.076 7.167 15.713 11.861 26.649 11.861h181.764c9.511 0 18.059-3.521 24.134-9.178L150.842 38.053 127.042 0l-7.165 9.346z"/><path id="bT" d="M0 15.674l96.622 122.165 20.448 25.816 10.391 13.159 1.718 2.179 29.456-46.267 77.809-122.207C230.327 4.15 221.276 0 211.053 0H29.33C16.55 0 5.615 6.412 0 15.674z"/><path id="bU" d="M36.034 122.123L6.578 168.39l-1.718-2.179c.084.126 7.584 12.196 7.584 18.189S.084 206.905 0 207.03l7.123-9.303 23.8 38.053 81.705 130.672c5.699-5.28 9.26-12.363 9.26-20.2V18.859c0-7.208-3.058-13.746-8.003-18.859l-77.85 122.123z"/><path id="bV" fill-rule="evenodd" d="M71.189 0L0 27.367 18.227 74.85l1.047-.42 13.157 5.868 15.796-4.191.755 2.011 8.673-4.484 9.428-2.472-.755-2.012 14.498-7.46 5.866-13.16 2.724-1.047L71.188 0z"/><path id="bW" d="M95.261 5.782c1.802 4.652-.545 9.849-5.196 11.65L12.256 47.357C7.606 49.158 2.41 46.81.608 42.159c-1.802-4.652.545-9.849 5.154-11.65L83.57.584c4.692-1.76 9.888.587 11.69 5.197z"/><path id="bX" d="M95.22 5.763c1.8 4.652-.546 9.848-5.197 11.65L12.214 47.337c-4.65 1.801-9.846-.545-11.606-5.155-1.802-4.652.545-9.849 5.154-11.651L83.612.608c4.61-1.802 9.805.545 11.607 5.155z"/><path id="bY" d="M54.533 5.763c1.802 4.652-.544 9.848-5.196 11.65l-37.081 14.25c-4.651 1.802-9.847-.545-11.649-5.155-1.801-4.652.545-9.849 5.196-11.651L42.885.608c4.65-1.802 9.846.545 11.648 5.155z"/><path id="bZ" d="M67.284 7.068C13.652 27.687-13.542 87.282 6.696 139.919c10.391 27.032 33.185 52.303 61.007 67.558l1.215.754c3.73 2.221 36.496 22.17 44.08 41.993 1.382 3.646 5.111 5.741 8.841 5.28l.083.252 14.791-5.7 2.389-.922 2.43-.922 13.534-5.197 2.514-.963 3.938-1.509 9.554-3.688 2.43-.922 11.606-4.484 3.143-1.216-.21-.503 6.369-2.556a8.248 8.248 0 0 0 2.011-8.969c-6.746-17.518 1.09-49.746 4.651-60.684.168-.545.252-1.09.294-1.299l.251-1.257c9.93-29.798 9.805-63.241-.377-89.728-20.196-52.763-80.281-78.788-133.956-58.17z"/><path id="ca" d="M76.793 9.435c-.294-.88-2.389-6.16-7.207-8.424C66.736-.33 63.594-.33 60.2.97c-4.441 1.718-7.458 4.526-8.925 8.34-2.807 7.292 1.132 15.632 1.635 16.68l.502 1.3-10.223 3.938-2.43.923-10.224 3.939-.503-1.3c-.335-1.13-3.017-9.932-9.973-13.494-3.645-1.844-7.751-1.928-12.192-.21-3.394 1.3-5.74 3.437-6.956 6.329-2.053 4.903-.042 10.226.293 11.106.252.796 1.634 4.735 5.573 6.705 3.017 1.509 6.662 1.467 10.81-.126l10.81-4.149 32.138 83.651 3.478-1.341-32.138-83.65L42.1 35.67l2.43-.922 10.224-3.94 32.138 83.651 3.477-1.341-32.137-83.65 10.81-4.15c4.148-1.592 6.872-4.023 8.129-7.166 1.55-4.107-.042-7.963-.377-8.717zM26.428 35.837l.587 1.593-10.81 4.149c-3.1 1.215-5.74 1.3-7.752.293-2.807-1.383-3.729-4.484-3.729-4.526l-.042-.125-.042-.126c0-.042-1.885-4.568-.293-8.298.838-1.928 2.388-3.311 4.818-4.275 3.436-1.3 6.495-1.3 9.177.042 5.782 3.017 8.045 11.232 8.086 11.273zM73.65 16.811c-.838 2.095-2.849 3.772-5.95 4.987l-10.81 4.149-.629-1.593c-.041-.083-3.854-7.71-1.508-13.746 1.09-2.766 3.352-4.861 6.746-6.16 2.43-.922 4.525-.964 6.453-.084 3.687 1.718 5.321 6.328 5.321 6.37l.042.126.042.125c.042 0 1.424 2.934.293 5.826z"/><path id="cb" d="M41.198 139.805a5.259 5.259 0 0 1-4.819-.713c-.335-.251-8.715-6.328-17.347-17.727C7.593 106.32 1.057 88.927.093 71.158c-.544-10.142 1.3-20.2 5.49-29.881 3.31-7.628 8.044-15.046 14.12-22.002C29.968 7.498 40.485 1.045 40.904.793c2.514-1.55 5.782-.755 7.333 1.76 1.55 2.514.754 5.783-1.76 7.334-.168.126-9.763 6.077-18.939 16.638-11.983 13.83-17.64 28.666-16.802 44.088 2.053 37.886 31.593 59.637 31.886 59.846 2.389 1.718 2.933 5.071 1.215 7.46a5.532 5.532 0 0 1-2.64 1.886z"/><path id="cc" d="M416.155 0H0v305.612h416.155V0z"/><path id="cd" d="M352.041 0H0v255.326h352.041V0z"/><path id="ce" d="M7.627 0H0v109.707h7.627V0z"/><path id="cf" d="M7.627 0H0v109.707h7.627V0z"/><path id="cg" d="M7.669 0H0v109.707h7.669V0z"/><path id="ch" d="M7.627 0H0v109.707h7.627V0z"/><path id="ci" d="M7.627 0H0v109.707h7.627V0z"/><path id="cj" d="M7.627 0H0v109.707h7.627V0z"/><path id="ck" d="M7.627 0H0v109.707h7.627V0z"/><path id="cl" d="M7.669 0H0v109.707h7.669V0z"/><path id="cm" d="M7.627 0H0v109.707h7.627V0z"/><path id="cn" d="M7.669 0H0v109.707h7.669V0z"/><path id="co" d="M7.627 0H0v109.707h7.627V0z"/><path id="cp" d="M7.627 0H0v109.707h7.627V0z"/><path id="cq" d="M17.474 0H0v20.198h17.474V0z"/><path id="cr" d="M17.474 0H0v20.198h17.474V0z"/><path id="cs" d="M17.474 0H0v20.198h17.474V0z"/><path id="ct" d="M17.474 0H0v20.198h17.474V0z"/><path id="cu" d="M7.082 0H0v23.718h7.082V0z"/><path id="cv" d="M6.537 0H0v23.718h6.537V0z"/><path id="cw" d="M7.082 0H0v23.76h7.082V0z"/><path id="cx" d="M6.537 0H0v23.76h6.537V0z"/><path id="cy" d="M7.627 0H0v229.555h7.627V0z"/><path id="cz" d="M7.627 0H0v229.555h7.627V0z"/><path id="cA" d="M7.627 0H0v229.555h7.627V0z"/><path id="cB" d="M7.627 0H0v229.555h7.627V0z"/><path id="cC" d="M7.627 0H0v229.555h7.627V0z"/><path id="cD" d="M7.627 0H0v229.555h7.627V0z"/><path id="cE" d="M7.627 0H0v229.555h7.627V0z"/><path id="cF" d="M36.08 0H0v110.294h36.08V0z"/><path id="cG" d="M9.093 0H0v108.073h9.093V0z"/><path id="cH" d="M9.093 0H0v108.073h9.093V0z"/><path id="cI" d="M9.093 0H0v108.073h9.093V0z"/><path id="cJ" d="M9.093 0H0v91.394h9.093V0z"/><path id="cK" d="M9.093 0H0v91.394h9.093V0z"/><path id="cL" d="M9.093 0H0v91.394h9.093V0z"/><path id="cM" d="M9.093 0H0v91.394h9.093V0z"/><path id="cN" d="M9.093 0H0v91.394h9.093V0z"/><path id="cO" d="M9.093 0H0v91.394h9.093V0z"/><path id="cP" d="M96.534 122.495L1.42 24.512c-1.928-1.97-1.886-5.155.084-7.083L17.97 1.42c1.97-1.928 5.154-1.886 7.082.084l95.114 97.983c1.927 1.97 1.885 5.155-.084 7.083l-16.467 16.009c-1.969 1.928-5.154 1.886-7.081-.084zM22.538 3.976a1.506 1.506 0 0 0-2.095-.041L3.976 19.944a1.507 1.507 0 0 0-.042 2.095l95.114 97.984a1.507 1.507 0 0 0 2.095.041l16.467-16.009a1.507 1.507 0 0 0 .042-2.095L22.538 3.976z"/><path id="cQ" d="M2.648 23.59a54.045 54.045 0 0 1-.042 15.381l60.84 62.57a53.768 53.768 0 0 1 15.335.419c3.813 3.772 9.972 3.814 13.827.042l7.081-6.915c3.939-3.813 4.022-10.058.21-13.997L24.059 3.013c-3.813-3.94-10.056-4.023-13.995-.21L2.983 9.72c-3.855 3.77-3.98 9.93-.335 13.87z"/><path id="cR" d="M0 596.281C0 925.602 266.906 1192.6 596.159 1192.6c329.254 0 596.161-266.956 596.161-596.319C1192.32 266.96 925.413 0 596.159 0 266.906 0 0 266.96 0 596.281z"/><path id="cS" d="M109.234 0a622.652 622.652 0 0 0-3.896 69.401c0 341.852 277.045 618.954 618.827 618.954 68.424 0 134.291-11.147 195.843-31.683-95.701 112.987-238.581 184.693-398.222 184.693C233.637 841.365 0 607.722 0 319.472 0 199.152 40.77 88.302 109.234 0z"/><path id="cT" d="M0 271.738a622.16 622.16 0 0 1 3.897-69.401C99.346 79.25 248.637 0 416.448 0c288.15 0 521.787 233.643 521.787 521.851 0 128.577-46.468 246.215-123.565 337.158-61.551 20.535-127.419 31.683-195.842 31.683C277.046 890.692 0 613.59 0 271.738z"/><path id="cU" d="M0 41.825C0 64.917 18.73 83.65 41.817 83.65s41.816-18.733 41.816-41.825C83.633 18.733 64.903 0 41.817 0 18.687.042 0 18.775 0 41.825z"/><path id="cV" d="M0 41.825C0 64.917 18.73 83.65 41.817 83.65s41.816-18.733 41.816-41.825C83.633 18.733 64.903 0 41.817 0 18.687 0 0 18.733 0 41.825z"/><path id="cW" d="M41.817 83.609c23.087 0 41.816-18.734 41.816-41.826S64.946 0 41.817 0C18.73 0 0 18.691 0 41.783 0 64.875 18.73 83.61 41.817 83.61z"/><path id="cX" d="M41.817 83.65c23.045 0 41.774-18.733 41.774-41.825C83.591 18.733 64.861 0 41.817 0 18.73 0 0 18.733 0 41.825 0 64.917 18.73 83.65 41.817 83.65z"/><path id="cY" d="M0 25.942c0 14.333 11.648 25.941 25.936 25.941 14.33 0 25.937-11.608 25.937-25.941C51.873 11.609 40.266 0 25.936 0 11.648-.042 0 11.567 0 25.942z"/><path id="cZ" d="M0 25.942c0 14.333 11.606 25.941 25.936 25.941s25.937-11.608 25.937-25.941C51.873 11.609 40.266 0 25.936 0 11.648 0 0 11.609 0 25.942z"/><path id="da" d="M0 25.942c0 14.333 11.606 25.941 25.936 25.941s25.937-11.65 25.937-25.941C51.873 11.609 40.224 0 25.936 0 11.606-.042 0 11.61 0 25.942z"/><path id="db" d="M0 25.942c0 14.333 11.606 25.941 25.936 25.941s25.937-11.608 25.937-25.941C51.873 11.609 40.266 0 25.936 0 11.606 0 0 11.609 0 25.942z"/><path id="dc" d="M25.936 0C11.606 0 0 11.609 0 25.942s11.606 25.941 25.936 25.941 25.937-11.608 25.937-25.941C51.873 11.65 40.266 0 25.936 0z"/><path id="dd" d="M25.936 0C11.606 0 0 11.609 0 25.942s11.648 25.941 25.936 25.941c14.33 0 25.937-11.608 25.937-25.941C51.873 11.609 40.224 0 25.936 0z"/><path id="de" d="M25.936 0C11.606 0 0 11.609 0 25.942s11.606 25.941 25.936 25.941 25.937-11.608 25.937-25.941C51.873 11.609 40.266 0 25.936 0z"/><path id="df" d="M25.978 0C11.648 0 0 11.609 0 25.942s11.606 25.941 25.978 25.941c14.33 0 25.937-11.608 25.937-25.941C51.915 11.609 40.266 0 25.978 0z"/><path id="dg" d="M2.45 344.66L178.095 53.476a36.76 36.76 0 0 1-2.807-14.123v-2.515C175.289 16.47 191.797 0 212.161 0c20.322 0 36.872 16.512 36.872 36.838v2.515c0 20.367-16.508 36.88-36.872 36.88-2.388 0-4.693-.252-6.914-.671L32.199 362.387c-4.903 8.214-15.503 10.896-23.716 5.993-8.254-4.861-10.936-15.506-6.034-23.72z"/><path id="dh" d="M0 294.453c0 31.054 25.182 56.242 56.23 56.242 31.049 0 56.231-25.188 56.231-56.242 0-23.972-15-44.382-36.118-52.47 0-.294.083-.587.083-.88V20.158C76.426 9.01 67.418 0 56.272 0 45.127 0 36.076 9.052 36.076 20.158v220.945c0 .293.084.586.084.88C15 250.113 0 270.523 0 294.453zm27.403 0c0-15.926 12.905-28.834 28.827-28.834 15.923 0 28.828 12.908 28.828 28.834 0 15.925-12.905 28.833-28.828 28.833-15.922.042-28.827-12.908-28.827-28.833z"/></defs></svg>