<svg width="2349" height="2503" viewBox="0 0 2349 2503" xmlns="http://www.w3.org/2000/svg" xmlns:xlink="http://www.w3.org/1999/xlink"><title>speech</title><desc>Created using Figma</desc><use xlink:href="#a" transform="translate(434.5 358)" fill="#32282F"/><use xlink:href="#b" transform="translate(131.59 248)" fill="#32282F"/><use xlink:href="#c" transform="translate(241.38 590.8)" fill="#ED8366"/><use xlink:href="#d" transform="translate(240.15 573.6)" fill="#ED8366"/><use xlink:href="#e" transform="translate(251.52 619.7)" fill="#FFB288"/><use xlink:href="#f" transform="translate(218.34 320.1)" fill="#682A2A"/><use xlink:href="#g" transform="translate(192.53 299.6)" fill="#ED8366"/><use xlink:href="#h" transform="translate(174.11 429.8)" fill="#ED8366"/><use xlink:href="#i" transform="translate(347.53 597.5)" fill="#F08C6C"/><use xlink:href="#j" transform="translate(212 290.3)" fill="#FFB288"/><use xlink:href="#k" transform="translate(365.27 583.1)" fill="#F08C6C"/><use xlink:href="#l" transform="translate(331.42 534.7)" fill="#8E3925"/><use xlink:href="#m" transform="translate(342.46 556)" fill="#D85365"/><use xlink:href="#n" transform="translate(331.11 534.7)" fill="#FFF"/><use xlink:href="#o" transform="translate(354.98 489.4)" fill="#F08C6C"/><use xlink:href="#p" transform="translate(394.33 431)" fill="#FFF"/><use xlink:href="#q" transform="translate(404.81 437.5)" fill="#422B27"/><use xlink:href="#r" transform="translate(402.64 438.1)" fill="#FFF"/><use xlink:href="#s" transform="translate(305.24 438.7)" fill="#FFF"/><use xlink:href="#t" transform="translate(316.28 443.9)" fill="#422B27"/><use xlink:href="#u" transform="translate(313.85 445.7)" fill="#FFF"/><use xlink:href="#v" transform="translate(298.52 437.7)" fill="#F08C6C"/><use xlink:href="#w" transform="translate(293.61 413.4)" fill="#32282F"/><use xlink:href="#x" transform="translate(384.86 407.8)" fill="#32282F"/><use xlink:href="#y" transform="translate(174.07 244.7)" fill="#32282F"/><use xlink:href="#z" transform="translate(313.27 306.6)" fill="#32282F"/><use xlink:href="#A" transform="translate(1098.87 1428.3)" fill="#5C5E5E"/><use xlink:href="#B" transform="translate(1502.879 1808)" fill="#AFB7BA"/><use xlink:href="#C" transform="translate(1502.572 1824.9)" fill="#878B8C"/><use xlink:href="#D" transform="matrix(.9464 -.32289 .32291 .9464 2273.962 2455.2)" fill="#5C5E5E"/><use xlink:href="#E" transform="matrix(.9464 -.32289 .32291 .9464 2177.488 2329.3)" fill="#5C5E5E"/><use xlink:href="#F" transform="translate(2249.456 1345.6)" fill="#AFB7BA"/><use xlink:href="#G" transform="translate(2184.323 2303.6)" fill="#AFB7BA"/><use xlink:href="#H" transform="translate(2181.558 2313.7)" fill="#878B8C"/><use xlink:href="#I" transform="translate(2260.824 1345.6)" fill="#878B8C"/><use xlink:href="#J" transform="translate(879.81 1808)" fill="#AFB7BA"/><use xlink:href="#K" transform="translate(879.81 1824.9)" fill="#878B8C"/><use xlink:href="#L" transform="translate(830.23 2447.7)" fill="#5C5E5E"/><use xlink:href="#M" transform="translate(947.28 2321.7)" fill="#5C5E5E"/><use xlink:href="#N" transform="translate(877.66 1345.6)" fill="#AFB7BA"/><use xlink:href="#O" transform="translate(799.5 2303.6)" fill="#AFB7BA"/><use xlink:href="#P" transform="translate(810.37 2313.7)" fill="#878B8C"/><use xlink:href="#Q" transform="translate(877.97 1345.6)" fill="#878B8C"/><use xlink:href="#R" transform="translate(831.57 6.1)" fill="#C0CCCA"/><use xlink:href="#S" transform="translate(1019.91 6.1)" fill="#FFF" opacity=".5"/><use xlink:href="#T" transform="translate(1233.44 1107.5)" fill="#FFF" opacity=".5"/><use xlink:href="#U" transform="translate(1426.992 1107.5)" fill="#FFF" opacity=".5"/><use xlink:href="#V" transform="translate(1913.957 557.3)" fill="#FFF" opacity=".5"/><use xlink:href="#W" transform="translate(1152.02 6.1)" fill="#FFF" opacity=".5"/><use xlink:href="#X" transform="translate(878.27 48.5)" fill="#9AA2A5"/><use xlink:href="#Y" transform="translate(890.87 57.5)" fill="#FFF"/><use xlink:href="#Z" transform="translate(2228.257 1383.1)" fill="#564953"/><use xlink:href="#aa" transform="translate(2246.077 1401.8)" fill="#443C42"/><use xlink:href="#ab" transform="translate(826.76 1376)" fill="#564953"/><use xlink:href="#ac" transform="translate(826.45 1391.1)" fill="#443C42"/><use xlink:href="#ad" transform="translate(2222.727)" fill="#564953"/><use xlink:href="#ae" transform="translate(2240.854)" fill="#726570"/><g transform="translate(824 1.8)"><use xlink:href="#af" fill="#564953"/><use xlink:href="#ag" fill="#726570"/></g><use xlink:href="#ah" transform="translate(890.87 60.2)" fill="#FFF" opacity=".37"/><g transform="translate(1360.323 1511.8)" fill="#17A552"><use xlink:href="#ai"/><use xlink:href="#aj"/></g><g transform="translate(1545.277 1511.8)" fill="#FFEC00"><use xlink:href="#ak"/><use xlink:href="#al"/></g><g transform="translate(1654.96 1511.8)" fill="#D81212"><use xlink:href="#am"/><use xlink:href="#an"/></g><use xlink:href="#ao" transform="translate(1036.19 573.9)" fill="#D81212"/><use xlink:href="#ap" transform="translate(1032.2 186.8)" fill="#1E93C1"/><use xlink:href="#aq" transform="translate(1408.866 226.7)" fill="#17A552"/><use xlink:href="#ar" transform="translate(1397.191 185.6)" fill="#FFC82C"/><use xlink:href="#as" transform="translate(2046.068 264.8)" fill="#4F4F4F"/><use xlink:href="#at" transform="translate(2046.068 408)" fill="#4F4F4F"/><use xlink:href="#au" transform="translate(2049.14 558.8)" fill="#4F4F4F"/><use xlink:href="#av" transform="translate(2050.984 702.9)" fill="#4F4F4F"/><use xlink:href="#aw" transform="translate(1446.656 1112.4)" fill="#4F4F4F"/><use xlink:href="#ax" transform="translate(1328.37 1188)" fill="#4F4F4F" opacity=".5"/><use xlink:href="#ay" transform="translate(1206.71 1222.7)" fill="#4F4F4F" opacity=".5"/><use xlink:href="#az" transform="translate(1672.472 1055)" fill="#1E93C1"/><use xlink:href="#aA" transform="translate(1791.678 1000.3)" fill="#D81212"/><use xlink:href="#aB" transform="translate(1915.801 961.3)" fill="#17A552"/><use xlink:href="#aC" transform="translate(1561.253 1087.3)" fill="#FFC82C"/><use xlink:href="#aD" transform="translate(1117.92 1376)" fill="#4F4F4F"/><use xlink:href="#aE" transform="translate(1117.92 1370.2)" fill="#353535"/><use xlink:href="#aF" transform="translate(2108.436 905.1)" fill="#4F4F4F"/><use xlink:href="#aG" transform="translate(2102.599 905.1)" fill="#353535"/><use xlink:href="#aH" transform="translate(2082.386 889.9)" fill="#3F3F3F"/><use xlink:href="#aI" transform="translate(1101.15 1350)" fill="#3F3F3F"/><use xlink:href="#aJ" transform="translate(1859.885 365.9)" fill="#FFC82C"/><use xlink:href="#aK" transform="translate(1860.499 516.1)" fill="#17A552"/><use xlink:href="#aL" transform="translate(1860.499 660.2)" fill="#D81212"/><use xlink:href="#aM" transform="translate(1860.499 219.1)" fill="#1E93C1"/><use xlink:href="#aN" transform="translate(526.31 2330.6)" fill="#333"/><use xlink:href="#aO" transform="translate(203.45 2426.5)"/><use xlink:href="#aP" transform="translate(203.36 2312.8)" fill="#333"/><use xlink:href="#aQ" transform="translate(528.74 2389.8)"/><use xlink:href="#aR" transform="translate(11.88 1403.4)" fill="#FFB288"/><use xlink:href="#aS" transform="translate(38.5 1534.5)" fill="#FFB288"/><use xlink:href="#aT" transform="translate(60.93 1528)" fill="#FFB288"/><use xlink:href="#aU" transform="translate(83.98 1522.5)" fill="#FFB288"/><use xlink:href="#aV" transform="translate(19.85 1543.8)" fill="#FFB288"/><use xlink:href="#aW" transform="translate(842.02 531.5)" fill="#FFB288"/><use xlink:href="#aX" transform="translate(960.84 570.8)" fill="#F58D6C"/><use xlink:href="#aY" transform="translate(937.9 553.6)" fill="#F58D6C"/><use xlink:href="#aZ" transform="translate(919.78 536.4)" fill="#F58D6C"/><use xlink:href="#ba" transform="translate(982.72 585.9)" fill="#F58D6C"/><use xlink:href="#bb" transform="translate(965.93 543)" fill="#FFB288"/><use xlink:href="#bc" transform="translate(987.64 563.8)" fill="#FFB288"/><use xlink:href="#bd" transform="translate(921.2 437.2)" fill="#1E93C1"/><use xlink:href="#be" transform="translate(924.44 502.5)" fill="#FFB288"/><use xlink:href="#bf" transform="translate(943.9 524.8)" fill="#FFB288"/><use xlink:href="#bg" transform="translate(890.56 494.6)" fill="#FFB288"/><use xlink:href="#bh" transform="translate(833.72 631)" fill="#E0E0E0"/><use xlink:href="#bi" transform="translate(344.5 637.5)" fill="#3F363D"/><use xlink:href="#bj" transform="translate(12.49 1389.2)" fill="#E0E0E0"/><use xlink:href="#bk" transform="translate(322.49 906)" fill="#302A2F"/><use xlink:href="#bl" transform="translate(322.49 681.1)" fill="#302A2F"/><use xlink:href="#bm" transform="translate(90.53 715.8)" fill="#FFF"/><use xlink:href="#bn" transform="translate(179.01 1396.6)" fill="#564953"/><g fill="#443C42"><use xlink:href="#bo" transform="translate(180.55 1358.5)"/><use xlink:href="#bp" transform="translate(360.89 1565.9)"/></g><use xlink:href="#bq" transform="translate(179.01 1504.1)" fill="#302A2F" opacity=".6"/><use xlink:href="#br" transform="translate(209.73 670.4)" fill="#E0E0E0"/><use xlink:href="#bs" transform="translate(366.12 679)" fill="#E0E0E0"/><use xlink:href="#bt" transform="translate(343.99 745.9)" fill="#F22F20"/><use xlink:href="#bu" transform="translate(377.48 722)" fill="#3F363D"/><use xlink:href="#bv" transform="translate(134.77 784.6)" fill="#3F363D"/><use xlink:href="#bw" transform="translate(132.93 835.6)" fill="#302A2F"/><use xlink:href="#bx" transform="translate(381.17 678.7)" fill="#564953"/><use xlink:href="#by" transform="translate(177.17 1308.8)" fill="#564953"/><use xlink:href="#bz" transform="translate(457.67 1297.1)" fill="#564953"/><use xlink:href="#bA" transform="translate(365.81 1088.8)" fill="#564953"/><use xlink:href="#bB" transform="translate(369.19 1092.2)" fill="#3F363D"/><use xlink:href="#bC" transform="translate(377.18 1103.8)" fill="#564953"/><use xlink:href="#bD" transform="translate(385.47 1103.8)" fill="#564953"/><use xlink:href="#bE" transform="translate(0 690.9)" fill="#3F363D"/><use xlink:href="#bF" transform="translate(181.16 664.5)" fill="#564953"/><use xlink:href="#bG" transform="translate(1098.87 1532.7)" fill="#C0CCCA"/><defs><path id="a" d="M1.054 13.775c-1.843 14.44-1.536 36.56 3.073 37.788 0 0 8.602-33.487 7.988-47.312 0-13.518-11.06 9.524-11.06 9.524z"/><path id="b" d="M168.781 127.691c19.97 54.377 7.066 102.304-36.561 119.508 0 0 3.994 23.042 3.379 30.108-4.301 51.92-13.211 7.68-22.428 72.196-.614 11.06 10.753 33.487 6.452 29.186C112.25 362.407-29.692 236.446 5.64 108.643 24.38 41.055 73.538 5.724 135.907.502c63.904-5.223 127.194 29.8 144.399 130.568-31.952 19.969-88.483 26.728-111.525-3.379z"/><path id="c" d="M150.237 196.928L143.171 0 0 9.831l23.043 182.181 127.194 4.916z"/><path id="d" d="M149.93 197.235L142.864 0 0 10.138 22.735 192.32l127.195 4.915z"/><path id="e" d="M40.555 62.366C26.729 64.209 13.21 63.287 0 60.83l10.753 85.714 127.195 4.915L132.418 0c-18.127 32.873-51.616 57.143-91.863 62.366z"/><path id="f" d="M0 0c21.506 35.638 37.175 81.106 137.641 46.083C66.055 60.83 22.735 21.198 0 0z"/><path id="g" d="M250.395 182.476c2.151 24.578-15.361 83.564-27.651 101.69-5.223 7.68-9.831 23.349-27.958 30.415-16.591 6.451-28.265 12.288-27.651 21.198.922 9.524-21.506-7.374-28.573-6.759C54.38 336.086 5.223 250.986 0 190.771l19.356-81.413C13.826 43.305 55.916 5.518 121.357.602c65.441-4.916 118.592 19.97 124.123 86.021l4.915 95.853z"/><path id="h" d="M59.898 36.3c3.687 22.734-6.76 43.625-23.043 46.39C20.572 85.455 4.29 69.172.91 46.438-2.778 23.704 4.903 4.963 21.186.662 36.856-3.639 56.518 13.565 59.898 36.3z"/><path id="i" d="M6.913 14.44c9.217 0 9.217-14.44 0-14.44s-9.217 14.44 0 14.44z"/><path id="j" d="M138.45 343.22c-62.062 6.452-112.14-48.54-117.978-105.376L.502 115.878C-5.336 59.042 40.442 7.428 102.503.67c62.061-6.452 117.671 34.409 123.815 91.244l7.681 136.713c5.53 56.529-33.488 107.834-95.549 114.593z"/><path id="k" d="M10.37 21.198C23.886 21.198 23.886 0 10.37 0c-13.826 0-13.826 21.198 0 21.198z"/><path id="l" d="M74.019 5.974v.307c-18.127 41.475-57.76 29.8-72.507 6.452v-.308c-.308-.307-.615-.921-.922-1.229-1.843-3.072.922-6.758 4.301-6.451 20.892 2.458 44.55.922 64.212-4.608.615 0 1.229-.308 1.536 0 2.458.307 4.302 3.072 3.38 5.837z"/><path id="m" d="M45.778 7.154C36.868-3.291 15.976.088 0 2.546c6.76 6.759 15.976 10.752 29.187 10.138 7.067-.614 12.597-2.458 16.59-5.53 0 .307 0 0 0 0z"/><path id="n" d="M74.326 5.974v.307c-.922.614-2.15.922-3.072 1.229-2.458.614-4.916 1.536-7.374 2.15-3.994 1.23-7.68 2.458-11.675 3.072-4.916.922-10.138.922-15.054.922-5.53 0-10.753.307-16.284.307-3.994 0-8.295 0-12.596-.307-2.15-.307-4.301-.307-6.76-.921v-.308c-.307-.307-.614-.921-.92-1.229-1.844-3.072.92-6.758 4.3-6.451 20.892 2.458 44.55.922 64.212-4.608.615 0 1.229-.308 1.536 0 2.765.307 4.609 3.072 3.687 5.837z"/><path id="o" d="M31.415 8.009c.921-1.843.614-2.458-.615-1.843-1.229.307-2.15.614-3.38.921-2.15.615-4.608 1.23-6.759 1.536-4.915.922-9.524 1.537-14.44 1.537-8.295.307-8.295 13.21 0 12.903 9.525-.615 19.049-1.844 27.959-4.608 7.066-2.151 11.06-6.452 9.831-14.133-1.536-7.68-13.825-4.3-12.596 3.687z"/><path id="p" d="M28.312 14.45c.614 8.602-4.916 15.975-12.904 16.59C7.42 31.654.661 25.203.047 16.6-.568 7.998 4.962.625 12.95.01c7.681-.307 14.44 6.145 15.362 14.44z"/><path id="q" d="M.018 11.075c.614 5.53 4.916 9.831 10.139 9.524 5.223-.307 8.91-5.223 8.602-11.06C18.145 4.01 13.843-.29 8.62.016 3.397.63-.29 5.546.018 11.076z"/><path id="r" d="M7.72 3.994c.307 2.458-1.229 4.301-3.38 4.608C2.19 8.91.346 7.066.04 4.608-.269 2.151 1.267.308 3.418 0c2.15 0 3.994 1.843 4.301 3.994z"/><path id="s" d="M28.312 14.48c.614 8.602-4.916 15.975-12.904 16.59C7.42 31.684.661 25.233.047 16.63-.568 8.028 4.962.655 12.95.04c7.988-.614 14.748 5.838 15.362 14.44z"/><path id="t" d="M.063 11.076c.614 5.53 4.915 9.831 10.138 9.524 5.223-.307 8.91-5.222 8.603-11.06C18.497 3.703 13.888-.29 8.665.017 3.442.63-.552 5.547.063 11.077z"/><path id="u" d="M7.72 4.027c.307 2.458-1.229 4.301-3.38 4.609C2.19 8.943.346 7.1.04 4.642-.269 2.184 1.267.34 3.418.034 5.569-.274 7.413 1.57 7.72 4.027z"/><path id="v" d="M41.45 2.91a1.591 1.591 0 1 0 .667-3.111L41.45 2.91zM24.271.125l-.109-1.587h-.007l.116 1.587zM-.55 3.855a1.591 1.591 0 0 0 1.1 2.986l-1.1-2.986zm42.334-2.5l.333-1.557h-.003l-.007-.001-.022-.005a17.826 17.826 0 0 0-.384-.077 54.53 54.53 0 0 0-1.13-.207 76.883 76.883 0 0 0-4.016-.579c-3.302-.388-7.828-.702-12.393-.39l.219 3.174c4.344-.304 8.575-.004 11.802.377 1.602.188 2.914.393 3.847.554a50.105 50.105 0 0 1 1.42.266l.334-1.556zM24.155-1.462C17.747-.99 11.535.345 7.005 1.544c-2.276.604-4.17 1.182-5.474 1.604a76.43 76.43 0 0 0-2.04.692c-.013.005-.023.009-.03.01l-.007.004H-.55v.001L0 5.348l.55 1.493.005-.002a7.195 7.195 0 0 1 .116-.042l.377-.133c.339-.117.828-.283 1.463-.489A103.11 103.11 0 0 1 7.819 4.62C12.277 3.44 18.2 2.161 24.387 1.712l-.232-3.173z"/><path id="w" d="M-1.18 5.924a2.458 2.458 0 1 0 2.36 4.312l-2.36-4.312zm49.627-.713a2.458 2.458 0 1 0 1.42-4.706l-1.42 4.706zM1.18 10.236C16.867 1.654 32.774.48 48.447 5.211l1.42-4.706C32.975-4.595 15.7-3.311-1.18 5.925l2.36 4.311z"/><path id="x" d="M-.94 2.233A2.458 2.458 0 0 0 .94 6.775L-.94 2.233zm42.582 3.873a2.458 2.458 0 0 0 2.127-4.432l-2.127 4.432zM.94 6.776C18.07-.314 34.547 2.7 41.642 6.105l2.127-4.432c-8.266-3.968-26.2-7.1-44.709.56L.94 6.774z"/><path id="y" d="M272.85 119.99c4.609-70.968-66.362-136.098-167.135-116.436C-31.004 22.909-2.431 93.876 15.081 140.88l9.832 43.932c17.82-3.686 20.585 53.457 20.585 53.457l17.819 4.915-6.452-91.551c59.603-2.151 141.327-32.566 156.689-82.95 21.814 9.524 47.314 36.559 49.772 68.203l9.524-16.897z"/><path id="z" d="M84.49 8.295c.92 17.511-10.14 54.685-61.755 71.89L0 45.774 65.748 0l18.741 8.295z"/><path id="A" d="M1004.04 0H0v141.628h1004.04V0z"/><path id="B" d="M754.258 0H.922A714.55 714.55 0 0 1 0 51.306h754.258a25.437 25.437 0 0 0 25.5-25.5c0-14.132-11.367-25.806-25.5-25.806z"/><path id="C" d="M778.837 0c-2.765 9.831-9.832 16.59-18.127 16.59H.922C.614 22.427.615 28.264 0 34.409h760.71c10.446 0 19.356-11.368 19.356-25.5 0-3.38-.307-6.144-1.229-8.909z"/><path id="D" d="M20.584 54.685c11.37 0 20.585-12.241 20.585-27.342C41.17 12.242 31.953 0 20.585 0 9.215 0 0 12.242 0 27.343c0 15.1 9.216 27.342 20.584 27.342z"/><path id="E" d="M20.584 54.685c11.369 0 20.585-12.241 20.585-27.342C41.17 12.242 31.953 0 20.585 0 9.214 0 0 12.242 0 27.343c0 15.1 9.216 27.342 20.584 27.342z"/><path id="F" d="M35.332 1057.14V3.38c0-1.844-1.536-3.38-3.38-3.38H3.38C1.536 0 0 1.536 0 3.38v1053.46c11.675-.31 23.657 0 35.332.3z"/><path id="G" d="M32.874 4.842C26.422-3.453 12.904-.688 0 10.065l133.339 176.344c4.609 6.144 13.211 6.144 22.428 1.536-5.837 5.223-11.982 8.602-17.512 9.831 7.988-1.536 17.512-7.373 25.808-17.204.614-.615.614-1.536.614-1.843L32.874 4.842z"/><path id="H" d="M158.532 177.88c-9.217 4.609-17.819 4.609-22.428-1.536L2.765 0C2.151 1.229 0 14.132 0 15.361v.307L125.658 183.41c3.38 4.609 8.91 5.838 15.362 4.301 5.53-1.228 11.675-4.608 17.512-9.831z"/><path id="I" d="M12.597 19.355V1052.84c0 1.54 0 2.77-.308 4 3.687 0 7.067.3 10.754.3.307-1.23.307-2.76.307-4.3V19.355C23.35 8.602 16.898 0 8.602 0H2.458C1.536 0 .922 0 0 .307c7.374 1.536 12.597 9.524 12.597 19.048z"/><path id="J" d="M31.03 0h911.562c-.307 17.204-.307 34.102 1.229 51.306H31.031C14.133 51.306 0 39.939 0 25.806.307 11.674 14.133 0 31.03 0z"/><path id="K" d="M1.536 0c3.38 9.831 11.675 16.59 21.814 16.59h919.549c.308 5.837.615 11.674.922 17.819H23.35C10.446 34.409 0 23.04 0 8.909.307 5.53.614 2.765 1.536 0z"/><path id="L" d="M49.58 33.418c-5.837 14.44-21.198 23.041-34.41 19.355C2.268 49.086-3.57 34.34 2.268 20.207 8.104 5.769 23.466-2.832 36.677.854 49.888 4.54 55.726 19.287 49.581 33.419z"/><path id="M" d="M49.58 33.418c-5.837 14.44-21.198 23.041-34.41 19.355C2.268 49.086-3.57 34.34 2.268 20.207 8.104 5.769 23.467-2.832 36.677.854 49.581 4.54 55.418 19.287 49.581 33.419z"/><path id="N" d="M0 1057.14V3.38C0 1.535 1.843 0 3.994 0h34.41c2.15 0 3.994 1.536 3.994 3.38v1053.46c-14.133-.31-28.265 0-42.398.3z"/><path id="O" d="M159.882 4.842c7.681-8.295 24.271-5.53 39.633 5.223L38.217 186.409c-5.53 6.144-15.976 6.144-27.343 1.536 7.066 5.223 14.44 8.602 21.199 9.831-9.832-1.536-21.2-7.373-31.338-17.204-.614-.615-.922-1.536-.614-1.843L159.882 4.842z"/><path id="P" d="M0 177.88c11.368 4.609 21.506 4.609 27.344-1.536L188.64 0c.615 1.229 3.38 14.132 3.073 15.361v.307L39.94 183.41c-3.994 4.609-11.06 5.838-18.74 4.301-6.453-1.228-13.826-4.608-21.2-9.831z"/><path id="Q" d="M13.211 19.355V1052.84c0 1.54.307 2.77.307 4-4.301 0-8.602.3-12.904.3-.307-1.23-.614-2.76-.614-4.3V19.355C0 8.602 7.988 0 17.82 0h7.373c.922 0 1.843 0 2.765.307-8.295 1.536-14.747 9.524-14.747 19.048z"/><path id="R" d="M1498.07 72.197V1409.52c0 39.64-32.57 72.2-72.2 72.2H72.2c-39.633 0-72.2-32.56-72.2-72.2V72.197C0 32.565 32.567 0 72.2 0h1353.67c39.63 0 72.2 32.565 72.2 72.197z"/><path id="S" d="M665.16 0L0 941.014V721.352L510.007 0H665.16z"/><path id="T" d="M423.982 0L155.153 380.338H0L268.829 0h155.153z"/><path id="U" d="M331.812 0L62.982 380.338H0L268.829 0h62.983z"/><path id="V" d="M415.687 0v219.355L0 807.681V588.019L415.687 0z"/><path id="W" d="M665.16 0L0 941.014l95.242-219.662L605.25 0h59.91z"/><path id="X" d="M1367.8 1389.56H36.868C16.591 1389.56 0 1372.97 0 1352.69V36.866C0 16.59 16.59 0 36.868 0H1367.8c20.28 0 36.87 16.59 36.87 36.866V1352.38c0 20.59-16.59 37.18-36.87 37.18z"/><path id="Y" d="M1344.45 1366.21H36.868C16.591 1366.21 0 1349.62 0 1329.34V36.866C0 16.59 16.59 0 36.868 0H1344.15c20.27 0 36.86 16.59 36.86 36.866V1329.03c.31 20.59-16.28 37.18-36.56 37.18z"/><path id="Z" d="M0 40.553l22.735 68.817c42.706-.307 79.267-29.493 83.261-84.792L44.549 0C36.869 23.349 22.12 37.173 0 40.553z"/><path id="aa" d="M74.35 0C67.9 46.39 37.176 72.197 0 75.576l4.916 14.747C47.62 90.016 84.182 60.83 88.176 5.53L74.351 0z"/><path id="ab" d="M67.182 0L.205 19.048c-2.765 44.24 22.428 83.871 74.965 91.244l27.651-61.751C80.701 38.71 68.718 23.04 67.182 0z"/><path id="ac" d="M81.315 81.413C37.688 71.89 15.26 38.403 14.645 0L.205 3.994c-2.765 44.24 22.428 83.87 74.965 91.244l6.145-13.825z"/><path id="ad" d="M0 60.522L23.042 0c43.32.307 80.496 25.806 84.182 74.654l-62.06 21.813C37.174 75.577 22.427 63.287 0 60.522z"/><path id="ae" d="M75.272 79.57C68.82 38.71 37.482 15.975 0 12.903L4.916 0c43.32.307 80.495 25.806 84.182 74.654L75.272 79.57z"/><path id="af" d="M67.794 104.762L.203 86.636C-2.562 44.546 22.938 7.066 75.783 0l27.958 58.679c-22.428 9.217-34.41 24.27-35.947 46.083z"/><path id="ag" d="M81.927 13.21c-44.242 9.217-66.67 40.86-67.284 77.42L.203 86.636C-2.562 44.546 22.938 7.066 75.783 0l6.144 13.21z"/><path id="ah" d="M552.098 0L0 781.26v3.994L554.864 0h-2.766z"/><path id="ai" d="M80.188 17.819H8.91c-4.916 0-8.91-3.994-8.91-8.91C0 3.994 3.994 0 8.91 0h71.278c4.916 0 8.91 3.994 8.91 8.91 0 5.222-3.994 8.909-8.91 8.909z"/><path id="aj" d="M80.188 15.319H8.91v5h71.278v-5zm-71.278 0a6.416 6.416 0 0 1-6.41-6.41h-5c0 6.297 5.113 11.41 11.41 11.41v-5zM2.5 8.909A6.416 6.416 0 0 1 8.91 2.5v-5C2.613-2.5-2.5 2.613-2.5 8.91h5zM8.91 2.5h71.278v-5H8.91v5zm71.278 0a6.416 6.416 0 0 1 6.41 6.41h5c0-6.297-5.114-11.41-11.41-11.41v5zm6.41 6.41c0 3.785-2.818 6.409-6.41 6.409v5c6.24 0 11.41-4.75 11.41-11.41h-5z"/><path id="ak" d="M80.188 17.819H8.91c-4.916 0-8.91-3.994-8.91-8.91C0 3.994 3.994 0 8.91 0h71.278c4.916 0 8.91 3.994 8.91 8.91 0 5.222-3.994 8.909-8.91 8.909z"/><path id="al" d="M80.188 15.319H8.91v5h71.278v-5zm-71.278 0a6.416 6.416 0 0 1-6.41-6.41h-5c0 6.297 5.114 11.41 11.41 11.41v-5zM2.5 8.909A6.416 6.416 0 0 1 8.91 2.5v-5C2.613-2.5-2.5 2.613-2.5 8.91h5zM8.91 2.5h71.278v-5H8.91v5zm71.278 0a6.416 6.416 0 0 1 6.41 6.41h5c0-6.297-5.114-11.41-11.41-11.41v5zm6.41 6.41c0 3.785-2.818 6.409-6.41 6.409v5c6.24 0 11.41-4.75 11.41-11.41h-5z"/><path id="am" d="M80.188 17.819H8.91c-4.916 0-8.91-3.994-8.91-8.91C0 3.994 3.994 0 8.91 0h71.278c4.916 0 8.91 3.994 8.91 8.91 0 5.222-3.994 8.909-8.91 8.909z"/><path id="an" d="M80.188 15.319H8.91v5h71.278v-5zm-71.278 0a6.416 6.416 0 0 1-6.41-6.41h-5c0 6.297 5.114 11.41 11.41 11.41v-5zM2.5 8.909A6.416 6.416 0 0 1 8.91 2.5v-5C2.613-2.5-2.5 2.613-2.5 8.91h5zM8.91 2.5h71.278v-5H8.91v5zm71.278 0a6.416 6.416 0 0 1 6.41 6.41h5c0-6.297-5.114-11.41-11.41-11.41v5zm6.41 6.41c0 3.785-2.818 6.409-6.41 6.409v5c6.24 0 11.41-4.75 11.41-11.41h-5z"/><path id="ao" d="M360.999 345.93C166.828 345.93 7.988 192.012 0 0h332.734l187.105 309.063c-49.157 24.271-103.538 36.867-158.84 36.867z"/><path id="ap" d="M0 343.779C7.374 165.284 145.321 18.433 322.595 0v343.779H0z"/><path id="aq" d="M0 327.496L164.677 0C285.727 61.137 363.15 186.175 363.15 322.581c0 127.189-66.977 244.547-175.43 309.985L0 327.496z"/><path id="ar" d="M1.843 0h7.681c45.778 0 84.49 7.373 126.58 24.885L0 295.853 1.843 0z"/><path id="as" d="M163.141 0H0v23.963h163.14V0z"/><path id="at" d="M163.141 0H0v23.963h163.14V0z"/><path id="au" d="M163.141 0H0v23.963h163.14V0z"/><path id="av" d="M163.141 0H0v23.963h163.141V0z"/><path id="aw" d="M71.893 0H0v258.986h71.893V0z"/><path id="ax" d="M71.893 0H0v187.711h71.893V0z"/><path id="ay" d="M71.893 0H0v152.995h71.893V0z"/><path id="az" d="M71.893 0H0v316.744h71.893V0z"/><path id="aA" d="M71.893 0H0v371.429h71.893V0z"/><path id="aB" d="M71.892 0H0v412.289h71.892V0z"/><path id="aC" d="M67.899 0H0v280.492h67.899V0z"/><path id="aD" d="M0 0h994.207H0z"/><path id="aE" d="M994.207 0H0v11.674h994.207V0z"/><path id="aF" d="M0 474.655V0v474.655z"/><path id="aG" d="M11.675 0H0v474.962h11.675V0z"/><path id="aH" d="M9.766 56.337c5.838-16.897 12.597-33.18 20.585-49.155-3.072-.308-5.837-.922-8.91-1.23 6.76 17.205 13.826 34.41 20.585 51.614 2.15 5.837 11.675 3.379 9.217-2.458-6.76-17.204-13.826-34.409-20.585-51.613-1.536-3.38-6.759-5.223-8.91-1.229C13.454 19.163 6.387 36.368.242 53.88c-1.843 5.837 7.374 8.602 9.524 2.458z"/><path id="aI" d="M57.316 41.973C40.11 37.058 23.52 30.913 6.929 24.155c-.307 3.072-.614 5.837-.614 8.909 16.898-7.68 33.489-15.668 50.386-23.349C62.231 7.257 59.466-2.266 53.63.5 36.731 8.179 20.141 16.167 3.243 23.847c-3.38 1.536-4.916 7.066-.615 8.91 17.205 7.373 34.718 13.518 52.537 18.74 6.145 1.843 8.296-7.68 2.15-9.524z"/><path id="aJ" d="M111.833 94.317c0 4.915-3.994 9.216-9.217 9.216H9.217C4.301 103.533 0 99.232 0 94.317v-85.1C0 3.994 4.301 0 9.217 0h93.399c5.223 0 9.217 3.994 9.217 9.217v85.1z"/><path id="aK" d="M111.833 94.317c0 4.915-3.994 9.216-9.217 9.216H9.217C4.301 103.533 0 99.232 0 94.317v-85.1C0 3.994 4.301 0 9.217 0h93.399c5.223 0 9.217 3.994 9.217 9.217v85.1z"/><path id="aL" d="M111.833 94.317c0 4.915-3.994 9.216-9.217 9.216H9.217C4.301 103.533 0 99.232 0 94.317v-85.1C0 4.3 4.301 0 9.217 0h93.399c5.223 0 9.217 4.301 9.217 9.217v85.1z"/><path id="aM" d="M111.833 94.317c0 5.222-3.994 9.216-9.217 9.216H9.217C4.301 103.533 0 99.539 0 94.317v-85.1C0 4.3 4.301 0 9.217 0h93.399c5.223 0 9.217 4.301 9.217 9.217v85.1z"/><path id="aN" d="M105.251.614c10.138 26.729 27.651 47.927 82.031 65.438 7.374 2.458 11.368 7.988 12.289 16.59v13.21c-3.072 5.531-7.988 7.067-11.675 7.374-87.868 6.759-94.935-6.759-105.38-10.753-6.453-2.457-16.284-9.524-17.206-14.44l-11.675 8.603L4.478 76.498C-.13 44.854-2.588 19.355 4.171 0h101.08v.614z"/><path id="aO" d="M.137.798c-.308-2.765 0 2.765 0 0-.308 5.837 1.228 3.38 1.843 9.217 23.964 37.788 110.911 39.324 134.875 5.53 0-2.765-.307-2.765-.614-5.53C111.662 42.887 23.793 37.972.137.798z"/><path id="aP" d="M19.586 0C20.508 47.62-2.534 84.793.23 114.593c23.965 37.788 113.062 42.089 137.027 8.295-1.537-33.18-26.422-73.733-23.35-121.352L19.587 0z"/><path id="aQ" d="M185.164 34.81c-87.87 6.758-94.936-6.76-105.381-10.753-6.452-2.458-16.284-9.524-17.206-14.44L50.903 18.22 1.745 8.082c-1.843-13.517-2.765-9.83 0 9.217l49.158 10.138 11.674-8.602c.922 4.916 10.754 11.982 17.206 14.44 10.445 3.993 17.512 17.51 105.381 10.752 3.686-.307 8.602-1.843 11.674-7.373v-9.217c-3.072 5.53-7.68 7.066-11.674 7.373z"/><path id="aR" d="M67.899 17.819l6.759 53.763 39.326 35.945 14.132 75.883c-22.12 5.53-33.18-27.035-33.18-43.625v-2.765l6.144 24.27-92.17 13.825L0 117.358l10.753-46.697L1.23 4.915 68.82 0l-.92 17.819z"/><path id="aS" d="M5.021 57.239L.105 15.764C-.816 8.084 4.407 1.017 11.78.096c7.374-.922 14.133 4.915 15.055 12.903l4.915 41.475c.922 7.68-4.3 14.746-11.674 15.668-7.374.614-14.133-5.223-15.055-12.903z"/><path id="aT" d="M5.328 63.686L.105 16.681C-.816 8.387 4.407 1.013 12.087.091h.308c7.373-.921 14.44 5.223 15.361 13.518l5.53 46.698c.922 8.295-4.3 15.668-11.982 16.59h-.307c-7.68 1.228-14.747-4.916-15.669-13.21z"/><path id="aU" d="M5.63 63.379L.1 16.682C-.82 8.386 4.71 1.012 12.697.091h.307c7.68-.922 15.054 5.222 15.976 13.517l5.53 46.698c.922 8.295-4.608 15.668-12.596 16.59h-.307c-7.989.921-15.055-5.223-15.977-13.518z"/><path id="aV" d="M27.356 46.71L25.82 13.221C25.513 5.542 19.368-.296 12.302.012 5.235.319-.295 6.77.012 14.144L1.856 47.63c.307 7.68 6.451 13.517 13.518 13.21 7.066-.307 12.597-6.451 11.982-14.132z"/><path id="aW" d="M99.85 0L76.809 32.873l3.073-9.524c-10.446 7.373-20.892 10.138-31.338 7.987L43.32 40.86l3.994 55.3-33.796 43.011L0 150.845l55.302 47.619 40.555-53.456 42.091-24.885 35.332-47.62L99.85 0z"/><path id="aX" d="M32.032 27.035c-4.916 6.145-14.133 7.374-20.277 2.15-5.53-4.3-6.76-11.98-3.687-18.125l-4.916 6.144c-4.916 6.145-3.994 15.361 2.15 20.277 6.146 4.915 15.363 3.994 20.278-2.15L52.002 2.457c.615-.615 1.23-1.536 1.536-2.458L32.032 27.035z"/><path id="aY" d="M34.077 31.336c-5.223 6.452-15.054 7.68-21.506 2.458l-.308-.307C6.426 28.879 4.89 20.584 8.27 14.132l-4.915 6.144C-1.87 26.728-.948 36.56 5.81 41.782l.308.307c6.452 5.223 16.283 4.301 21.506-2.458L57.427 2.458C58.04 1.843 58.656.922 58.963 0L34.077 31.336z"/><path id="aZ" d="M34.077 31.336c-5.223 6.452-15.054 7.68-21.506 2.458l-.308-.307C6.426 28.879 4.89 20.584 8.27 14.132l-4.915 6.144C-1.87 26.728-.948 36.56 5.81 41.782l.308.307c6.452 5.223 16.283 4.301 21.506-2.458L57.427 2.458C58.04 1.843 58.656.922 58.963 0L34.077 31.336z"/><path id="ba" d="M30.429 20.891c-5.223 5.53-14.133 5.837-19.663.922a13.79 13.79 0 0 1-3.38-15.361L3.7 10.445c-5.223 5.53-4.916 14.44.921 19.663 5.53 5.222 14.44 4.915 19.663-.922L47.327 4.3c1.229-1.229 2.15-2.765 2.765-4.301L30.429 20.891z"/><path id="bb" d="M52.131 23.558L25.71 56.43c-4.916 6.144-14.133 7.373-20.277 2.15-6.145-4.915-7.374-14.132-2.15-20.276L29.702 5.431c4.916-6.144 14.133-7.373 20.278-2.15 6.144 4.915 7.066 14.132 2.15 20.277z"/><path id="bc" d="M23.968 3.917L3.078 26.651c-4.609 5.223-3.994 13.518 1.536 18.74 5.53 5.224 14.133 5.224 18.741 0l20.892-22.733C48.854 17.434 48.24 9.14 42.71 3.916c-5.838-5.223-14.133-5.223-18.742 0z"/><path id="bd" d="M24.969 27.346L.698 120.434c-4.302 17.204 12.289-6.452 22.427-3.994h6.145c10.139 2.458 8.603 13.825 12.904-3.379L61.53 36.256C65.83 19.05 48.626-.304 47.397.004 38.18 1.232 28.656 12.292 24.969 27.346z"/><path id="be" d="M59.522 25.64L28.184 65.271c-5.53 7.066-15.362 8.295-22.121 3.073l-.307-.308c-6.76-5.222-7.681-15.36-2.15-22.12l31.337-39.63c5.53-7.067 15.361-8.296 22.12-3.073l.308.307c6.76 4.916 7.68 15.054 2.15 22.12z"/><path id="bf" d="M56.656 24.517L26.855 61.69c-5.223 6.452-14.748 7.68-21.2 2.765l-.307-.307C-1.104 58.925-1.718 49.4 3.505 42.95L33.307 5.776c5.222-6.452 14.747-7.68 21.199-2.765l.307.307c6.452 5.223 7.373 14.747 1.843 21.199z"/><path id="bg" d="M31.338 60.215l.307-1.229C46.392 45.776 58.682 12.596 37.79 0L0 68.203c10.446 2.15 20.892-.307 31.338-7.988z"/><path id="bh" d="M69.127 112.135c10.14-21.812 20.278-42.703 31.646-61.444L37.79 0 0 58.372l69.127 53.763z"/><path id="bi" d="M56.028 63.287c106.303 45.776 221.208 162.827 268.83 152.996C387.226 173.579 455.432 95.238 517.186 0L590 54.378c-51.615 80.184-82.338 195.699-180.653 284.793-8.295 8.909-27.958 27.342-76.809 24.27-184.032-34.716-354.24-109.677-330.275-86.943l53.765-213.21z"/><path id="bj" d="M86.947 0c-3.38 23.656-6.452 58.372-7.066 79.877L0 86.33l.307-80.8L86.947 0z"/><path id="bk" d="M.307 0c0 .307 0 .307-.307.614L.307 0z"/><path id="bl" d="M431.356 260.83c-8.296 8.909-27.958 27.342-76.809 24.27C195.093 254.993 46.392 195.085 8.91 188.94L0 224.578c5.837-11.982 173.28 61.136 354.547 95.238 48.851 3.072 68.513-15.361 76.809-24.27 98.007-89.094 129.038-204.609 180.653-284.793L597.569 0c-43.627 78.341-77.423 180.338-166.213 260.83z"/><path id="bm" d="M418.145 682.028c-14.44-298.925-.308-509.063-23.043-610.446L143.478 0 0 175.73c69.742 54.685 96.779 451.306 81.417 534.87 127.809 21.198 232.268 28.264 336.728-28.572z"/><path id="bn" d="M465.459 935.792c-42.091 11.674-86.026 13.518-131.803 7.68L267.6 465.131l-59.296-295.853c-11.06 1.229-13.211 1.844-25.5 0L170.822 455.3l-16.898 479.263c-45.471 19.355-102.309 24.578-138.87-6.145L2.151 130.568 0 0l2.458 38.095L340.415 17.82l56.838 352.688c8.295 92.781 68.206 565.285 68.206 565.285z"/><path id="bo" d="M51.922 0L0 3.072l15.669 964.056c23.964 20.891 45.47 18.741 57.76 20.891L51.922 0z"/><path id="bp" d="M26.73 0C26.73.307 0 0 0 0l67.899 299.232 66.055 475.269c17.205 2.151 27.651 2.765 44.241 2.765L115.52 303.84 26.73 0z"/><path id="bq" d="M189.87 14.481C89.405 22.161 8.91 126.002 2.15 145.971L0 15.403c5.53-.922 11.06-2.15 16.898-4.916C34.41 1.271 49.772 6.493 76.194 1.271c26.729-5.223 43.934 7.066 60.525 11.367 16.283 3.994 53.151 1.843 53.151 1.843z"/><path id="br" d="M122.279 162.212l36.253-85.407C89.712 42.396 73.429 46.083 39.94 0 17.82 11.674 14.44 27.035 0 45.161l122.279 117.051z"/><path id="bs" d="M49.772 126.575l-6.452-97.39L19.97 0C16.898 23.656 11.06 57.757 0 67.281l49.772 59.294z"/><path id="bt" d="M21.814 0L0 57.45c11.368 8.295 24.579 15.054 27.651 24.578 7.988 25.806 3.38 105.069-18.127 161.905 7.681 21.505 28.88 15.668 30.11 38.095 55.916-62.059 7.373-143.165 8.294-207.374l15.362-29.8L21.814 0z"/><path id="bu" d="M43.627 0l3.994 83.871-18.434 106.298L0 291.244l31.338 476.498c-2.15 15.669 5.53 24.885 27.036 25.192l115.213-2.764s-20.892-360.369-22.735-588.634L131.189 46.697 43.627 0z"/><path id="bv" d="M0 58.372c4.609 206.452 34.41 539.785 29.802 690.016l189.87-11.675c14.133-1.536 29.494-9.216 32.259-23.963l6.452-469.432-91.248-130.261L109.682 0 0 58.372z"/><path id="bw" d="M68.513 701.383c1.843-60.522-6.452-307.834-18.434-494.624C45.163 131.49 19.663 67.896 17.819 0L0 8.91c4.608 206.45 34.41 540.091 29.802 690.321l38.711 2.151z"/><path id="bx" d="M4.916 0L76.5 52.227l-2.15 7.68-37.483.615 37.482 29.8c-.614 97.697-31.952 213.211-72.814 295.546L0 310.599C43.013 178.495 34.103 71.582 4.916 0z"/><path id="by" d="M.614 2.458C.307 3.687 0 4.916 0 6.144l1.843 17.82c.922 9.523 17.82 16.896 37.79 16.589l65.134-1.229c19.97-.307 35.331-8.295 34.41-17.819l-1.844-17.818c0-1.23-.614-2.458-1.229-3.687L.614 2.458z"/><path id="bz" d="M.614 1.536C.307 2.765 0 3.686 0 4.916l1.843 16.897c.922 8.909 17.82 15.975 37.79 15.668l43.013-.922L80.496 0 .613 1.536z"/><path id="bA" d="M16.898 33.794c9.332 0 16.898-7.565 16.898-16.897C33.796 7.565 26.23 0 16.898 0 7.565 0 0 7.565 0 16.897c0 9.332 7.565 16.897 16.898 16.897z"/><path id="bB" d="M13.518 27.035c7.466 0 13.519-6.052 13.519-13.517C27.037 6.052 20.984 0 13.518 0S0 6.052 0 13.518c0 7.465 6.052 13.517 13.518 13.517z"/><path id="bC" d="M1.843 3.687a1.843 1.843 0 1 0 0-3.687 1.843 1.843 0 0 0 0 3.687z"/><path id="bD" d="M1.843 3.687a1.843 1.843 0 1 0 0-3.687 1.843 1.843 0 0 0 0 3.687z"/><path id="bE" d="M243.222 0C219.565 6.144 81.31 94.317 69.635 114.286c-14.747 25.192-57.453 218.74-65.133 327.496C-2.565 538.556.2 672.812 2.658 765.899l106.917-6.759 14.748-297.696 43.319-269.124 84.797-13.211L243.222 0z"/><path id="bF" d="M73.736 0L0 58.372l7.066 50.077 43.935-12.596-24.272 46.39c50.694 71.275 100.466 153.303 174.816 258.986l-1.536-75.269C70.664 108.756 64.519 7.373 73.736 0z"/><path id="bG" d="M1004.04 0H0v46.083h1004.04V0z"/></defs></svg>