<svg width="2419" height="2642" viewBox="0 0 2419 2642" xmlns="http://www.w3.org/2000/svg" xmlns:xlink="http://www.w3.org/1999/xlink"><title>rocket</title><desc>Created using Figma</desc><use xlink:href="#a" transform="translate(253.12 2146.56)" fill="#EAF9F8"/><use xlink:href="#b" transform="translate(243.6 2156.28)" fill="#FFC90D"/><use xlink:href="#c" transform="translate(433.3 2162.27)" fill="#F7941E"/><use xlink:href="#d" transform="translate(600.22 2169.52)" fill="#FFC90D"/><use xlink:href="#e" transform="translate(417.67 1282.27)" fill="#DD2810"/><use xlink:href="#f" transform="translate(417.67 1243.17)" fill="#FF5252"/><use xlink:href="#g" transform="translate(680.37 1323.57)" fill="#FF5252"/><use xlink:href="#h" transform="translate(808.98 1310.05)" fill="#B51C10"/><use xlink:href="#i" transform="translate(1197.73 1041.09)" fill="#271D22"/><use xlink:href="#j" transform="translate(1209.48 258.16)" fill="#32282F"/><use xlink:href="#k" transform="translate(946.57 162.87)" fill="#32282F"/><use xlink:href="#l" transform="translate(1041.72 460.07)" fill="#ED8366"/><use xlink:href="#m" transform="translate(1040.62 445.45)" fill="#ED8366"/><use xlink:href="#n" transform="translate(1050.85 485.28)" fill="#FFB288"/><use xlink:href="#o" transform="translate(1021.99 225.1)" fill="#682A2A"/><use xlink:href="#p" transform="translate(999.7 207.38)" fill="#ED8366"/><use xlink:href="#q" transform="translate(983.19 320.02)" fill="#ED8366"/><use xlink:href="#r" transform="translate(1131.78 463.72)" fill="#F08C6C"/><use xlink:href="#s" transform="translate(1015.7 198.9)" fill="#FFB288"/><use xlink:href="#t" transform="translate(1146.21 450.2)" fill="#F08C6C"/><use xlink:href="#u" transform="translate(1119.81 411.83)" fill="#8E3925"/><use xlink:href="#v" transform="translate(1129.77 430.19)" fill="#D85365"/><use xlink:href="#w" transform="translate(1119.44 412.16)" fill="#FFF"/><use xlink:href="#x" transform="translate(1138.45 370.31)" fill="#F08C6C"/><use xlink:href="#y" transform="translate(1174.28 321.56)" fill="#FFF"/><use xlink:href="#z" transform="translate(1183.82 327.4)" fill="#422B27"/><use xlink:href="#A" transform="translate(1182.02 327.74)" fill="#FFF"/><use xlink:href="#B" transform="translate(1097.19 328.09)" fill="#FFF"/><use xlink:href="#C" transform="translate(1106.73 332.88)" fill="#422B27"/><use xlink:href="#D" transform="translate(1104.87 334.31)" fill="#FFF"/><use xlink:href="#E" transform="translate(1092.14 326.88)" fill="#ED8366"/><use xlink:href="#F" transform="translate(1173.25 322.52)" fill="#ED8366"/><use xlink:href="#G" transform="translate(1087.39 306.22)" fill="#32282F"/><use xlink:href="#H" transform="translate(1166.31 301.34)" fill="#32282F"/><use xlink:href="#I" transform="translate(983.2 159.5)" fill="#32282F"/><use xlink:href="#J" transform="translate(1104.2 213.41)" fill="#32282F"/><use xlink:href="#K" transform="translate(2090.68 820.78)" fill="#DBD9E5"/><use xlink:href="#L" transform="translate(2106.4 1135.01)" fill="#F00"/><use xlink:href="#M" transform="translate(2146.59 991.76)" fill="#F00"/><use xlink:href="#N" transform="translate(751.62 1074.59)" fill="url(#O)"/><use xlink:href="#P" transform="translate(2127.95 1064.48)" fill="#F00"/><use xlink:href="#Q" transform="translate(2140.37 1017.34)" fill="#F00"/><use xlink:href="#R" transform="translate(1596.35 959.52)" fill="#DD2810"/><use xlink:href="#S" transform="translate(1454.95 1024.65)" fill="#BFBFD1"/><use xlink:href="#T" transform="translate(2050.59 1055.71)" fill="#F00"/><use xlink:href="#U" transform="translate(2090.68 912.46)" fill="#F00"/><use xlink:href="#V" transform="translate(2072.42 985.18)" fill="#F00"/><use xlink:href="#W" transform="translate(2084.84 938.04)" fill="#F00"/><use xlink:href="#X" transform="translate(1018.34 1456.58)" fill="#BFBFD1"/><use xlink:href="#Y" transform="translate(1917.14 961.43)" fill="#A00A0A"/><use xlink:href="#Z" transform="translate(1818.49 1335.99)" fill="#9E9EB5"/><g transform="translate(1185.67 1814.7)"><use xlink:href="#aa" fill="#B51C10"/><use xlink:href="#ab" fill="#E085B9"/></g><use xlink:href="#ac" transform="matrix(.9982 -.05932 .0593 .9982 2357.41 792.91)" fill="#DD2810"/><use xlink:href="#ad" transform="translate(822.87 963.35)" fill="#FFF"/><use xlink:href="#ae" transform="translate(1062.55 1157.66)" fill="#9E9EB5"/><use xlink:href="#af" transform="translate(1541.54 341.31)" fill="#FFB288"/><use xlink:href="#ag" transform="translate(1637.9 390.27)" fill="#F58D6C"/><use xlink:href="#ah" transform="translate(1617.83 376.75)" fill="#F58D6C"/><use xlink:href="#ai" transform="translate(1598.46 366.52)" fill="#F58D6C"/><use xlink:href="#aj" transform="translate(1656.61 401.6)" fill="#F58D6C"/><use xlink:href="#ak" transform="translate(1641.92 366.79)" fill="#FFB288"/><use xlink:href="#al" transform="translate(1622.09 352.31)" fill="#FFB288"/><use xlink:href="#am" transform="translate(1602.12 341.6)" fill="#FFB288"/><use xlink:href="#an" transform="translate(1660.99 380.23)" fill="#FFB288"/><use xlink:href="#ao" transform="translate(452.02 341.67)" fill="#FFB288"/><use xlink:href="#ap" transform="translate(449.46 407.81)" fill="#F58D6C"/><use xlink:href="#aq" transform="translate(462.61 390.64)" fill="#F58D6C"/><use xlink:href="#ar" transform="translate(479.79 376.02)" fill="#F58D6C"/><use xlink:href="#as" transform="translate(435.94 422.8)" fill="#F58D6C"/><use xlink:href="#at" transform="translate(386.98 311.55)" fill="#32282F"/><use xlink:href="#au" transform="translate(85.92)" fill="#472522"/><use xlink:href="#av" transform="translate(442.2 382)" fill="#FFB288"/><use xlink:href="#aw" transform="translate(454.89 363.78)" fill="#FFB288"/><use xlink:href="#ax" transform="translate(471.98 348.48)" fill="#FFB288"/><use xlink:href="#ay" transform="translate(429.2 399.09)" fill="#FFB288"/><use xlink:href="#az" transform="matrix(.91798 -.39665 .39655 .91802 1135.58 1702.96)" fill="#FFF"/><use xlink:href="#aA" transform="translate(1070.22 1693.19)" fill="#333"/><use xlink:href="#aB" transform="translate(1036.97 1694.11)" fill="#271D22"/><use xlink:href="#aC" transform="translate(515.96 446.18)" fill="#DBD9E5"/><use xlink:href="#aD" transform="translate(1125.02 447.64)" fill="#DBD9E5"/><use xlink:href="#aE" transform="translate(1535.33 447.64)" fill="#E0E0E0"/><use xlink:href="#aF" transform="translate(1021.26 1028.3)" fill="#32282F"/><use xlink:href="#aG" transform="translate(1020.89 1074.35)" fill="#271D22"/><use xlink:href="#aH" transform="translate(927.36 551.06)" fill="#DBD9E5"/><use xlink:href="#aI" transform="translate(942.71 715.87)" fill="#BFBFD1"/><use xlink:href="#aJ" transform="translate(1156.81 511.23)" fill="#E0E0E0"/><use xlink:href="#aK" transform="translate(1598.17 528.77)" fill="#A5A5A5"/><use xlink:href="#aL" transform="translate(515.96 446.18)" fill="#E0E0E0"/><use xlink:href="#aM" transform="matrix(.35095 -.93642 .93638 .35105 608.14 495.87)" fill="#A5A5A5"/><use xlink:href="#aN" transform="translate(1016.87 1036.34)" fill="#7E3D31"/><use xlink:href="#aO" transform="translate(1261.3 1034.52)" fill="#BFBFD1"/><use xlink:href="#aP" transform="translate(1019.8 530.23)" fill="#E0E0E0"/><use xlink:href="#aQ" transform="translate(1012.49 617.2)" fill="#BFBFD1"/><use xlink:href="#aR" transform="translate(877.67 569.7)" fill="#F22F20"/><use xlink:href="#aS" transform="translate(27.51 1894.13)" fill="#FFC90D"/><use xlink:href="#aT" transform="translate(229.8 1900.49)" fill="#F7941E"/><use xlink:href="#aU" transform="translate(409.71 1907.88)" fill="#FFC90D"/><use xlink:href="#aV" transform="translate(0 2069.52)" fill="#FFC90D"/><use xlink:href="#aW" transform="translate(218.36 2076.24)" fill="#F7941E"/><use xlink:href="#aX" transform="translate(410.31 2084.75)" fill="#FFC90D"/><use xlink:href="#aY" transform="translate(706.08 1656.87)" fill="#9E9EB5"/><use xlink:href="#aZ" transform="translate(774.19 1739.2)" fill="#A00A0A"/><use xlink:href="#ba" transform="translate(393.93 1754.58)" fill="#DD2810"/><use xlink:href="#bb" transform="translate(484.54 1766.46)" fill="#B51C10"/><use xlink:href="#bc" transform="translate(536.05 1945.65)" fill="#DD2810"/><use xlink:href="#bd" transform="translate(701.93 1951.73)" fill="#E085B9"/><use xlink:href="#be" transform="translate(415.12 1840.43)" fill="#FF5252"/><use xlink:href="#bf" transform="translate(541.53 1850.14)" fill="#B51C10"/><use xlink:href="#bg" transform="translate(337.66 28.87)" fill="#6B342D"/><use xlink:href="#bh" transform="translate(125.75 156.04)" fill="#6B342D"/><use xlink:href="#bi" transform="matrix(.9982 -.05941 .0594 .9982 2370.36 796.71)" fill="#FF5252"/><use xlink:href="#bj" transform="translate(260.2 161.15)" fill="#BFBFD1"/><defs><linearGradient id="O" x2="1" gradientUnits="userSpaceOnUse" gradientTransform="matrix(379.981 2207.17 -2206.81 380.042 1456.71 -820.484)"><stop offset=".036" stop-color="#FFF"/><stop offset=".274" stop-color="#F4F4F7"/><stop offset=".688" stop-color="#D8D8E3"/><stop offset=".989" stop-color="#BFBFD1"/></linearGradient><path id="a" d="M82.344 77.042c-8.769-29.965 28.864-47.87 59.189-31.061 25.211-66.142 124.59-56.276 161.492 0 65.766-31.061 157.838 37.273 119.84 99.76 54.074 50.429-7.673 123.514-77.092 75.643C44.711 403.366-104.358 80.696 82.344 77.042z"/><path id="b" d="M507.288 64.038c4.75.365 8.038 2.192 4.749 9.5C476.962 350.53 71.041 449.927 8.563 482.815c-8.768 4.751-10.96 4.02-5.845-4.75 44.209-78.932 134.454-336.556 304.349-431.201 39.825-22.291 89.15-33.254 135.551-45.678 6.577-2.924 8.038 0 8.769 4.02l55.901 58.833z"/><path id="c" d="M315.394 62.068c-24.845 80.759-35.806 112.185-109.975 153.478-67.228 32.888-136.282 55.179-197.298 88.433-8.403 5.116-10.595 4.019-5.115-4.385 46.402-77.47 66.862-191.848 139.205-260.183 28.133-26.675 75.63-28.137 114.724-38.37 5.481-2.557 6.942.001 7.308 3.29-1.827 5.847-6.942 8.04-10.961 9.866-34.345 13.156-66.497 32.158-76.727 68.7-5.115 16.81-9.865 36.542-5.115 49.698 1.461 4.019 3.654 6.577 7.673 8.404 38.363 10.598 82.938-7.308 103.763-40.196 7.308-10.598 12.788-21.926 18.999-34.716 1.827-4.02 2.923-9.135 9.865-12.059 3.654.731 6.577 1.828 3.654 8.04z"/><path id="d" d="M130.576 34.715c3.654 4.385 7.673 9.136 11.327 13.521-15.711 35.446-33.614 71.989-72.343 84.413-20.826 7.674-44.575 9.501-59.92 4.02-4.384-1.462-6.211-3.655-7.673-7.674-8.038-38.004 9.134-80.394 40.921-102.684 9.865-6.944 23.018-12.06 36.172-18.272C84.54 5.481 90.02 2.923 95.865 0l34.71 34.715z"/><path id="e" d="M696.387 67.603L417.613 265.298l-26.672-37.273L0 180.519l194.009-61.391 293.389-92.817L569.971 0l126.416 67.603z"/><path id="f" d="M569.971 39.1l126.416 67.604 15.711-39.1L585.681 0 15.711 180.52 0 219.62 569.971 39.1z"/><path id="g" d="M389.845 24.118l-77.823 80.393L0 55.91 170.626 0l219.219 24.118z"/><path id="h" d="M305.08 39.831L230.18 0c-1.096.365-2.192.73-2.922 1.462C190.721 35.446 39.825 157.498 0 200.252l26.306 37.274L305.08 39.831z"/><path id="i" d="M47.132 0L268.18 85.51l-52.978 111.088L0 63.218 47.132 0z"/><path id="j" d="M1.035 11.893C-.79 24.682-.426 43.684 3.958 44.78c0 0 7.673-29.234 6.942-40.928-.365-12.059-9.865 8.04-9.865 8.04z"/><path id="k" d="M146.301 110.464c17.172 47.14 6.211 89.164-31.787 103.78 0 0 3.288 20.099 2.923 26.311-3.654 45.313-11.326 6.578-19.364 62.853-.731 9.501 9.134 29.234 5.845 25.58C97.342 314.736-25.786 205.474 4.904 94.385 20.98 35.552 64.094 4.856 118.168.471c55.535-4.75 110.34 25.945 125.32 113.282-27.768 17.175-77.092 23.022-97.187-3.289z"/><path id="l" d="M130.436 171.384L124.59 0 0 8.77 20.095 167l110.341 4.385z"/><path id="m" d="M130.436 171.384L124.224 0 0 8.77 19.73 167l110.706 4.385z"/><path id="n" d="M35.075 54.083C23.018 55.545 11.326 54.813 0 52.62l9.5 74.547 110.705 4.385L115.456 0C99.014 28.503 70.15 49.698 35.076 54.083z"/><path id="o" d="M0 0c18.634 31.061 32.152 70.527 119.475 40.197C57.362 52.987 19.365 18.27 0 0z"/><path id="p" d="M217.393 158.413c1.826 21.56-13.154 72.354-24.114 88.433-4.385 6.578-8.404 20.464-24.115 26.676-14.249 5.481-24.479 10.597-24.114 18.271.731 8.405-18.633-6.212-24.845-5.847C46.767 292.159 4.385 218.343 0 165.722l16.807-70.527C12.057 37.823 48.594 4.935 105.59.55c56.997-4.385 103.033 17.175 107.783 74.547l4.019 83.316z"/><path id="q" d="M52.324 31.88c3.288 19.734-5.846 38.005-20.096 40.198C17.98 74.635 4.095 60.384.807 40.286-2.481 20.553 4.46 4.109 18.345.454c13.883-3.288 30.69 11.694 33.978 31.427z"/><path id="r" d="M8.22 17.175C19.183 17.175 19.183 0 8.22 0c-10.96 0-10.96 17.175 0 17.175z"/><path id="s" d="M120.648 298.446c-54.074 5.847-97.553-42.389-102.668-91.721L.443 100.752C-4.673 51.42 35.153 6.472 89.226.626 143.3-5.221 191.53 30.59 196.644 79.923l6.577 118.763c5.48 49.332-28.499 93.913-82.573 99.76z"/><path id="t" d="M12.057 25.214c16.076 0 16.076-25.214 0-25.214s-16.076 25.214 0 25.214z"/><path id="u" d="M64.404 4.75c0 .366 0 .366 0 0-16.076 36.178-50.42 26.311-63.208 5.847-.365-.365-.365-.73-.73-1.096-1.462-2.558.73-5.847 3.653-5.481 17.903 2.192 38.729.73 55.9-4.02h1.462c2.192 0 4.02 2.558 2.923 4.75z"/><path id="v" d="M39.825 6.125C32.152-3.01 13.884.28 0 2.105c5.846 5.848 13.884 9.502 25.21 8.771 6.212-.365 10.961-2.193 14.615-4.75z"/><path id="w" d="M64.77 4.42c0 .366 0 .366 0 0-1.096.731-1.827 1.096-2.923 1.462-2.193.73-4.02 1.096-6.212 1.827-3.288 1.096-6.576 2.193-10.23 2.558-4.384.73-8.769.73-13.153.73-4.75 0-9.5 0-14.25.366H7.043c-1.827 0-4.02-.365-5.846-.73-.365-.366-.365-.731-.73-1.097-1.462-2.558.73-5.847 3.653-5.481 17.903 2.192 38.729.73 55.9-4.02h1.462C64.04-.33 65.866 2.228 64.77 4.42z"/><path id="x" d="M27.494 9.367c2.923-3.654 2.923-5.116.73-4.02-1.096.366-1.826.731-2.922.731-1.827.366-4.02 1.097-5.846 1.462-4.02.731-8.038 1.096-12.057 1.462-9.865.365-9.865 15.713 0 15.348 11.691-.731 37.998-1.462 34.71-18.637-1.462-9.866-16.442-5.847-14.615 3.654z"/><path id="y" d="M24.914 12.442c.731 7.308-4.384 13.886-11.326 14.251C6.646 27.06.8 21.577.07 14.27-.66 6.96 4.454.383 11.396.017c6.942-.365 12.788 5.116 13.518 12.425z"/><path id="z" d="M.028 9.524c.365 4.75 4.384 8.77 8.768 8.405 4.385-.365 7.673-4.75 7.308-9.501-.366-4.75-4.385-8.77-8.769-8.405C2.951.023-.338 4.408.028 9.524z"/><path id="A" d="M6.577 3.336c0 1.827-1.097 3.654-2.923 4.02C1.827 7.356.365 5.894 0 4.066 0 2.24 1.096.413 2.923.048 4.75-.318 6.21 1.509 6.577 3.336z"/><path id="B" d="M24.914 12.486c.731 7.309-4.384 13.886-11.326 14.252C6.646 27.103.8 21.622.07 14.313-.66 7.005 4.454.427 11.396.062c6.942-.731 12.788 5.116 13.518 12.424z"/><path id="C" d="M.028 9.524c.365 4.75 4.384 8.77 8.768 8.405 4.385-.365 7.673-4.75 7.308-9.501-.366-4.75-4.385-8.77-8.769-8.405C2.951.023-.338 4.408.028 9.524z"/><path id="D" d="M6.633 3.345c0 1.827-1.096 3.654-2.923 4.02-1.827 0-3.288-1.462-3.654-3.29C-.309 2.249 1.153.422 2.98.057c1.827-.365 3.289 1.096 3.654 3.289z"/><path id="E" d="M35.442 2.724a1.5 1.5 0 0 0 .728-2.91l-.728 2.91zM20.826.173l.1 1.496.02-.001.022-.002-.142-1.493zM-.521 3.15A1.5 1.5 0 1 0 .52 5.964L-.521 3.151zm36.327-1.88l.363-1.455-.002-.001-.007-.002-.02-.005a14.565 14.565 0 0 0-.333-.077 38.98 38.98 0 0 0-.97-.205 54.425 54.425 0 0 0-3.449-.565c-2.828-.37-6.742-.652-10.704-.28l.284 2.987c3.71-.359 7.287-.093 10.03.268 1.359.178 2.464.375 3.254.532a34.532 34.532 0 0 1 1.189.258h.002l.363-1.455zm-15.08-2.593C15.14-.948 9.794.174 5.922 1.188a88.063 88.063 0 0 0-4.67 1.36 61.88 61.88 0 0 0-1.763.6l-.007.002H-.52c0 .001-.001.001.52 1.408l.52 1.406h.001l.004-.001.018-.007a17.004 17.004 0 0 1 .395-.14c.286-.1.699-.24 1.236-.413A83.932 83.932 0 0 1 6.683 4.09c3.8-.996 8.867-2.066 14.243-2.42l-.2-2.994z"/><path id="F" d="M27.727 2.897A1.5 1.5 0 1 0 29.27.325l-1.543 2.572zM17.172.149l.1 1.497.021-.002.021-.002L17.172.15zM-.702 2.843A1.5 1.5 0 1 0 .702 5.494l-1.404-2.65zm29.2-1.232a82.96 82.96 0 0 0 .77-1.287V.323a.152.152 0 0 1-.011-.006 5.763 5.763 0 0 0-.074-.042 10.075 10.075 0 0 0-.795-.378 16.241 16.241 0 0 0-2.32-.748c-1.954-.475-5.035-.865-9.038-.493l.284 2.986c3.67-.358 6.252-.018 8.043.421.859.208 1.443.42 1.87.6a5.714 5.714 0 0 1 .501.235l.01.006-.003-.002-.004-.002-.002-.001-.001-.001s-.001-.001.77-1.287zM17.072-1.347C11.47-.97 7.004.073 4.028 1A38.554 38.554 0 0 0 .556 2.262a23.48 23.48 0 0 0-1.158.53 8.287 8.287 0 0 0-.095.048l-.003.001h-.001L0 4.17c.702 1.325.702 1.326.701 1.326H.7a1.217 1.217 0 0 1 .047-.024l.188-.091c.181-.087.436-.205.793-.356.732-.31 1.781-.718 3.195-1.16 2.87-.897 6.99-1.866 12.349-2.218l-.2-2.993z"/><path id="G" d="M-.711 5.63A1.5 1.5 0 1 0 .71 8.27L-.71 5.63zm43.018-1.632a1.5 1.5 0 1 0 .882-2.867l-.882 2.867zM.71 8.271C14.604.789 28.437-.27 42.307 3.998l.882-2.867C28.559-3.37 13.895-2.237-.711 5.63L.71 8.271z"/><path id="H" d="M-.563 2.401A1.5 1.5 0 0 0 .563 5.182l-1.126-2.78zm37.188 2.38a1.5 1.5 0 0 0 1.285-2.71l-1.285 2.71zM.563 5.183c14.93-6.044 29.473-3.522 36.062-.4L37.91 2.07C30.614-1.385 15.197-3.98-.563 2.4L.563 5.182z"/><path id="I" d="M237.181 104.338C241.2 42.581 179.453-14.06 91.766 3.115c-118.744 16.81-93.9 78.566-78.554 119.494l8.403 38.004c15.711-2.923 17.903 46.409 17.903 46.409l15.711 4.385-5.48-79.297c51.881-1.827 122.762-28.503 136.281-71.989 18.999 8.405 40.921 31.792 43.478 59.199l7.673-14.982z"/><path id="J" d="M73.439 7.308c1.096 14.983-8.77 47.506-53.71 62.488L0 39.831 56.997 0l16.442 7.308z"/><path id="K" d="M0 177.921S290.831-8.811 294.12.325C297.408 9.46 2.192 200.212 2.192 200.212L0 177.921z"/><path id="L" d="M0 0c0 .367 0 .367 0 0 0 .367 0 .367 0 0z"/><path id="M" d="M.365 0C.365.73 0 1.096 0 1.827 0 1.462 0 .731.365 0z"/><path id="N" d="M1008.04 180.642C922.548 60.052 792.113-3.167 707.714.122 420.536 120.347 162.588 327.542 0 582.608l322.983 432.662c309.1-114.377 559.741-272.971 744.247-472.858 46.4-74.912 33.98-229.852-59.19-361.77z"/><path id="P" d="M.365 0c0 .365 0 .73-.365 1.096C.365.731.365.366.365 0z"/><path id="Q" d="M.365 0c0 .365 0 .73-.365 1.096C.365.731.365.366.365 0z"/><path id="R" d="M0 65.129c79.284 4.385 177.202 67.603 249.91 169.922 73.804 104.146 100.476 219.255 76.362 295.628 78.553-108.165 140.3-226.563 183.779-354.827v-.365c5.115-15.348 10.23-30.696 14.98-46.409 2.192-7.674 4.749-15.348 6.942-23.387 0-.366 0-.731.365-1.096 4.384-15.348 8.403-30.696 12.057-46.41 0-.365 0-.73.365-1.096 1.827-7.673 3.654-15.713 5.481-23.387 0-.73.365-1.096.365-1.827 1.827-7.674 3.654-15.348 5.115-23.022C373.769-13.803 183.048 7.757.001 65.13z"/><path id="S" d="M391.307 170.288C318.599 67.968 220.681 4.385 141.397.365h-.366c-1.827 0-4.019-.365-5.846-.365C89.515 14.617 44.575 31.427 0 50.429c1.462 0 2.923 0 4.384-.366 84.4-3.289 214.835 59.93 300.331 180.52 93.168 131.918 105.591 286.858 59.189 361.77-.365.731-1.096 1.462-1.461 2.192 37.633-40.196 72.342-82.22 104.495-126.071.365-1.096.73-1.827.73-2.924 24.114-76.008-2.923-191.482-76.361-295.262z"/><path id="T" d="M.274 0c-.365.365-.365.365 0 0-.365.365-.365.365 0 0z"/><path id="U" d="M.365 0C.365.73 0 1.096 0 1.827 0 1.462.365.731.365 0z"/><path id="V" d="M.365 0c0 .365 0 .73-.365 1.096C0 .731 0 .366.365 0z"/><path id="W" d="M.365 0c0 .365 0 .73-.365 1.096C0 .731.365.366.365 0z"/><path id="X" d="M814.766 0c-22.653 28.503-46.767 56.275-71.977 83.317.365-.731 1.096-1.462 1.461-2.193C559.74 281.377 308.734 439.605 0 553.983l56.632 78.566c309.099-114.377 559.74-272.972 744.25-472.859C825.361 121.321 829.38 64.315 814.766 0z"/><path id="Y" d="M235.661 6.943C211.181 3.654 186.702 1.462 161.857 0c-2.192 8.04-4.384 16.079-6.576 23.753 0 .365-.001.73-.366 1.096-2.192 7.674-4.384 15.713-6.942 23.387-4.75 15.713-9.499 31.061-14.98 46.409v.365C99.014 194.406 54.44 287.59 0 374.925c17.172 57.372 19.364 111.82 5.846 153.844 78.553-108.166 140.3-226.563 183.779-354.827v-.365c5.115-15.348 10.23-30.696 14.98-46.409 2.192-7.674 4.75-15.348 6.942-23.388 0-.365 0-.73.365-1.096 4.385-15.348 8.404-30.695 12.057-46.409 0-.365 0-.73.366-1.096 1.826-7.674 3.653-15.713 5.48-23.387 0-.73.365-1.096.365-1.827a262.285 262.285 0 0 0 5.481-23.022z"/><path id="Z" d="M99.014 0C82.938 25.58 66.131 50.794 48.228 75.277c-.365 1.097-.73 1.828-.73 2.924C36.902 92.452 25.94 106.704 14.98 120.59c14.25 64.315 10.23 121.321-13.519 159.69-.365.731-1.096 1.462-1.461 2.193 37.633-40.197 72.342-82.22 104.495-126.071.365-1.097.73-1.827.73-2.924C118.379 111.454 116.186 57.372 99.015 0z"/><path id="aa" d="M369.385 131.553L0 594.911l99.745-363.597-23.749-33.619L354.77 0l14.615 131.553z"/><path id="ab" d="M369.385 131.553L354.77 0l43.844 9.501 11.692 118.032L40.921 591.257 0 594.911l369.385-463.358z"/><path id="ac" d="M29.595 59.199c16.344 0 29.594-13.252 29.594-29.6C59.19 13.252 45.94 0 29.595 0S0 13.252 0 29.6c0 16.347 13.25 29.599 29.595 29.599z"/><path id="ad" d="M1328.84 5.753c-287.55-31.426-493.979 75.278-532.708 93.914l-154.915 84.048C412.498 318.556 189.26 507.115 0 726.735l44.21 38.37c227.987-264.202 505.3-481.995 780.786-612.817l58.458-27.772c15.346-6.578 50.056-19.002 50.056-19.002l4.384-1.827C1080.02 48.873 1209.73 24.024 1324.09 29.14v-.73c1.82-7.309 3.28-14.983 4.75-22.657.36 0 .36 0 0 0z"/><path id="ae" d="M68.689 847.784l43.844-14.617-9.865-119.493 73.073-39.101 26.672 19.368 413.959-333.633s39.094-36.542 26.672-87.701c-12.057-51.16-150.896-99.761-150.896-99.761L219.219 0S65.766 95.01 0 150.92c0 0 69.42-23.387 104.86-7.308 109.244 50.063 333.579 152.747 340.886 158.594 9.865 7.308-33.979 80.393-33.979 80.393L211.912 545.944 82.938 589.795l-31.787 43.851-9.865 102.318 27.403 111.82z"/><path id="af" d="M10.961 142.881l26.306-38.735-6.576-46.774L64.67 0c18.633 9.501 7.307 37.273-2.192 47.87l-1.827 1.828 9.865-19.368 72.342 46.044-27.402 42.389-34.345 23.753-31.421 47.87L0 153.113l10.961-10.232z"/><path id="ag" d="M27.499 24.118c-4.02 5.481-11.692 6.943-17.173 2.923-4.75-3.288-6.576-9.866-4.384-14.982L2.288 17.54C-1.73 23.022-.269 31.061 5.211 34.715c5.48 4.02 13.519 2.558 17.173-2.923l20.46-29.6L43.94 0 27.499 24.118z"/><path id="ah" d="M28.94 27.772c-4.02 5.847-12.423 7.309-18.269 3.289l-.365-.365C5.19 27.04 3.364 20.098 5.92 14.616l-3.653 5.482C-1.752 25.945-.29 34.35 5.556 38.37l.365.365c5.846 4.02 14.25 2.558 18.269-3.289L47.573 2.193 48.669 0 28.94 27.772z"/><path id="ai" d="M28.94 27.772c-4.02 5.847-12.423 7.309-18.269 3.29l-.365-.366C5.19 27.04 3.364 20.098 5.92 14.617l-3.653 5.481C-1.752 25.945-.29 34.35 5.556 38.37l.365.365c5.846 4.02 14.25 2.558 18.269-3.289L47.573 2.193 48.67 0 28.94 27.772z"/><path id="aj" d="M26.328 19.002c-4.02 5.116-11.692 5.847-16.807 1.827C5.5 17.54 4.406 12.424 5.5 8.04l-2.92 3.654c-4.02 5.115-3.288 12.424 1.827 16.81 5.115 4.019 12.422 3.288 16.807-1.828L39.48 4.02c1.096-1.097 1.461-2.558 2.192-4.02L26.328 19.002z"/><path id="ak" d="M42.844 19.464l-20.46 29.6c-4.02 5.48-11.692 6.942-17.173 2.922-5.48-4.02-6.942-11.693-2.923-17.174l20.46-29.6C26.769-.269 34.44-1.73 39.922 2.29c5.48 3.654 6.942 11.693 2.923 17.175z"/><path id="al" d="M46.966 20.425L23.582 53.678c-4.019 5.847-12.057 7.674-17.903 3.655l-.365-.366c-5.846-4.02-6.942-12.059-2.923-17.906L25.774 5.808c4.02-5.847 12.058-7.674 17.903-3.654l.366.365c5.846 4.02 6.942 12.059 2.923 17.906z"/><path id="am" d="M47.573 20.905L24.19 54.158c-4.02 5.847-12.423 7.309-18.269 3.29l-.365-.366C-.29 53.062-1.751 44.657 2.268 38.81L25.65 5.557C29.671-.29 38.074-1.752 43.92 2.268l.366.365c5.846 4.02 7.307 12.425 3.288 18.272z"/><path id="an" d="M20.847 4.56L2.58 27.216c-4.02 5.116-3.288 12.425 1.827 16.81 5.115 4.02 12.422 3.289 16.807-1.827L39.48 19.543c4.019-5.116 3.288-12.425-1.827-16.81-5.48-4.385-12.788-3.289-16.807 1.827z"/><path id="ao" d="M142.493 135.207l-33.249-33.984-2.557-49.333L62.477 0c-16.441 13.52-.365 39.831 10.962 48.601l1.826 1.462-13.153-17.906L0 94.645l34.71 38.004 38.363 17.175 39.825 42.755 42.017-48.602-12.422-8.77z"/><path id="ap" d="M20.826 21.195c4.75 4.75 12.788 4.75 17.537-.366 4.02-4.385 4.75-11.328 1.462-16.444l4.75 4.75c4.75 4.751 5.115 13.156.365 18.272-4.75 5.116-12.788 5.481-17.538.365L1.462 1.827C.73 1.097.364.731 0 0l20.826 21.195z"/><path id="aq" d="M24.114 24.483a12.914 12.914 0 0 0 18.634-.365l.365-.365c4.385-4.75 4.75-12.06 1.462-17.54l4.75 4.75c5.114 5.116 5.114 13.886.365 19.367l-.366.366c-5.115 5.481-13.518 5.846-18.633.365L1.46 1.827C.731 1.097.365.731 0 0l24.114 24.483z"/><path id="ar" d="M24.114 24.483a12.914 12.914 0 0 0 18.634-.365l.365-.365c4.385-4.75 4.75-12.06 1.462-17.54l4.75 4.75c5.114 5.116 5.114 13.886.365 19.367l-.366.366c-5.115 5.481-13.518 5.846-18.633.365L1.46 1.827C.732 1.097.366.731 0 0l24.114 24.483z"/><path id="as" d="M18.268 16.079c5.115 4.385 12.423 3.654 16.807-1.462 3.288-4.02 3.654-9.501 1.461-13.886L40.19 4.02c5.115 4.385 5.48 12.059 1.462 17.54-4.385 5.116-11.692 5.847-16.807 1.462L2.923 3.654C1.827 2.558.731 1.462 0 0l18.268 16.079z"/><path id="at" d="M85.13 15.867c26.307 22.29 32.883 57.737 14.615 79.297-18.268 21.56-54.44 21.194-80.746-1.096C10.596 87.124 4.384 78.72 0 69.95c2.558 13.886 9.865 27.041 21.557 36.907 26.306 22.291 65.035 19.733 86.226-5.481 21.191-25.214 17.172-63.95-9.134-86.24C85.13 3.808 68.689-.943 52.978.154 64.67 2.346 75.265 7.462 85.13 15.867z"/><path id="au" d="M282.428 0l-69.42 82.22L0 334.73l65.766 55.544 187.433-222.178 94.995-112.55L282.428 0z"/><path id="av" d="M3.61 22.155L29.55 48.1c4.75 4.75 12.788 4.75 17.538-.365 4.75-5.116 4.75-13.52-.366-18.271L20.782 3.518c-4.75-4.75-12.788-4.75-17.538.366C-1.14 9-1.14 17.404 3.609 22.155z"/><path id="aw" d="M4.076 23.204l29.23 29.234c5.114 5.116 13.518 5.116 18.268 0l.365-.365c4.75-5.116 4.384-13.886-.73-19.002L21.978 3.837C16.864-1.28 8.46-1.28 3.711 3.837l-.366.365c-4.75 5.116-4.384 13.886.731 19.002z"/><path id="ax" d="M4.157 23.89l29.23 29.235a12.914 12.914 0 0 0 18.633-.366l.365-.365c5.116-5.481 4.75-14.252-.365-19.368L22.79 3.792a12.914 12.914 0 0 0-18.633.366l-.365.365c-5.115 5.482-5.115 14.252.365 19.368z"/><path id="ay" d="M19.536 2.88l21.922 19.367c5.115 4.385 5.48 12.059 1.461 17.54-4.384 5.116-11.692 5.847-16.807 1.462L4.19 21.88C-.925 17.496-1.29 9.822 2.73 4.341 7.113-.775 14.42-1.506 19.536 2.879z"/><path id="az" d="M100.113 0H0v86.97h100.113V0z"/><path id="aA" d="M104.86 94.097L70.88 2.74C51.518-1.644 1.097.548 1.097.548L0 .914l20.095 79.662-8.403 106.338L49.69 298.369l22.287-10.597C50.786 181.799 32.152 184.357 104.86 94.097z"/><path id="aB" d="M53.343 79.662L33.248 0 0 11.694l14.98 77.104 26.306-5.847L29.96 189.29l41.286 113.647 11.692-5.482-38.363-111.454 8.768-106.339z"/><path id="aC" d="M536.722 97.203c-119.84 31.792-220.681 114.378-261.967 100.492C206.066 143.977 138.474 74.181 66.497 0L0 49.332c51.517 60.295 110.341 157.498 189.99 244.104 6.577 8.404 22.653 26.31 65.766 28.868 175.01-11.693 322.618-114.012 317.503-99.03L536.722 97.203z"/><path id="aD" d="M50.056 80.028c114.359 38.004 202.047 126.437 242.237 115.109C343.079 155.305 396.423 84.413 443.189 0l65.036 42.024c-39.095 71.257-58.459 171.384-137.013 252.873-6.576 8.04-22.287 24.849-63.939 25.215C148.705 301.475-.365 225.832.001 238.987L50.056 80.028z"/><path id="aE" d="M71.246 100.126c8.404-20.464 17.172-40.197 27.037-58.102L33.248 0 0 55.544l71.246 44.582z"/><path id="aF" d="M628.429 345.691L287.908 86.606 279.505 0 17.172 47.87 0 58.468c18.268 142.515 76.727 153.478 161.857 166.268L454.88 386.254l-316.041 249.95 85.496 118.032 400.806-295.994c26.671-36.908 27.402-74.181 3.288-112.551z"/><path id="aG" d="M160.03 619.76l360.616-284.666-364.269-189.655C78.919 136.669 52.613 123.148 31.057 0L17.171 2.558 0 13.155C18.268 155.671 57.362 167.73 135.916 179.058L454.88 340.575 138.839 590.526l21.191 29.234z"/><path id="aH" d="M381.807 514.517c-29.96-253.604-26.671-383.695-51.882-468.108L111.802 0 0 157.863c44.575 23.753 75.996 297.456 97.187 400.505 109.61 10.963 198.759 10.598 284.62-43.851z"/><path id="aI" d="M35.075 0C23.383 7.309 12.422 6.943 0 12.424 34.71 66.142 63.574 305.13 81.111 401.236c11.327 1.096 24.114 1.827 35.075 3.289C101.206 317.919 65.036 114.378 35.076 0z"/><path id="aJ" d="M46.401 105.973L35.075 23.387 10.961 0C9.865 20.464 9.134 49.698 0 58.468l46.401 47.505z"/><path id="aK" d="M4.384 8.77a4.385 4.385 0 1 0 0-8.77 4.385 4.385 0 0 0 0 8.77z"/><path id="aL" d="M118.744 53.717C101.572 35.081 80.746 13.887 66.497 0L0 49.332l46.036 61.026 72.708-56.64z"/><path id="aM" d="M4.75 9.5A4.75 4.75 0 1 0 4.751 0a4.75 4.75 0 0 0 0 9.5z"/><path id="aN" d="M0 52.621C101.937 59.93 204.605 42.39 291.927 0l6.942 32.157c-64.67 46.41-206.066 69.431-292.658 51.525L0 52.622z"/><path id="aO" d="M40.92 0l1.48-.256a1.5 1.5 0 0 0-2.069-1.123L40.92 0zM0 17.54l-.59-1.378a1.5 1.5 0 0 0-.885 1.65L0 17.54zm8.769 47.506l-1.475.272A1.5 1.5 0 0 0 9.4 66.406l-.631-1.36zm40.19-18.637l.631 1.36a1.5 1.5 0 0 0 .847-1.616l-1.478.256zM40.33-1.38L-.59 16.161.59 18.92 41.51 1.38l-1.18-2.76zM-1.475 17.813l8.769 47.505 2.95-.545-8.769-47.505-2.95.545zM9.4 66.406L49.59 47.77l-1.262-2.722-40.19 18.637L9.4 66.406zm41.037-20.253L42.399-.256l-2.956.512 8.038 46.409 2.956-.512z"/><path id="aP" d="M115.456 102.319l21.922-62.853c-48.229 0-77.093-8.04-103.399-39.466C18.634 9.501 9.499 10.597 0 24.118c32.518 33.254 71.612 58.468 115.456 78.201z"/><path id="aQ" d="M167.703 0l-22.287 6.578L153.819 0l6.211 13.52 5.481 30.696C162.222 118.763 188.894 160.056 0 254.335l14.25 82.952c188.893-94.28 156.01-215.235 154.914-291.244L167.703 0z"/><path id="aR" d="M262.333 49.698L279.505 0l36.536 37.639-12.422 25.58c1.096 90.259 15.345 161.882-209.72 273.702L0 306.591l71.612-74.912c169.529-1.096 230.18-116.936 214.835-162.248-2.923-7.309-14.249-12.79-24.114-19.733z"/><path id="aS" d="M538.139 68.199c4.75.73 8.038 2.558 4.019 9.866C490.276 356.153 74.124 432.161 8.724 462.126c-9.134 4.385-11.326 3.289-5.48-5.116 49.324-77.104 156.011-332.171 333.578-418.045C378.474 18.866 428.895 10.827 476.392.96c6.942-2.558 8.403.365 8.769 4.385l52.978 62.853z"/><path id="aT" d="M333.652 65.863c-29.96 80.028-42.748 111.454-120.571 148.728-69.785 29.233-141.031 47.505-204.605 77.835-9.134 4.385-10.96 3.289-5.115-4.751 51.517-75.642 79.284-190.02 156.011-254.7C189.332 7.76 237.56 9.222 277.751.817c5.845-2.192 6.942.366 7.307 3.655-2.192 5.846-7.673 8.04-11.692 9.5-35.44 11.329-69.054 28.504-81.842 65.046-6.211 16.81-12.057 36.177-8.038 49.698 1.096 4.02 3.289 6.943 6.942 9.135 37.998 12.79 84.4-2.557 107.418-34.349 7.672-10.232 14.249-21.56 21.191-33.985 2.192-4.02 3.288-9.135 10.596-11.693 4.384.365 6.942 1.827 4.019 8.039z"/><path id="aU" d="M136.572 36.908l10.961 14.252c-17.903 34.715-38.364 70.892-78.189 81.123-21.556 6.213-45.305 6.944-61.016.731-4.019-1.827-6.211-4.019-7.307-8.404-5.846-38.735 13.884-80.76 47.132-101.223 10.23-6.212 23.749-10.963 37.633-16.078C91.266 5.116 97.112 2.923 102.958 0c11.692 12.425 22.653 24.849 33.614 36.908z"/><path id="aV" d="M583.186 73.69c5.48.73 9.134 2.558 5.48 10.963C548.111 402.572 82.269 516.584 9.926 554.588c-10.23 5.482-12.787 4.386-6.576-5.481 50.786-90.625 154.184-386.619 349.655-495.515 45.671-25.58 102.303-38.004 155.646-52.256 7.673-3.289 9.5 0 10.23 4.385l64.305 67.969z"/><path id="aW" d="M362.27 71.355c-28.498 92.817-40.921 128.994-126.416 176.134-77.093 37.639-156.742 63.219-226.527 101.588-9.865 5.847-12.057 4.385-5.846-5.116C56.824 255.163 80.573 123.61 163.146 45.41c32.517-30.696 86.957-32.158 131.897-44.217 6.576-2.923 8.038 0 8.403 3.654-1.827 6.943-8.038 9.502-12.422 11.329-39.46 15.348-76.362 36.907-88.053 78.931-6.212 19.368-11.327 41.659-5.846 57.006 1.827 4.385 4.019 7.674 8.769 9.867 43.844 12.059 95.36-8.405 119.109-46.044 8.038-12.059 14.615-25.214 21.922-39.83 2.192-4.751 3.288-10.233 11.326-13.887 4.019.73 7.307 2.193 4.019 9.136z"/><path id="aX" d="M149.852 39.831l13.154 15.348c-18.269 40.562-38.729 82.586-82.938 96.838-24.114 8.77-51.152 10.962-69.055 4.75-4.75-1.827-7.307-4.385-8.768-8.77-9.134-43.486 10.23-92.453 46.767-117.667 11.326-8.04 26.306-13.886 41.651-20.829C96.875 6.578 103.086 3.654 109.662 0c13.519 13.155 27.037 26.676 40.19 39.831z"/><path id="aY" d="M45.172.33c-165.876 117.3 166.972 568.234 322.984 432.662C433.191 236.759 195.338-10.268 45.172.33z"/><path id="aZ" d="M28.95.22C-77.37 75.498 136.004 364.548 236.114 277.577 277.765 151.871 125.042-6.723 28.951.22z"/><path id="ba" d="M440.996.189C385.826 5.305 310.561 28.326 0 162.072c31.056 1.096 66.497 29.234 88.418 72.354 25.576 50.428 24.115 105.607-2.557 129.36l.365.731C242.603 253.063 436.612 113.836 472.783 51.348c17.538-29.964-3.288-53.717-31.787-51.16z"/><path id="bb" d="M21.191 296.725c-.365 23.752-7.307 43.85-21.191 55.544l.365.731C156.742 241.545 350.751 102.319 386.922 39.831c9.5-16.079 7.673-30.33-.365-39.831-37.998 60.66-214.47 189.29-365.366 296.725z"/><path id="bc" d="M420.901 2.792C364.27 21.794 291.562 62.356 0 268.09l.365.366c31.056-17.906 86.227-3.655 128.244 33.619 42.017 37.638 57.362 86.24 36.536 113.281l.366.365C293.389 277.226 451.592 104.38 469.86 39.7c8.769-31.061-20.095-46.409-48.959-36.908z"/><path id="bd" d="M294.12 0c0 .366-.001 1.096-.366 1.462-17.172 61.756-162.953 222.543-287.543 357.75 5.48 19.368 4.02 37.273-6.211 50.063l.365.366C128.243 271.145 286.447 98.299 304.715 33.619 309.465 18.27 303.984 6.578 294.12 0z"/><path id="be" d="M483.379 2.4C413.594 21.402 323.714 64.888 0 261.12c32.883.366 71.977 24.118 100.11 63.95 28.133 39.831 37.268 84.413 27.037 115.474C284.255 308.625 489.59 132.856 529.415 55.386c20.46-39.83-9.134-63.218-46.036-52.986z"/><path id="bf" d="M401.172 0c-1.096 4.02-2.558 8.04-4.75 12.06C357.328 88.066 159.665 257.99 4.019 389.541c1.827 16.079.73 31.061-4.019 43.486C157.473 300.379 363.539 123.879 403.729 46.043 413.96 25.58 411.402 9.501 401.172 0z"/><path id="bg" d="M107.418 0L0 127.168l104.86 222.543 173.183-205.368L107.418 0z"/><path id="bh" d="M0 251.412l170.991 143.977 145.781-172.846L211.912 0 0 251.412z"/><path id="bi" d="M14.25 28.503c7.869 0 14.248-6.38 14.248-14.252C28.498 6.381 22.12 0 14.25 0 6.38 0 0 6.38 0 14.252c0 7.87 6.38 14.251 14.25 14.251z"/><path id="bj" d="M48.959 0L36.902 14.252 0 58.102 18.268 71.99l32.518-38.37 16.441-19.367L48.96 0z"/></defs></svg>