<svg width="1083" height="1775" viewBox="0 0 1083 1775" xmlns="http://www.w3.org/2000/svg" xmlns:xlink="http://www.w3.org/1999/xlink"><title>win</title><desc>Created using Figma</desc><use xlink:href="#a" transform="translate(307.32 767)" fill="#D81212"/><use xlink:href="#b" transform="translate(539.34 786.7)" fill="#AF0425"/><use xlink:href="#c" transform="translate(1002.49 849.5)" fill="#BF324D"/><use xlink:href="#d" transform="translate(309.14 767.2)" fill="#F5111A"/><use xlink:href="#d" transform="translate(309.14 767.2)" fill="url(#e)"/><use xlink:href="#f" transform="translate(4.09 1102.7)" fill="url(#g)"/><use xlink:href="#h" transform="translate(2.27 930.9)" fill="#FFAB03"/><use xlink:href="#i" transform="translate(200.86 1320.1)" fill="#EDD106"/><use xlink:href="#j" transform="translate(0 1320.1)" fill="#FFF352"/><use xlink:href="#k" transform="translate(.23 1326.9)" fill="#F7E21C"/><use xlink:href="#l" transform="translate(207.23 1459.3)" fill="#17A552"/><use xlink:href="#m" transform="translate(207.46 1523.4)" fill="#2C7C56"/><use xlink:href="#n" transform="translate(354.18 771.5)" fill="#6B342D" opacity=".5"/><use xlink:href="#o" transform="translate(341.21 1057.5)"/><use xlink:href="#p" transform="translate(340.59 1020.8)" fill="#333"/><use xlink:href="#q" transform="translate(561.26 822.4)" fill="#333"/><use xlink:href="#r" transform="translate(561.18 839.5)"/><use xlink:href="#s" transform="translate(297.14 318.9)" fill="#FFB288"/><use xlink:href="#t" transform="translate(390.35 311.2)" fill="#FFB288"/><use xlink:href="#u" transform="translate(332.8 375.5)" fill="#ED8366"/><use xlink:href="#v" transform="translate(309.52 266.5)" fill="#FFB288"/><use xlink:href="#w" transform="translate(335.75 391)" fill="#FFB288"/><use xlink:href="#x" transform="translate(335 258)" fill="#32282F"/><use xlink:href="#y" transform="translate(363.23 312.2)" fill="#FFF"/><use xlink:href="#z" transform="translate(327.74 314.7)" fill="#FFF"/><use xlink:href="#A" transform="translate(357.97 300.4)" fill="#32282F"/><use xlink:href="#B" transform="rotate(-6.231 2959.093 -2772.505)" fill="#32282F"/><use xlink:href="#C" transform="translate(325.7 311.8)" fill="#E5846A"/><use xlink:href="#D" transform="translate(362.14 309.1)" fill="#E5846A"/><use xlink:href="#E" transform="translate(339.47 355.9)" fill="#F58D6C"/><use xlink:href="#F" transform="translate(343.84 358)" fill="#FFF"/><use xlink:href="#G" transform="rotate(-5.623 2832.53 -3228.854)" fill="#32282F"/><use xlink:href="#H" transform="translate(344.55 317.1)" fill="#F08C6C"/><use xlink:href="#I" transform="translate(354.63 375.5)" fill="#F08C6C"/><use xlink:href="#J" transform="matrix(.9962 -.08741 .08744 .9962 330.6 316.8)" fill="#3E2C27"/><use xlink:href="#K" transform="matrix(.9962 -.0874 .08741 .9962 367.45 313.9)" fill="#3E2C27"/><use xlink:href="#L" transform="matrix(.9962 -.08742 .08744 .9962 335.17 318.1)" fill="#FFF"/><use xlink:href="#M" transform="matrix(.9962 -.08749 .0875 .9962 372.02 315.4)" fill="#FFF"/><use xlink:href="#N" transform="translate(298.57 247.6)" fill="#32282F"/><use xlink:href="#O" transform="translate(289.35 421.9)" fill="#FFF"/><use xlink:href="#P" transform="translate(318.01 623.2)" fill="#564953"/><use xlink:href="#Q" transform="translate(309.59 643)" fill="#3F363D"/><use xlink:href="#R" transform="translate(409.91 664.6)" fill="#3F363D"/><use xlink:href="#S" transform="translate(323.47 766.5)" fill="#333" opacity=".4"/><use xlink:href="#T" transform="translate(364.87 409.2)" fill="#E0E0E0"/><use xlink:href="#U" transform="translate(326.2 406.7)" fill="#E0E0E0"/><use xlink:href="#V" transform="translate(354.18 429.9)" fill="#FF3829"/><use xlink:href="#W" transform="translate(291.54 448.1)" fill="#3F363D"/><use xlink:href="#X" transform="translate(291.17 464)" fill="#333" opacity=".4"/><use xlink:href="#Y" transform="translate(540.71 223.8)" fill="#FFB288"/><use xlink:href="#Z" transform="translate(562.35 240.2)" fill="#F58D6C"/><use xlink:href="#aa" transform="translate(554.39 235.9)" fill="#F58D6C"/><use xlink:href="#ab" transform="translate(548.7 230.4)" fill="#F58D6C"/><use xlink:href="#ac" transform="translate(568.83 247.2)" fill="#F58D6C"/><use xlink:href="#ad" transform="translate(392.62 52.1)" fill="#564953"/><use xlink:href="#ae" transform="translate(505.91 71)" fill="#9E2121"/><use xlink:href="#af" transform="translate(403.77 24.9)" fill="#FF4A2C"/><use xlink:href="#ag" transform="translate(507.95)" fill="#DB1F1B"/><use xlink:href="#ah" transform="translate(563.26 232.7)" fill="#FFB288"/><use xlink:href="#ai" transform="translate(555.98 226.3)" fill="#FFB288"/><use xlink:href="#aj" transform="translate(549.75 221.8)" fill="#FFB288"/><use xlink:href="#ak" transform="translate(569.74 238.8)" fill="#FFB288"/><use xlink:href="#al" transform="translate(535.93 271.3)" fill="#E0E0E0"/><use xlink:href="#am" transform="translate(396.49 273.2)" fill="#3F363D"/><use xlink:href="#an" transform="translate(388.07 414.6)" fill="#3F363D"/><use xlink:href="#ao" transform="translate(381.48 406.4)" fill="#564953"/><use xlink:href="#ap" transform="translate(243.34 737.5)" fill="#60312B"/><use xlink:href="#aq" transform="translate(175.16 752.9)" fill="#512A27"/><use xlink:href="#ar" transform="translate(213.15 834.5)" fill="#472522"/><use xlink:href="#as" transform="translate(333.93 766.5)" fill="#7E3D31"/><use xlink:href="#at" transform="translate(179.25 752.9)" fill="#7E3D31"/><use xlink:href="#au" transform="translate(231.12 760.4)" fill="#6B342D"/><use xlink:href="#av" transform="translate(239.99 834.7)" fill="#ABCCE0"/><use xlink:href="#aw" transform="translate(243.63 682.6)" fill="#FFB288"/><use xlink:href="#ax" transform="translate(253.62 731)" fill="#FFB288"/><use xlink:href="#ay" transform="translate(261.76 729)" fill="#FFB288"/><use xlink:href="#az" transform="translate(270.41 726.7)" fill="#FFB288"/><use xlink:href="#aA" transform="translate(246.57 734.7)" fill="#FFB288"/><use xlink:href="#aB" transform="translate(244.99 677.1)" fill="#E0E0E0"/><use xlink:href="#aC" transform="translate(240.1 407.8)" fill="#3F363D"/><use xlink:href="#aD" transform="translate(315.74 406.7)" fill="#564953"/><use xlink:href="#aE" transform="translate(207.23 1320.1)" fill="#677F00" opacity=".2"/><defs><linearGradient id="e" x2="1" gradientUnits="userSpaceOnUse" gradientTransform="matrix(-108.786 588.889 -588.962 -108.772 745.056 -194.077)"><stop offset="0" stop-color="#3D1D1A"/><stop offset=".266" stop-color="#744D33"/><stop offset=".943" stop-color="#FCC471"/></linearGradient><linearGradient id="g" x2="1" gradientUnits="userSpaceOnUse" gradientTransform="matrix(0 476.668 -476.727 0 504.854 -57.677)"><stop offset="0" stop-color="#E8741F"/><stop offset=".152" stop-color="#E97C1F"/><stop offset=".386" stop-color="#EC921E"/><stop offset=".674" stop-color="#F1B51D"/><stop offset=".976" stop-color="#F7E21C"/></linearGradient><path id="a" d="M243.171 0l-1.592 969.609v11.599c-1.82 0-4.777-11.599-6.597-11.599-84.393 0-164.01-6.142-234.982-17.287L1.592 17.514C72.565 6.369 152.41.227 236.575.227 238.849 0 241.124 0 243.171 0z"/><path id="b" d="M484.751 241.14l-4.323 629.347c-7.734 5.004-15.695 16.376-25.022 21.152C361.686 940.768 191.307 950.093 0 950.548V.045C50.5-3.82 484.751 241.14 484.751 241.14z"/><path id="c" d="M80.071 90.979v670.06C74.157 788.333 45.495 813.58 0 835.414V0c50.727 26.384 80.071 57.544 80.071 90.979z"/><path id="d" d="M773.417 173.315c0 33.435-29.344 64.595-80.071 90.979-.228.227-.455.227-.91.455h-.228l-450.629-88.932-1.137-.228-1.365-.227-86.668-57.317-35.259-23.2L0 17.287C70.972 6.141 150.816 0 234.982 0h6.597c40.491.227 79.844 1.82 117.605 4.549 7.734.682 15.468 1.137 23.202 2.047 2.503.227 5.232.455 7.735.682 6.596.683 13.193 1.365 19.563 2.047 32.529 3.64 63.465 8.189 92.81 13.647 77.341 14.33 142.627 34.572 189.714 58.91.455.227.683.454 1.138.681 50.727 26.157 80.071 57.317 80.071 90.752z"/><path id="f" d="M532.52 0H0v491.969h532.52V0z"/><path id="h" d="M534.34 171.723H2.502C.91 166.264 0 160.805 0 155.347 0 87.34 121.699 28.431 298.676 0l.682.227L534.34 171.723z"/><path id="i" d="M0 4.322v415.091l339.621 9.553V0L0 4.322z"/><path id="j" d="M540.255 0L200.861 135.33l-82.801 19.561L7.052 67.325.227 28.885 0 6.824 540.255 0z"/><path id="k" d="M200.633 128.508V412.59C85.531 382.794 9.326 338.214 0 287.721V0c5.687 48.219 72.565 91.434 176.066 121.684a1783.168 1783.168 0 0 0 24.567 6.824z"/><path id="l" d="M796.847 64.14l-31.164 107.583-431.521 52.995L0 137.606 328.02 0l468.827 64.14z"/><path id="m" d="M796.62 0v158.986c-5.687 3.412-11.602 6.823-17.971 10.235-93.72 48.901-260.914 81.653-451.767 82.336h-6.369c-84.393 0-164.01-6.141-234.982-17.286C55.277 229.494 26.842 224.036 0 217.667V73.693c21.838 4.776 44.585 9.098 68.698 12.737 70.972 11.145 150.816 17.286 234.982 17.286h6.369c191.08-.682 358.047-33.435 451.767-82.336a322.21 322.21 0 0 0 25.25-14.784c3.412-2.274 6.596-4.322 9.554-6.596z"/><path id="n" d="M457.226 18.423c-29.344-5.458-60.281-10.007-92.81-13.647-5.914-.682-12.056-1.364-18.198-1.82-.455 0-.91 0-1.365-.227-.91 0-1.82-.227-2.73-.227-1.592-.228-3.412-.228-5.004-.455C329.385 1.365 321.878.682 313.916 0L71.655 90.297l-2.73 1.137v155.119L0 260.655l13.421 39.121 93.493-26.612V113.951l138.077-58.226 41.856 35.026 170.379-72.328z"/><path id="o" d="M0 .328c0-1.137.227 1.138 0 0C0 2.603.455 1.693.91 3.74c8.644 13.647 36.396 12.51 42.993-.682-.228-1.138-.228-1.138-.228-2.047C36.624 13.975 8.644 13.975 0 .328z"/><path id="p" d="M4.032 2.047C.62 16.149-.972 25.929.62 37.074c8.644 13.646 37.08 13.42 43.676.226C42.93 24.791 39.29 12.282 33.376 0L4.033 2.047z"/><path id="q" d="M42.69 0c.682 12.51 10.464 18.878 33.666 24.564 3.185.91 5.005 2.957 5.46 6.596l.455 5.46c-1.138 2.274-3.185 3.183-4.777 3.41-36.397 5.232-39.809-.227-44.358-1.364-2.73-.91-7.052-3.412-7.507-5.459l-4.777 3.867-18.198-2.957C-.076 20.925-.986 16.377 1.29 8.188L42.69 0z"/><path id="r" d="M77.342 19.106c-36.396 5.23-39.809-.228-44.358-1.365-2.73-.91-7.052-3.412-7.507-5.459L20.7 16.15 2.502 13.192C1.365 7.506.455 3.639 0 0c0 4.321 1.137 9.098 2.73 16.831l18.198 2.957 4.777-3.867c.455 2.047 4.777 4.777 7.507 5.46 4.321 1.364 7.734 6.822 44.357 1.364 1.593-.228 3.412-1.137 4.777-3.412l-.227-3.867c-1.365 2.73-3.185 3.412-4.777 3.64z"/><path id="s" d="M21.33 14.073C14.05-.71 7.225-3.895 1.31 4.748c-5.004 10.235 5.232 25.93 15.241 27.294l4.777-17.969z"/><path id="t" d="M0 15.233C5.914-.233 12.511-3.872 19.563 4.088c6.37 9.78-2.275 26.384-12.739 28.659L0 15.233z"/><path id="u" d="M48.907 67.097V0L0 1.592l5.46 62.32 43.447 3.185z"/><path id="v" d="M49.208 130.662C25.55 132.254 5.078 115.878 3.485 94.27L.073 42.412C-1.292 20.805 16.679 1.7 40.336.107 63.993-1.485 84.466 14.89 86.06 36.499l3.412 51.858c1.592 21.835-16.606 40.713-40.263 42.305z"/><path id="w" d="M13.649 20.243c-4.777.455-9.327 0-13.649-1.137l2.502 29.34 43.22 3.185V0c-6.596 11.145-18.425 18.878-32.074 20.243z"/><path id="x" d="M0 2.143c15.468-7.051 22.52 5.003 17.288 11.6 0 0-12.056 7.733-5.687 1.591C19.791 7.146 12.056 1.233 0 2.143z"/><path id="y" d="M10.968 13.924l-3.184.455C3.917 14.834.504 12.104.05 8.238-.405 4.37 2.324.959 6.19.504L9.376.05c3.867-.455 7.28 2.274 7.734 6.14.455 3.867-2.275 7.279-6.142 7.734z"/><path id="z" d="M10.968 13.924l-3.184.455C3.917 14.834.504 12.104.05 8.238-.405 4.37 2.324.959 6.19.504L9.376.05c3.867-.455 7.28 2.274 7.734 6.14.455 3.64-2.274 7.279-6.142 7.734z"/><path id="A" d="M2.15 3.418c5.468-1.623 14.128-1.05 24.383 0 1.367 0 2.036.764 1.808 0 0-.86-.896-2.96-2.264-2.96C17.645-.306 9.67-.115 2.15 1.031c-1.367 0-2.344 2.616-2.116 3.38.228.86.616-.993 2.116-.993z"/><path id="B" d="M26.167 3.113c-6.105-1.143-14.019-.704-23.742.879C1.07 4.08.275 5.799.048 5.008c-.226-.791.342-3.741 1.699-3.83C9.661.037 17.575-.315 25.489.3c1.356-.088 2.377 1.207 2.906 3.056.226.791-.871-.331-2.228-.243z"/><path id="C" d="M18.015 3.685c-5.687-.91-11.147.228-16.151 2.73-.91.227-1.82-.455-1.82-1.365C-.183 4.14.5 3.23 1.41 3.23 5.276.73 9.826-.863 17.559.502c.91-.227 1.82.455 1.82 1.365 0 .91-.455 1.592-1.364 1.82z"/><path id="D" d="M17.97 4.815c-5.459-1.82-11.146-1.82-16.378 0C.682 4.815 0 4.132 0 3.223c0-.91.682-1.592 1.592-1.592 4.095-1.82 9.1-2.502 16.379 0 .91 0 1.592.682 1.592 1.592s-.91 1.592-1.592 1.592z"/><path id="E" d="M3.106 1.656c9.782 1.137 19.563.683 28.89-1.592 2.274-.455 4.094 1.592 2.957 3.64C25.17 23.49 7.428 17.122.377 5.522-.761 3.93.83 1.429 3.107 1.656z"/><path id="F" d="M1.92 1.166C9.88 2.304 17.614 1.85 25.121.03c1.365-.227 2.502.91 1.82 2.275C19.435 18.452 5.332 12.994.327 3.668c-.91-1.364.227-2.73 1.592-2.502z"/><path id="G" d="M0 0c7.414 13.599 12.806 30.764 51 19.172C23.815 23.63 8.088 8.248 0 0z"/><path id="H" d="M.989 4.094c.454 4.322.227 8.643-.228 12.965-.227 3.411-1.592 8.642 0 12.054 2.957 6.141 14.104 3.412 19.335 2.502 5.46-.91 3.185-9.325-2.274-8.188-2.275.455-8.872 2.047-10.92.455.683.91 1.366 1.592 2.048 2.502-.682-3.412.228-7.506.683-11.145.227-3.64.455-7.278 0-11.145-.683-5.459-9.1-5.459-8.644 0z"/><path id="I" d="M4.095 8.643c5.459 0 5.459-8.643 0-8.643-5.46 0-5.46 8.643 0 8.643z"/><path id="J" d="M4.777 9.553a4.777 4.777 0 1 0 0-9.554 4.777 4.777 0 0 0 0 9.554z"/><path id="K" d="M4.777 9.553a4.777 4.777 0 1 0 0-9.554 4.777 4.777 0 0 0 0 9.554z"/><path id="L" d="M1.82 3.64a1.82 1.82 0 1 0 0-3.64 1.82 1.82 0 0 0 0 3.64z"/><path id="M" d="M1.82 3.64a1.82 1.82 0 1 0 0-3.64 1.82 1.82 0 0 0 0 3.64z"/><path id="N" d="M29.91 28.473c10.008 16.831 40.945 16.376 63.465 13.192l3.64 31.387 2.73-.227s-2.275-9.325 4.549-9.098l-1.365-17.513c1.82-20.016-23.636-61.515-67.994-40.363-19.5 2.5-40.284 24.669-33.687 50.825L3.75 72.37c9.099-1.365 7.734 7.96 7.734 7.96l2.502-.227-.682-26.838C23.995 46.896 27.407 40.3 29.909 28.473z"/><path id="O" d="M156.503 229.04C143.31 116.226 144.902 58.454 133.756 20.698L36.624 0 0 40.258c27.752 18.878 34.349 159.213 30.71 191.284 48.907 4.776 87.805 21.834 125.793-2.502z"/><path id="P" d="M129.661 0l117.605 17.513c14.331 2.502 23.885 10.463 24.112 28.204l15.469 158.076c-15.696 5.459-27.525 7.051-42.083 3.639L232.253 68.234l-136.486.228c-6.142.91-26.614 25.701-26.614 31.615l-3.185 305.007c-16.606 8.415-34.804 9.553-52.547 3.639L0 38.211l96.45-14.784L129.66 0z"/><path id="Q" d="M42.31 393.029c-6.596-.227-13.193-1.592-20.017-3.866l-3.867-108.265-3.185-142.61L0 .682 30.71 0l11.6 393.029z"/><path id="R" d="M148.997 17.74L39.126 0 2.275 26.384H0l131.936 5.914 20.7 133.739c6.142.682 4.095 1.364 10.237 1.592L148.997 17.741z"/><path id="S" d="M0 0l5.687 183.55 18.653-58.909L20.7.455 0 0z"/><path id="T" d="M20.473 42.305c4.777-11.145 7.279-22.29 7.279-33.89L16.606 0C18.198 11.372 7.734 19.56 0 21.153l20.473 21.152z"/><path id="U" d="M21.383 48.901C10.919 38.666 4.323 25.02 0 9.098L9.1 0c-.228 10.69 20.7 22.29 29.343 23.654l-17.06 25.247z"/><path id="V" d="M10.464 0L0 16.831l10.464 12.282 6.37 166.492 20.7 16.831 15.695-22.972S27.297 52.995 21.838 27.749l1.82-13.875L10.463 0z"/><path id="W" d="M.308 24.564c7.052 78.015-2.047 172.178 0 229.267l75.977 5.459c5.232-.91 10.919-4.321 11.601-9.78L84.929 84.383 64.683 41.395 40.116 0 .308 24.564z"/><path id="X" d="M16.15 239.047C14.105 182.868 21.384 76.65 14.332 0L0 8.87c7.052 78.015-1.365 172.178.682 229.04l15.469 1.137z"/><path id="Y" d="M2.275 59.364l4.777-17.059L.227 24.792 5.687 0c7.052 2.274 6.142 13.874 4.094 18.65l-.454.91 1.364-8.188 28.435 12.282-4.777 18.651-8.872 11.828-5.46 21.152L0 64.823l2.275-5.46z"/><path id="Z" d="M9.296 10.69c-.683 2.502-3.185 3.64-5.46 2.502C1.79 12.282.652 9.78.88 7.733l-.682 2.502c-.683 2.502.455 5.459 2.73 6.369 2.274 1.137 4.549 0 5.459-2.502L12.253.91c0-.228.227-.683.227-.91L9.296 10.69z"/><path id="aa" d="M9.976 12.282c-.682 2.73-3.412 3.867-5.686 2.73h-.228C2.015 14.101.65 11.371.877 9.098L.195 11.6c-.682 2.73.455 5.686 2.957 6.823h.228c2.274 1.138 5.004 0 5.687-2.73L13.389.91c0-.228.227-.683.227-.91l-3.64 12.282z"/><path id="ab" d="M9.976 12.282c-.682 2.73-3.412 3.867-5.686 2.73h-.228C2.015 14.101.65 11.371.877 9.098L.195 11.6c-.682 2.73.455 5.686 2.957 6.823h.228c2.274 1.138 5.004 0 5.687-2.73L13.389.91c0-.228.227-.683.227-.91l-3.64 12.282z"/><path id="ac" d="M8.734 8.416c-.91 2.274-3.185 3.184-5.232 2.047C1.909 9.553 1 7.733 1 5.913L.317 7.507c-.91 2.274.228 5.231 2.275 6.368 2.047 1.137 4.55.228 5.232-2.047l3.64-10.235c.227-.455.227-1.137.227-1.592L8.734 8.416z"/><path id="ad" d="M442.44 497.882L0 4.549 5.004 0l442.668 493.106-5.232 4.776z"/><path id="ae" d="M17.06 30.023L0 12.965 14.104.455 37.76 0l6.597 7.278-1.138 5.46-14.785 6.14-7.735 6.369-3.64 4.776z"/><path id="af" d="M0 44.433s72.337-62.32 97.814-39.349c25.25 22.745 43.448 45.717 43.448 45.717s-11.373-4.321-34.576 5.914c-14.786 6.368-58.234 41.85-58.234 41.85L0 44.433z"/><path id="ag" d="M0 35.937L82.346 0 53.912 51.858l77.569 5.686-101 44.125c-17.515 6.596-23.43-6.368-5.004-13.192 25.25-8.416 8.19-13.647 11.374-12.964L0 35.937z"/><path id="ah" d="M12.253 6.81L8.386 20.002c-.683 2.502-3.185 3.64-5.46 2.502C.652 21.367-.486 18.41.196 16.136L4.065 2.944C4.746.442 7.248-.696 9.524.442c2.274.91 3.411 3.866 2.729 6.368z"/><path id="ai" d="M12.708 7.261L8.386 22.045c-.683 2.73-3.185 3.867-5.46 2.73C.652 23.637-.486 20.68.196 17.95L4.52 3.167C5.2.437 7.703-.699 9.979.437c2.274 1.138 3.411 4.095 2.729 6.824z"/><path id="aj" d="M12.569 7.038L8.474 21.367c-.682 2.502-3.185 3.64-5.46 2.502C.74 22.732-.624 19.775.286 17.273L4.38 2.943c.682-2.5 3.184-3.637 5.459-2.5 2.275 1.137 3.412 4.094 2.73 6.596z"/><path id="ak" d="M3.957 2.537L.317 12.772c-.91 2.274.228 5.231 2.275 6.368 2.047 1.137 4.55.228 5.232-2.047l3.64-10.235c.91-2.274-.228-5.231-2.275-6.368C7.14-.648 4.867.262 3.957 2.537z"/><path id="al" d="M27.07 30.25c1.592-8.642 3.412-16.603 5.687-24.109L5.914 0 0 23.427l27.07 6.823z"/><path id="am" d="M0 141.927c43.675-11.6 88.26-33.207 98.042-45.944C114.875 67.097 135.348 40.258 142.172 0l29.8 8.643c-10.009 53.45-7.962 55.497-24.34 96.438-.228 4.321-5.687 19.333-18.426 28.431-52.092 40.485-108.96 70.736-104.411 75.057L0 141.927z"/><path id="an" d="M2.73 0l4.55 35.482-1.82 40.485L0 116.226 15.24 270.89c.456 5.231 2.048 8.87 7.735 9.098 4.095 0 6.142-3.184 6.142-3.184s39.808-11.6 35.486-37.302c-7.962-47.764-6.142-112.131-9.781-161.033l.227-69.599L2.73 0z"/><path id="ao" d="M0 0l20.7 5.004.455 18.196-9.781-2.047 8.871 8.415-10.918 129.19-4.323-42.76S10.236 27.066 0 0z"/><path id="ap" d="M3.247 27.833C4.157 13.96 13.484 3.496 23.72 4.406c10.237.91 17.743 12.965 16.833 26.839-.227 4.321-1.364 8.415-3.184 11.827 3.64-4.094 5.914-9.553 6.37-15.921C44.647 13.277 35.775 1.22 23.72.085 11.664-1.053.973 9.41.063 23.285c-.455 7.05 1.592 13.646 5.232 18.423-1.593-4.095-2.503-8.87-2.048-13.875z"/><path id="aq" d="M4.095 77.332L9.78 0 0 124.641l37.988 3.184L55.96 81.881 4.095 77.332z"/><path id="ar" d="M0 46.172l117.605 10.235 3.185-47.31L17.97 0 0 46.172zm55.731-32.525L27.98 11.145l.683-10.008L56.414 3.64l-.683 10.008z"/><path id="as" d="M0 77.332L5.687 0 0 77.332z"/><path id="at" d="M0 77.332l51.864 4.55L89.625 7.505 5.687 0 0 77.332z"/><path id="au" d="M108.506 6.141l-5.687 77.332L0 74.375 37.761 0l70.745 6.141z"/><path id="av" d="M0 10.918l30.027 2.956.682-10.917L.682 0 0 10.918z"/><path id="aw" d="M25.25 6.596l2.502 19.788 14.558 13.42 5.232 27.975C39.353 69.826 35.26 57.772 35.26 51.631v-1.138l2.274 9.098-34.348 5.232L0 43.443l4.095-17.287L.455 1.82 25.477 0l-.227 6.596z"/><path id="ax" d="M1.839 21.397L.019 5.931C-.208 2.974 1.612.472 4.341.017c2.73-.227 5.232 1.82 5.687 4.777l1.82 15.466c.227 2.957-1.592 5.459-4.322 5.914-2.73.227-5.232-2.047-5.687-4.777z"/><path id="ay" d="M2.11 23.443L.064 6.157C-.39 2.972 1.656.243 4.385.016h.228c2.73-.228 5.46 2.047 5.687 5.004l2.047 17.285c.455 3.185-1.592 5.914-4.322 6.142h-.227c-2.73.227-5.232-2.047-5.687-5.004z"/><path id="az" d="M2.106 23.443L.058 6.157C-.397 2.972 1.878.243 4.608.016h.227c2.957-.228 5.46 2.047 5.915 5.004l2.047 17.285c.455 3.185-1.82 5.914-4.55 6.142H8.02c-2.957.454-5.46-1.82-5.914-5.004z"/><path id="aA" d="M10.254 17.286L9.57 5.004C9.344 2.274 7.07 0 4.567 0 1.837 0-.21 2.502.017 5.231L.7 17.513c.227 2.73 2.502 5.004 5.004 5.004 2.73-.227 4.777-2.502 4.55-5.231z"/><path id="aB" d="M34.121 0c0 15.239-1.82 21.835-2.274 30.25L0 28.659.227 2.047 34.121 0z"/><path id="aC" d="M94.976 0c-9.099 2.274-23.885 9.098-58.461 34.8C22.866 77.332 4.668 126.916 1.711 169.22c-2.73 37.53-1.591 85.066-.681 121.458l41.628-2.73 5.687-111.221L65.177 71.873l32.984-5.23L94.976 0z"/><path id="aD" d="M19.79 0L0 7.96l8.644 21.153 10.464-5.459-6.824 13.42L61.19 140.79l-.228-23.655C60.508 117.135 17.288 1.82 19.79 0z"/><path id="aE" d="M68.47 289.541c28.435 4.549 58.234 8.188 89.398 10.917l215.647-155.119L333.024-.001v139.199h-5.004L0 276.804c21.838 4.776 44.585 9.098 68.47 12.737z"/></defs></svg>